<svg width="51" height="51" viewBox="0 0 51 51" fill="none" xmlns="http://www.w3.org/2000/svg">
<rect width="50.4533" height="50.4533" fill="white"/>
<circle cx="25.2267" cy="25.2261" r="24.6533" fill="white" stroke="#E3E5E6" stroke-width="1.14667"/>
<path d="M34.3999 26.0859C34.8749 26.0859 35.2599 25.7009 35.2599 25.2259C35.2599 24.751 34.8749 24.3659 34.3999 24.3659V26.0859ZM16.0532 24.3659C15.5783 24.3659 15.1932 24.751 15.1932 25.2259C15.1932 25.7009 15.5783 26.0859 16.0532 26.0859V24.3659ZM20.0345 31.5701C20.3718 31.9044 20.9164 31.902 21.2507 31.5647C21.5851 31.2273 21.5826 30.6828 21.2453 30.3485L20.0345 31.5701ZM18.6184 28.9557L19.2237 28.3449L18.6184 28.9557ZM18.6184 21.4962L18.013 20.8854L18.6184 21.4962ZM21.2453 20.1034C21.5826 19.7691 21.5851 19.2246 21.2507 18.8872C20.9164 18.5499 20.3718 18.5474 20.0345 18.8818L21.2453 20.1034ZM16.076 25.5852L15.2229 25.694L15.2229 25.694L16.076 25.5852ZM16.076 24.8667L15.2229 24.7579L15.2229 24.7579L16.076 24.8667ZM34.3999 24.3659H16.0532V26.0859H34.3999V24.3659ZM21.2453 30.3485L19.2237 28.3449L18.013 29.5665L20.0345 31.5701L21.2453 30.3485ZM19.2237 22.107L21.2453 20.1034L20.0345 18.8818L18.013 20.8854L19.2237 22.107ZM19.2237 28.3449C18.4033 27.5317 17.8405 26.9721 17.4597 26.4979C17.0898 26.0373 16.9629 25.7415 16.9291 25.4765L15.2229 25.694C15.3133 26.4027 15.6515 26.9932 16.1186 27.5749C16.5749 28.1431 17.2213 28.7818 18.013 29.5665L19.2237 28.3449ZM18.013 20.8854C17.2213 21.67 16.5749 22.3088 16.1186 22.877C15.6515 23.4587 15.3133 24.0492 15.2229 24.7579L16.9291 24.9754C16.9629 24.7104 17.0898 24.4146 17.4597 23.954C17.8405 23.4798 18.4033 22.9202 19.2237 22.107L18.013 20.8854ZM16.9291 25.4765C16.9079 25.3101 16.9079 25.1418 16.9291 24.9754L15.2229 24.7579C15.1833 25.0687 15.1833 25.3832 15.2229 25.694L16.9291 25.4765Z" fill="#72777A"/>
</svg>
