<svg width="72" height="76" viewBox="0 0 72 76" fill="none" xmlns="http://www.w3.org/2000/svg">
<path fill-rule="evenodd" clip-rule="evenodd" d="M65.0048 22.8562C65.059 22.9318 64.9348 22.9855 64.8916 23.013C64.9418 23.1298 64.8855 23.0746 64.8867 23.191C64.8873 23.2524 65.0923 23.2805 64.7125 23.4852C64.1881 23.7678 63.7282 24.1591 63.1323 24.2275L62.4366 24.2932C62.3084 24.3448 62.3307 24.264 62.2895 24.2923L61.2135 24.3938L59.6284 24.4451C59.6129 24.4451 59.5965 24.4422 59.5811 24.448L59.0653 24.5245C58.9433 24.5511 59.0263 24.4917 58.7993 24.538L57.7155 24.5979L57.1852 24.6667L56.2456 24.7209L54.9905 24.714C54.9469 24.712 54.9063 24.6957 54.8647 24.6928C54.7466 24.6836 54.5065 24.6951 54.4187 24.6503L54.0441 24.6406C53.7991 24.6188 53.1527 24.5252 53.0019 24.3637C52.8966 24.2511 52.3604 24.0599 52.0826 23.6176L51.8997 23.1338C52.0254 22.9929 51.9563 22.977 52.0167 22.9702C52.0979 22.9612 52.0621 22.8375 52.1589 22.8143C52.3863 22.7601 52.2959 22.5409 52.605 22.5879C52.7412 22.6086 52.8516 22.4701 53.0317 22.4736C53.3865 22.4802 53.3973 22.3627 53.4789 22.3594C53.5176 22.3585 53.5554 22.3672 53.5912 22.3227C53.595 22.3179 53.598 22.315 53.6027 22.317C53.6812 22.3411 53.7557 22.2628 53.8311 22.2183L54.0266 22.2037C54.2881 22.1011 54.8892 22.081 55.1568 22.1195L56.14 22.0972C56.3016 22.0963 56.4642 22.0972 56.6278 22.0932C56.7227 22.0884 56.8175 22.068 56.9122 22.0642L57.9476 22.0671C58.0665 22.1116 58.1846 22.0419 58.3027 22.0574L59.2016 22.0129L61.2358 22.2113L63.1634 22.3062C63.2802 22.2651 63.2772 22.3873 63.3288 22.3962C63.3821 22.4048 63.4352 22.4039 63.4894 22.43C63.4917 22.4311 63.9354 22.4658 64.1 22.5627C64.2231 22.635 64.4117 22.435 64.4502 22.5744C64.4817 22.6879 64.6929 22.6235 64.8093 22.6498C64.8781 22.6656 64.9551 22.7882 65.0048 22.8562ZM60.1992 28.9478C60.1759 28.9748 60.1673 29.002 60.1642 29.0272C60.1488 29.0203 60.1362 29.0175 60.1207 29.0126C60.1412 28.9836 60.1691 28.9566 60.1992 28.9478ZM60.1983 29.1037L60.3734 29.2779L60.1731 28.8434C59.8496 28.4971 59.9322 28.6378 59.6012 28.404C59.3571 28.2316 59.1797 28.26 58.9809 28.1022C58.7847 27.9463 57.9324 27.8498 57.6309 27.8313L57.1451 27.8255L55.5116 27.7384L53.5318 27.8293L52.6192 27.7625L51.8992 27.7963L51.9001 27.9463C51.2179 27.9463 50.6952 28.4816 50.706 29.1404C50.7166 29.785 51.2323 30.2949 51.9049 30.2949V30.4459C51.9795 30.4382 52.0549 30.4333 52.1285 30.4411C52.2813 30.4566 52.4343 30.3869 52.5891 30.4305C52.7254 30.4693 54.6129 30.3921 54.93 30.3878L56.2015 30.3617L57.3503 30.3327L57.7402 30.267C57.8001 30.2613 57.8583 30.2805 57.9164 30.2533C58.0142 30.2089 58.111 30.1295 58.2134 30.1538C58.2183 30.1558 58.2231 30.1518 58.2269 30.148C58.3074 30.0692 58.3992 30.1572 58.4998 30.0589C58.5776 29.983 58.977 30.0375 59.2729 29.9196C59.5092 29.8255 59.7243 29.9277 59.806 29.8219C59.9897 29.5841 60.1155 29.709 60.1776 29.5645C60.2281 29.4469 60.2897 29.5162 60.3043 29.4667C60.3227 29.4097 60.3469 29.3825 60.373 29.3593L60.1563 29.1415C60.1731 29.1307 60.1866 29.1183 60.1983 29.1037ZM69.1581 26.3932C69.1853 24.6267 69.1124 22.8465 68.9394 21.0892C68.8962 20.6507 68.8708 20.3092 68.7178 19.8787C68.3568 18.8622 67.392 18.1071 66.3073 17.98L63.9916 17.7963C63.7846 17.7826 63.5783 17.7565 63.3693 17.7392C62.91 17.7059 62.53 17.7658 62.0766 17.6231C61.9088 17.5704 61.0808 17.5511 60.8011 17.5225C60.5853 17.4993 60.3588 17.5119 60.1381 17.5041C59.5758 17.4789 59.0146 17.4674 58.4544 17.4393C57.8952 17.4152 57.3338 17.4132 56.7765 17.3754C56.1056 17.3283 54.6973 17.5549 54.4579 17.4393C54.3326 17.3788 53.4215 17.4028 53.2308 17.4287C52.8545 17.4789 52.4761 17.4877 52.0957 17.5041C51.8018 17.5162 50.9515 17.4564 50.6772 17.3668C50.828 17.2865 51.3194 17.2201 51.519 17.1828C51.2557 17.1254 51.348 17.1897 51.5403 17.0037C51.4692 16.9596 50.9114 16.9827 51.2663 16.8885C52.3728 16.5957 56.2032 16.1415 57.4876 16.0175C57.4664 15.7369 57.4392 15.4815 57.387 15.2917C57.3476 15.1539 57.3833 14.31 57.2893 13.8296C57.1959 13.3515 57.1944 11.9482 57.1663 11.3436C56.9921 11.3542 56.817 11.3668 56.6476 11.3814C55.2281 11.5047 51.9289 11.1013 50.4475 10.9275C47.8596 10.624 45.0295 9.90363 42.5124 9.08697C42.2337 8.99211 41.9405 8.88951 41.6782 8.81895C40.7783 8.57541 40.2978 8.34825 39.4671 8.01867L38.5216 7.65579C37.0942 6.98475 35.899 6.55023 34.4446 5.74365L32.7744 4.76714C31.8744 4.2671 30.7535 3.51992 29.8917 2.92844C27.7176 4.50488 25.0461 6.06639 22.6126 7.25313C21.2085 7.93785 18.7585 8.90948 17.2206 9.43923C12.9531 10.9091 7.79811 11.8343 3.24033 11.9232L3.27129 19.3029L3.27525 31.4793C3.27435 32.5361 3.29559 33.6044 3.26949 34.6466C3.22395 36.4137 3.29361 38.1604 3.27723 39.9195C3.26751 40.9772 3.27813 42.0397 3.28497 43.0983C3.29361 44.2609 3.30315 44.9665 3.39531 46.1515C3.54345 47.8847 3.89463 49.5925 4.47531 51.2183C4.83207 52.1635 5.40879 53.4688 5.91333 54.3062L6.27909 54.9004C7.28421 56.533 8.55231 57.9206 9.99123 59.1738C10.9756 60.0311 12.7004 61.236 13.7682 62.0169L13.3752 58.09C13.1819 56.1469 13.0419 54.513 13.0095 52.5489C12.9969 51.7302 12.9765 50.9251 12.9697 50.0967L13.0471 48.3655C13.0807 47.8147 13.1594 47.6793 13.1778 47.4559C13.2377 46.7271 13.57 45.4671 13.798 44.7938C14.7592 41.9557 16.2052 39.6103 18.4624 37.566C20.1328 36.0531 22.3205 34.7436 24.496 33.9914C22.9249 33.1135 21.596 31.7553 20.7124 30.1912C19.3363 27.756 19.0386 25.2025 19.7301 22.5087C19.902 21.8389 19.9564 21.7955 20.1879 21.2206C20.7093 19.9262 21.1959 19.2204 22.1252 18.1984C22.7853 17.4724 23.5558 16.9105 24.4206 16.4605L25.907 15.9147C26.579 15.6856 27.7997 15.5382 28.5082 15.6206C29.2824 15.7106 28.9047 15.7252 29.4575 15.9516C29.5603 15.9937 29.5457 16.071 29.8648 16.1683C29.7264 16.2079 29.5939 16.2303 29.5088 16.3174C29.4669 16.3629 29.2624 16.3132 29.1052 16.4403C28.9038 16.603 28.4914 16.5195 27.9828 16.8748C27.8213 16.9877 27.1683 17.1348 26.7634 17.318C26.438 17.4654 24.7671 18.4983 24.5397 18.8644C24.4126 19.069 24.2656 19.1689 24.1295 19.3144L23.9796 19.5302C23.7502 19.7354 23.6273 20.0112 23.4851 20.2657L23.0767 20.8899C22.7595 21.5194 22.541 22.0914 22.3277 22.7702C22.1227 23.4223 21.9472 24.5977 21.9872 25.2736C22.0575 26.4658 22.2723 27.4756 22.8146 28.555C23.0904 29.1017 23.4232 29.6244 23.819 30.0928C24.642 31.0596 25.9968 32.0155 27.1981 32.4317L27.9606 32.6688C28.4277 32.8351 29.4899 32.9175 30.0817 32.8817C31.4114 32.8012 32.7859 32.406 33.9418 31.7418C35.4999 30.8464 36.7851 29.3627 37.3984 27.663C37.6884 26.8594 37.8783 25.8603 37.8619 25.0434C37.8376 23.8268 37.6867 22.8247 37.1748 21.6864C37.0164 21.3342 36.4397 20.304 36.1364 19.9881C35.7879 19.6252 35.9172 19.6081 35.7764 19.4433C35.0839 18.632 34.3008 18.11 33.4211 17.536C33.1599 17.3655 32.6156 17.2213 32.3073 17.1459C32.0349 17.0793 32.1949 17.0176 31.959 16.9418C31.5025 16.7953 31.1988 16.7674 30.7184 16.6941C30.5325 16.6659 30.0213 16.5107 29.8648 16.4047C29.9559 16.3422 30.2832 16.3147 30.4058 16.3069C30.2446 16.2265 30.295 16.2933 30.4387 16.1318C30.3885 16.063 30.2704 16.0873 30.2016 16.0438C30.1066 15.9216 31.1459 15.9165 31.2255 15.918C32.1687 15.9351 33.1765 16.099 34.0772 16.4104C36.2916 17.1762 37.7159 18.5134 38.8247 20.5492C39.0018 20.8743 39.5067 21.9802 39.5407 22.3211L39.7353 22.9947C40.1846 25.0161 40.0177 27.2455 39.2011 29.155C38.3612 31.1188 36.9343 32.692 35.128 33.8222C37.4402 34.5219 39.3233 35.5545 41.1964 37.1268C41.2965 36.839 42.773 34.0492 43.0824 33.4573C43.5366 32.5885 43.9664 31.669 44.4557 30.8243L45.3906 28.975C45.3605 28.1922 45.3556 27.4102 45.3663 26.6292C45.3855 25.4106 45.4896 23.2713 45.761 22.1334C45.9318 21.4171 46.0218 20.747 46.1878 20.0295C46.4594 18.8556 47.4699 17.667 48.5616 17.1798C48.7315 17.104 49.3585 16.9063 49.4616 16.9447C49.6524 17.0156 49.8312 16.9881 50.0297 17.0066C50.1482 17.0176 50.2833 17.1051 50.6568 17.1315C50.4918 17.1864 50.2759 17.2285 50.1643 17.3542C50.1402 17.3842 50.0385 17.3986 49.9746 17.4249C49.5745 17.5709 49.7201 17.6186 49.2624 17.8827C48.5912 18.27 48.5319 18.7078 48.3199 18.9927C48.116 19.2669 47.7878 19.9521 47.7547 20.3368L47.628 22.4889C47.6038 22.7724 47.5084 24.4233 47.5621 24.7668C47.6398 25.2643 47.5515 25.7674 47.626 26.14C47.6309 26.1632 47.6337 26.1904 47.6328 26.2154C47.6067 26.7293 47.6947 27.2112 47.7547 27.7018L47.8263 28.9676C47.8568 29.2363 47.8933 29.4203 47.7702 29.6943L47.1441 31.0615C46.668 32.1183 46.1223 33.1422 45.6113 34.1804L47.2631 33.1711C47.7992 32.8441 48.4804 32.9553 48.886 33.4073C49.1551 33.6618 49.2454 33.7862 49.6166 33.986C49.9807 34.182 50.3067 34.2558 50.7062 34.2967C52.2974 34.4589 54.6748 34.5679 56.3004 34.612C56.7668 34.6255 57.24 34.612 57.7006 34.6421C58.4834 34.6934 59.2567 34.6228 60.0338 34.6246C60.5021 34.6286 60.9725 34.5994 61.4408 34.5791L65.2912 34.3334L66.461 34.2279C67.5864 34.0341 68.5731 33.1553 68.7506 31.9876C68.9859 30.4407 69.1351 27.9294 69.1581 26.3932ZM57.5825 37.9446C57.5555 37.8729 57.5292 37.8004 57.5031 37.7298C57.4669 37.5991 57.4482 37.3187 57.4218 37.7287C57.4189 37.7761 57.4111 37.8187 57.4054 37.8681C57.3957 37.629 57.385 37.3929 57.3744 37.1587C57.4682 37.1607 57.5622 37.1607 57.6531 37.1607C57.6194 37.4055 57.6426 37.7655 57.5825 37.9446ZM57.0425 39.102C57.0299 39.9544 57.0135 40.8031 57.0445 41.6558C57.0575 42.0658 57.0326 44.1612 56.9662 44.4031C56.9062 44.6121 56.8954 44.9005 56.8926 45.188C56.8954 46.3457 56.6982 48.2352 56.368 49.3762C55.677 51.7648 54.7914 53.8207 53.2839 55.8598C52.952 56.3087 52.8089 56.5396 52.4178 56.9842C52.094 57.3525 50.8757 58.669 50.4824 58.9187C49.9557 59.253 48.9315 60.129 48.2481 60.617L46.2391 62.0424C46.3883 61.3631 46.6437 59.3356 46.6977 58.641C46.7364 58.1445 46.7703 57.6472 46.8554 57.17C47.012 56.3056 47.1688 51.2755 47.134 50.0159C47.0903 48.4251 47.0153 47.5065 46.6425 45.938C46.0098 43.2758 44.764 40.9173 42.9546 38.869C43.326 38.7205 47.2707 36.2428 47.7912 35.9224C48.6424 36.5667 49.6674 36.8529 50.7049 36.9279C52.9878 37.0928 54.8132 37.1367 57.1604 37.1563L57.0425 39.102ZM42.7942 64.5205L31.2989 72.7449C30.783 73.1153 30.4794 73.3336 29.8686 73.6159C29.3817 73.3824 29.0781 73.1882 28.6522 72.8815C24.4056 69.8226 20.2228 66.733 15.9977 63.6428C15.5216 63.2945 15.0455 62.9471 14.5674 62.5997L14.5857 61.389C14.5751 61.2763 14.5938 60.4109 14.6622 60.2995C14.7889 60.0928 14.6145 58.8161 14.6729 58.2334C14.7483 57.4814 14.7839 56.0356 14.8044 55.2375C14.8127 54.9177 14.8075 53.6953 14.8673 53.5063C14.9853 53.1337 14.9162 52.749 14.9223 52.3471L14.9436 50.7417C14.9488 49.119 15.0348 48.2276 15.4429 46.5826L15.982 44.952C17.1451 41.9827 19.1932 39.5568 21.8849 37.8684C23.2376 37.0201 24.4351 36.5566 25.9327 36.1275C26.8378 35.8681 27.3567 35.7842 28.2562 35.6668L27.1656 41.1275C27.1171 41.3674 27.0882 41.6094 27.032 41.8484C26.9237 42.3196 26.8191 42.7909 26.7368 43.2632C26.5752 44.1709 26.3516 45.0787 26.2278 45.9853L26.0139 47.3904C25.9781 47.6014 25.9162 47.8143 25.9007 48.0222C25.8746 48.3725 25.8852 48.7113 25.7875 49.079C25.7826 49.0974 25.7817 49.1168 25.7826 49.1341C25.8026 49.4365 25.6541 49.7187 25.6771 50.1018L25.4188 51.714C25.2759 52.4214 25.2752 53.0831 25.1402 53.6668C24.8009 55.1337 25.1188 54.6019 24.9534 55.6807C24.8855 56.1231 25.038 55.9318 24.9726 56.3001C24.924 56.5744 25.0007 56.2673 25.0229 56.8042C25.1985 56.434 25.2426 56.4813 25.3324 56.3281C25.6703 55.7527 25.6019 56.1024 25.9304 55.3111L26.8711 52.7391C26.9892 52.355 27.1024 51.9727 27.2629 51.5963C27.5662 50.8889 28.2873 47.9292 28.5161 46.9282L28.8752 45.2628C29.0125 44.8438 29.2224 43.7831 29.3319 43.2848C29.3734 43.099 29.4287 42.9162 29.4703 42.7322L29.9435 40.5733C30.1687 41.4646 30.3219 42.4595 30.5415 43.3321L30.8046 44.5466C30.886 44.8737 30.9749 45.1998 31.0494 45.5289C31.1529 45.9789 31.2303 46.4337 31.359 46.8778L31.5226 47.6617L33.0544 54.8923L33.4271 56.5209L32.3375 57.9976C32.2792 58.0965 32.1258 58.2129 31.9136 58.5385L31.1356 59.5779L29.775 61.4049C28.6016 60.1821 27.4017 59.0483 26.2429 57.8466C26.1639 57.7647 25.4611 57.0021 25.3767 57.0607C25.3796 57.1333 25.4871 57.2253 25.4619 57.2892C25.2403 57.2298 25.2151 57.141 25.277 57.3153C25.1598 57.1966 24.9235 56.929 24.7941 56.8575C24.8056 57.0512 25.0513 57.5606 25.1686 57.7314C25.3225 57.957 25.4745 58.1834 25.67 58.3944C25.7218 58.4505 26.1482 59.0337 26.1403 59.1376C26.1253 59.3304 26.9087 60.0678 27.165 60.5011C27.4712 61.0184 28.1943 62.0264 28.5701 62.5439C28.6668 62.6766 28.7839 62.7975 28.87 62.934C28.967 63.0886 29.1171 63.3183 29.259 63.4344C29.6836 63.7812 30.2509 63.7123 30.632 63.2621C30.7191 63.1593 30.8827 62.9286 30.9834 62.8702C31.2561 62.7122 31.3866 62.4316 31.5901 62.1812L34.5949 58.4206L35.37 57.4521C35.6758 57.0588 35.6281 56.7157 35.5442 56.2995L34.8282 52.5787L33.7309 46.5122L32.9452 42.5243C32.8106 41.8821 32.6275 41.2459 32.5117 40.5832C32.4169 40.0394 32.2398 39.5178 32.1741 38.9643C32.1345 38.6401 32.0473 38.3159 31.9815 37.9908L31.4985 35.6238C32.317 35.6973 32.3861 35.7466 33.1679 35.9257C36.8586 36.7719 40.2642 39.1209 42.2827 42.3385C43.0572 43.5733 43.5056 44.5061 43.9288 45.8552C44.5048 47.6916 44.6601 49.563 44.697 51.495C44.7028 51.7621 44.6826 52.0292 44.7105 52.2943C44.7532 52.7395 44.8324 53.176 44.8083 53.6384C44.8063 53.6616 44.8102 53.6857 44.8151 53.7072C44.8909 54.0555 44.8083 54.5114 44.9011 54.9429C44.9514 55.176 44.9668 56.8026 44.9659 56.9963C44.9622 57.8914 45.0999 58.7036 45.0792 59.4988C45.0315 61.3343 45.2505 60.7151 45.3056 62.1184C45.3182 62.4381 45.3391 62.4177 45.4149 62.6361L42.7942 64.5205ZM71.3334 24.4955C71.2893 23.4578 71.1297 21.2213 70.9502 20.1476C70.7648 19.0381 70.1004 17.7669 69.1734 17.107C68.9126 16.9213 68.9328 16.8838 68.5947 16.6725C68.011 16.3077 67.0802 16.0558 66.3885 15.9894C65.1668 15.8719 62.8061 15.7759 61.4532 15.7842C60.3329 15.7911 58.7102 15.8991 57.5823 16.0078L57.7546 15.1648C57.8136 14.7168 57.8707 14.263 57.9781 14.022C58.059 13.8336 58.2379 11.1224 58.2636 10.667C58.2798 10.3804 58.0781 10.1968 57.7721 10.1754C57.3928 10.1445 57.0056 10.1155 56.6215 10.0845C54.4104 9.92937 50.7135 9.36057 48.4745 8.78385C48.1852 8.70249 47.8969 8.61645 47.6132 8.52933C47.2755 8.42385 46.9184 8.32989 46.5662 8.22639C43.5812 7.35645 41.4506 6.50559 38.6399 5.22075C37.6896 4.78641 35.9128 3.8234 35.0051 3.27854L32.2065 1.49798L30.6117 0.369564C30.1723 0.0628445 29.5704 0.0482647 29.1098 0.375325L27.8634 1.25876C27.1051 1.76979 25.3573 2.86508 24.5674 3.30446C23.4777 3.9107 22.6436 4.35387 21.5096 4.89333C21.2376 5.02005 20.9619 5.13326 20.689 5.25728C15.3491 7.71248 8.99367 9.14907 3.18831 9.29972L1.92165 9.32871C1.19679 9.34509 0.616289 9.93746 0.617189 10.667L0.672269 23.6979C0.694589 26.1974 0.716729 28.6962 0.739049 31.1956C0.742829 33.194 0.746789 35.1951 0.750569 37.1943C0.750569 37.8988 0.772889 38.6023 0.775769 39.3068C0.781889 41.391 0.753448 43.4616 0.817348 45.5485C0.852268 46.6897 1.15737 48.636 1.42899 49.7202C1.49181 49.9756 1.55571 50.233 1.61961 50.4886C1.86261 51.5344 2.69493 53.5515 3.27435 54.5926C3.99633 55.9678 4.85367 57.2827 5.88813 58.4343C7.97631 60.8316 9.44979 61.7746 11.9923 63.6037L26.9123 74.3143C27.8712 74.9981 28.3636 75.3428 29.5241 75.8007C29.7419 75.883 29.9887 75.8878 30.2209 75.7939C31.3581 75.3361 31.9251 74.9099 32.8453 74.2407L36.9066 71.2786C37.8268 70.5955 38.7801 69.948 39.6743 69.2415C39.7846 69.1544 39.9153 69.0595 40.0294 68.9861C40.7493 68.5255 41.5744 67.8642 42.3045 67.3334L44.7982 65.5179C46.4589 64.3014 48.1174 63.088 49.779 61.8725C51.5781 60.522 52.9718 59.2301 54.333 57.3099C56.8965 53.6929 58.0957 49.4772 58.0374 45.0472C58.0316 44.2865 57.9852 43.5424 57.9609 42.7896C57.9286 41.8425 57.7906 37.6553 57.7006 37.1605C58.0798 37.1634 58.4602 37.1653 58.8386 37.1625C59.1598 37.1605 59.4801 37.1392 59.7994 37.1286C60.8997 37.0984 62.3341 37.0797 63.4138 36.9825L65.2127 36.8509C66.5561 36.717 67.9138 36.6099 69.0168 35.7061C69.499 35.311 69.6601 35.1963 70.0504 34.6957C70.6692 33.9019 70.9972 32.9908 71.1012 32.0074C71.3716 29.4581 71.452 27.0569 71.3334 24.4955Z" fill="#07A5D7"/>
</svg>
