<svg width="40" height="40" viewBox="0 0 40 40" fill="none" xmlns="http://www.w3.org/2000/svg">
<path d="M36.7523 34.1151C37.1023 34.6154 37.014 35.4164 36.5514 35.9387C35.6797 36.9234 33.6472 37.0381 32.2061 35.7787C34.3206 34.1235 32.98 31.6417 31.3395 32.4161C30.3824 32.8699 29.9653 34.1407 30.91 35.5433C29.2567 36.0656 27.8542 34.6951 27.883 33.2782C27.8835 33.2538 27.874 33.2324 27.8704 33.209C28.7131 32.3847 29.4344 31.204 29.4043 30.059C29.3845 29.3013 29.0032 28.6351 28.6139 28.017C27.983 27.0164 27.2895 26.0356 26.553 25.1018C25.8627 24.2269 25.1577 23.4184 24.1274 23.1364C22.7591 22.7629 21.3643 23.5463 20.5882 24.4891C19.8781 25.3528 19.4936 26.4021 19.1798 27.3765C13.9296 24.953 9.97174 19.8278 8.95478 14.1338C9.93 14.0487 10.9895 13.9133 11.9457 13.4355C13.1008 12.8586 14.1346 12.2053 14.0979 10.5705C14.0639 9.04979 13.245 7.47605 12.48 6.12117C11.7502 4.82729 10.8303 3.38305 9.14528 2.61571C7.81662 2.0089 6.00824 3.53769 4.92894 4.45111L4.63704 4.69566C2.49028 6.46581 1.91871 8.42049 2.31579 10.682C2.36556 13.2552 3.40406 15.948 4.31407 18.2415C7.72085 26.8278 14.1761 32.9992 18.3606 34.7953C21.2503 36.0356 24.562 36.0489 26.9359 33.9642C26.9953 33.9243 27.0525 33.8795 27.1111 33.8378C27.4568 35.7745 29.4663 37.0704 31.4684 36.2143C32.304 37.0359 33.4564 37.5226 34.6282 37.5226C37.285 37.5226 38.4666 35.1317 37.426 33.6442C37.1153 33.1992 36.4402 33.6694 36.7523 34.1151ZM8.80468 3.36378C10.1224 3.96363 10.9141 5.01832 11.7641 6.52464C12.48 7.79337 13.2463 9.25794 13.276 10.5887C13.2992 11.6203 12.8019 12.073 11.6958 12.6389C10.6467 9.61111 8.58456 6.54925 6.20572 4.46569C7.05915 3.79715 8.1635 3.07356 8.80468 3.36378ZM23.2134 34.4019C22.3243 34.4495 21.412 34.1167 20.5628 33.7475C14.492 31.1062 9.36092 26.1704 6.48475 20.2067C5.3407 17.8346 4.52119 15.2693 3.72843 12.7885C2.56208 9.13786 2.59217 7.49382 5.5621 4.99224C7.89451 6.9966 9.92318 9.99692 10.9372 12.9555C10.1396 13.2114 9.26835 13.2847 8.47774 13.3488C8.22074 13.3706 8.038 13.6123 8.07614 13.8588C9.03745 20.1216 13.4178 25.791 19.2306 28.2996C19.3387 28.3483 19.4877 28.3472 19.5942 28.299C19.701 28.2509 19.8002 28.1396 19.8356 28.0277C20.1184 27.1303 20.436 26.1279 20.9995 25.3112C25.5684 28.396 26.5588 32.9543 26.681 33.1354C25.6335 33.8937 24.4409 34.3335 23.2134 34.4019ZM21.5351 24.6855C22.1586 24.1058 23.0517 23.6937 23.9104 23.9294C24.6999 24.1456 25.3056 24.8482 25.9076 25.6112C26.6265 26.522 27.3032 27.4793 27.9186 28.4553C28.2605 28.9979 28.5684 29.5303 28.5829 30.0804C28.6056 30.9526 28.0153 31.9001 27.3417 32.5757C26.3674 29.4085 24.2693 26.5583 21.5351 24.6855ZM31.6496 35.1676C31.3427 34.7399 31.0988 34.1799 31.2413 33.6779C31.3308 33.3617 31.6587 33.0968 31.9457 33.0968C32.6057 33.0968 32.777 34.3349 31.6496 35.1676Z" fill="#BD0730"/>
</svg>
