<svg width="182" height="148" viewBox="0 0 182 148" fill="none" xmlns="http://www.w3.org/2000/svg">
<path d="M125.819 14.9439C112.588 16.362 98.0696 26.058 90.0926 38.4911C72.6279 12.9613 38.6157 8.68109 17.8654 28.0754C8.22201 35.2631 1.7583 45.9251 0.552985 59.6655C-1.11386 78.6653 7.91483 97.4802 21.1643 111.461C34.4136 125.443 51.5621 135.227 68.9326 143.804C74.2721 146.44 80.7926 148.865 86.245 147.643C86.561 147.827 86.915 147.93 87.2752 147.93C88.3656 147.93 87.5759 148.033 99.7766 139.377C119.416 125.458 117.817 125.715 132.509 113.852C142.953 105.419 153.752 96.6996 161.031 85.0504C171.781 67.8442 173.096 47.5344 164.381 33.3087C156.643 20.6856 141.152 13.3012 125.819 14.9439ZM157.545 82.8726C148.543 97.2809 133.524 107.247 120.448 118.468C108.5 128.725 97.9704 135.348 86.6853 143.751C74.3512 137.606 51.6815 125.753 38.4016 115.396C24.485 104.544 14.8651 91.6991 10.5843 78.2493C5.54767 62.4316 8.20044 45.6321 17.5072 34.4083C25.9626 24.2122 40.4891 18.4335 54.9176 20.5117C68.5212 22.4809 81.0346 31.0639 88.3936 43.4676C89.1501 44.7392 91.1772 44.8682 91.9694 43.3927C98.7131 30.8766 113.454 20.402 126.257 19.0321C140.024 17.5392 153.95 24.1557 160.876 35.4544C168.785 48.3638 167.478 66.9773 157.545 82.8726Z" fill="#00B3FF"/>
<path d="M150.565 12.9343L151.777 2.31791C151.905 1.19152 151.096 0.172146 149.968 0.0437215C148.843 -0.0766766 147.821 0.723302 147.694 1.85237L146.482 12.4688C146.353 13.5952 147.163 14.6146 148.29 14.743C149.48 14.864 150.442 14.0162 150.565 12.9343Z" fill="#00B3FF"/>
<path d="M168.904 1.73734C167.971 1.08719 166.693 1.31461 166.042 2.24837L158.251 13.44C157.296 14.8139 158.301 16.6694 159.937 16.6694C160.586 16.6694 161.225 16.3617 161.625 15.7891L169.416 4.59747C170.064 3.66639 169.835 2.38482 168.904 1.73734Z" fill="#00B3FF"/>
<path d="M178.355 14.9728L169.284 21.79C167.71 22.9736 168.549 25.4875 170.52 25.4875C171.739 25.4875 171.507 25.0801 180.825 18.2583C181.732 17.576 181.915 16.2891 181.233 15.3821C180.552 14.4751 179.264 14.2932 178.355 14.9728Z" fill="#00B3FF"/>
<path d="M46.4897 49.961C43.3687 48.6205 41.2162 49.5008 39.9614 50.472C35.7668 53.7204 35.5693 63.0885 38.316 67.6327C41.44 72.8072 47.8606 72.2815 50.8481 66.509C53.5939 61.2029 52.2808 52.4507 46.4897 49.961ZM41.8329 65.5084C39.9564 62.3975 40.2683 55.4337 42.4764 53.7228C43.5419 52.9051 46.3379 53.5899 47.5238 56.9039C48.3933 59.3333 44.6482 70.1662 41.8329 65.5084Z" fill="#00B3FF"/>
<path d="M122.838 46.7044C118.644 49.9527 118.446 59.3208 121.193 63.8651C124.297 69.0064 130.717 68.5538 133.725 62.7414C135.309 59.6806 135.528 55.266 134.271 51.753C132.121 45.7515 126.151 44.1405 122.838 46.7044ZM124.71 61.7407C122.833 58.6299 123.145 51.6661 125.353 49.9551C126.387 49.145 129.204 49.7929 130.401 53.1363C132.834 59.9348 127.531 66.4091 124.71 61.7407Z" fill="#00B3FF"/>
<path d="M84.9784 82.2623C76.4114 83.675 68.2591 87.2387 61.4045 92.571C60.5082 93.2667 60.3477 94.559 61.0446 95.4526C61.7417 96.3528 63.0344 96.5091 63.9275 95.8138C73.6054 88.2863 88.7631 83.4589 100.019 86.8802C104.771 88.333 108.704 91.3216 110.811 95.0807C111.366 96.076 112.619 96.4265 113.608 95.87C114.598 95.3161 114.951 94.064 114.396 93.074C110.051 85.3211 99.9273 79.7902 84.9784 82.2623Z" fill="#00B3FF"/>
</svg>
