<svg width="32" height="33" viewBox="0 0 32 33" fill="none" xmlns="http://www.w3.org/2000/svg">
<g clip-path="url(#clip0_1_1362)">
<path d="M32.0004 13.0056H0.000488281V6.56884C0.000488281 6.26415 0.24755 6.01709 0.552237 6.01709H31.4487C31.7534 6.01709 32.0005 6.26415 32.0005 6.56884L32.0004 13.0056Z" fill="#FAB446"/>
<path d="M31.4487 26.9826H0.552237C0.24755 26.9826 0.000488281 26.7356 0.000488281 26.4309V19.9941H32.0004V26.4309C32.0004 26.7356 31.7534 26.9826 31.4487 26.9826Z" fill="#73AF00"/>
<path d="M32.0004 13.0056H0.000488281V19.9937H32.0004V13.0056Z" fill="#F5F5F5"/>
<path d="M15.9997 19.4654C14.3644 19.4654 13.0342 18.1352 13.0342 16.4999C13.0342 14.8647 14.3644 13.5344 15.9997 13.5344C17.6349 13.5344 18.9652 14.8647 18.9652 16.4999C18.9652 18.1352 17.6349 19.4654 15.9997 19.4654ZM15.9997 14.0861C14.6686 14.0861 13.5859 15.1688 13.5859 16.4999C13.5859 17.831 14.6686 18.9137 15.9997 18.9137C17.3308 18.9137 18.4135 17.831 18.4135 16.4999C18.4135 15.1688 17.3308 14.0861 15.9997 14.0861Z" fill="#41479B"/>
<path d="M15.9993 16.8362C16.1849 16.8362 16.3355 16.6857 16.3355 16.5C16.3355 16.3143 16.1849 16.1638 15.9993 16.1638C15.8136 16.1638 15.6631 16.3143 15.6631 16.5C15.6631 16.6857 15.8136 16.8362 15.9993 16.8362Z" fill="#41479B"/>
<path d="M15.9992 16.5504L15.1448 16.6367L13.3096 16.5504V16.4495L15.1448 16.3633L15.9992 16.4495V16.5504Z" fill="#41479B"/>
<path d="M16.0002 16.5504L16.8545 16.6367L18.6898 16.5504V16.4495L16.8545 16.3633L16.0002 16.4495V16.5504Z" fill="#41479B"/>
<path d="M15.9497 16.4999L15.8634 15.6455L15.9497 13.8103H16.0506L16.1368 15.6455L16.0506 16.4999H15.9497Z" fill="#41479B"/>
<path d="M15.9497 16.4999L15.8634 17.3543L15.9497 19.1895H16.0506L16.1368 17.3543L16.0506 16.4999H15.9497Z" fill="#41479B"/>
<path d="M15.9645 16.5355L15.2994 15.9924L14.0627 14.6337L14.134 14.5624L15.4927 15.7991L16.0358 16.4642L15.9645 16.5355Z" fill="#41479B"/>
<path d="M15.9639 16.5356L16.5069 17.2007L17.8657 18.4375L17.937 18.3662L16.7002 17.0074L16.0351 16.4644L15.9639 16.5356Z" fill="#41479B"/>
<path d="M15.9639 16.4644L16.5069 15.7992L17.8657 14.5625L17.937 14.6338L16.7002 15.9926L16.0351 16.5356L15.9639 16.4644Z" fill="#41479B"/>
<path d="M15.9645 16.4642L15.2994 17.0073L14.0627 18.366L14.134 18.4374L15.4927 17.2006L16.0358 16.5355L15.9645 16.4642Z" fill="#41479B"/>
<path d="M16.0186 16.5466L15.2622 16.9532L13.5337 17.5759L13.4951 17.4827L15.1577 16.7007L15.98 16.4534L16.0186 16.5466Z" fill="#41479B"/>
<path d="M16.0191 16.5466L16.8414 16.2993L18.504 15.5173L18.4653 15.4241L16.7368 16.0467L15.9805 16.4533L16.0191 16.5466Z" fill="#41479B"/>
<path d="M15.9531 16.5193L15.5465 15.763L14.9238 14.0345L15.017 13.9958L15.799 15.6584L16.0463 16.4807L15.9531 16.5193Z" fill="#41479B"/>
<path d="M15.9531 16.5193L16.2004 17.3416L16.9824 19.0042L17.0756 18.9656L16.453 17.2371L16.0464 16.4807L15.9531 16.5193Z" fill="#41479B"/>
<path d="M15.98 16.5466L15.1577 16.2993L13.4951 15.5173L13.5337 15.4241L15.2622 16.0467L16.0186 16.4533L15.98 16.5466Z" fill="#41479B"/>
<path d="M15.9805 16.5466L16.7368 16.9532L18.4653 17.5759L18.504 17.4827L16.8414 16.7007L16.0191 16.4534L15.9805 16.5466Z" fill="#41479B"/>
<path d="M15.9531 16.4807L16.2004 15.6584L16.9824 13.9958L17.0756 14.0345L16.453 15.763L16.0464 16.5193L15.9531 16.4807Z" fill="#41479B"/>
<path d="M15.9531 16.4807L15.5465 17.2371L14.9238 18.9656L15.017 19.0042L15.799 17.3416L16.0463 16.5193L15.9531 16.4807Z" fill="#41479B"/>
<path d="M15.9999 16.9535C16.2503 16.9535 16.4534 16.7505 16.4534 16.5C16.4534 16.2495 16.2503 16.0465 15.9999 16.0465C15.7494 16.0465 15.5464 16.2495 15.5464 16.5C15.5464 16.7505 15.7494 16.9535 15.9999 16.9535Z" fill="#F5F5F5"/>
<path d="M15.9999 16.7719C16.1501 16.7719 16.2718 16.6502 16.2718 16.5C16.2718 16.3498 16.1501 16.228 15.9999 16.228C15.8497 16.228 15.728 16.3498 15.728 16.5C15.728 16.6502 15.8497 16.7719 15.9999 16.7719Z" fill="#41479B"/>
</g>
<defs>
<clipPath id="clip0_1_1362">
<rect width="32" height="32" fill="white" transform="translate(0 0.5)"/>
</clipPath>
</defs>
</svg>
