<svg width="32" height="32" viewBox="0 0 32 32" fill="none" xmlns="http://www.w3.org/2000/svg">
<path d="M14.4781 20.7288C14.3864 20.7288 14.2945 20.7011 14.216 20.6451C14.0565 20.5319 13.9879 20.3291 14.0456 20.1422C15.0736 16.8167 17.094 13.5811 20.4035 9.95998C21.8682 8.35738 23.1954 6.8565 24.479 5.40455C25.6423 4.0894 26.7771 2.80608 27.9625 1.50508C28.3042 1.12979 28.8517 1.04016 29.2933 1.28545C29.5103 1.40632 29.7653 1.56228 30.0064 1.80314C30.0828 1.8792 30.1756 1.94553 30.2665 2.01275C30.5515 2.22324 30.9828 2.54164 30.9404 3.09972C30.9003 3.62006 30.5642 4.24742 29.8826 5.07377C27.2868 8.22265 22.2119 14.0186 19.0223 17.4768C19.0029 17.498 18.9814 17.5172 18.9584 17.5343L14.747 20.6404C14.6671 20.6994 14.5725 20.7288 14.4781 20.7288ZM28.7676 2.0549C28.7175 2.0549 28.6674 2.07584 28.632 2.11475C27.4495 3.41251 26.3177 4.69258 25.1577 6.00449C23.8714 7.45909 22.5418 8.96292 21.0722 10.5708C18.3183 13.5841 16.487 16.3093 15.3976 19.0352L18.3858 16.8311C21.5677 13.3789 26.6043 7.62654 29.1839 4.49771C29.8944 3.63598 30.0235 3.2085 30.0374 3.03043C30.0418 2.97236 29.8455 2.8276 29.7284 2.74122C29.6011 2.64718 29.4734 2.55078 29.3664 2.44405C29.2048 2.2825 29.0238 2.17194 28.8528 2.07702C28.8263 2.06198 28.7968 2.0549 28.7676 2.0549Z" fill="black"/>
<path d="M17.8259 18.088C17.7256 18.088 17.6245 18.0549 17.5408 17.9865L15.9936 16.7301C15.7993 16.5723 15.7699 16.2872 15.9276 16.0933C16.0844 15.8993 16.3704 15.8683 16.5644 16.0272L18.1115 17.2837C18.3058 17.4414 18.3353 17.7265 18.1776 17.9205C18.0882 18.0308 17.9576 18.088 17.8259 18.088Z" fill="black"/>
<path d="M20.7308 30.852C20.5657 30.852 20.4006 30.8476 20.2364 30.8417L8.56684 30.4181C8.2057 30.4051 7.83011 30.4092 7.45393 30.4139C5.74108 30.4331 3.8024 30.4564 2.99344 28.7406C2.63141 27.9735 2.60045 26.5437 2.61372 25.3839L2.82068 7.21464C2.83247 6.18339 2.85045 4.62502 3.79355 3.57932C4.78441 2.48174 6.37964 2.35114 7.79709 2.31517L17.3911 2.07019C17.7237 2.06193 18.0993 2.03039 18.4946 1.99766C20.0011 1.87325 21.8737 1.71818 22.9162 2.69076C23.3988 3.14094 23.42 4.01565 23.4589 5.6038C23.4707 6.09023 23.484 6.64094 23.5132 7.25474C23.5253 7.50444 23.3322 7.71671 23.0825 7.7285C22.8171 7.73381 22.6205 7.54749 22.6087 7.29778C22.5789 6.67632 22.5654 6.11854 22.5533 5.62591C22.5273 4.55486 22.5026 3.54365 22.2983 3.35291C21.5492 2.65362 19.8967 2.79071 18.5695 2.90038C18.1553 2.93457 17.7623 2.96671 17.4141 2.97585L7.82009 3.22054C6.53441 3.25326 5.21631 3.35468 4.46602 4.18605C3.80682 4.91688 3.7399 6.04071 3.72634 7.22526L3.51938 25.3942C3.51289 25.959 3.49285 27.6772 3.81242 28.3544C4.37374 29.5445 5.86726 29.5292 7.44332 29.5083C7.83365 29.5033 8.22309 29.4991 8.59986 29.513L20.2691 29.9366C21.0736 29.9661 21.9029 29.9561 22.397 29.5024C22.9392 29.0044 22.9707 28.1053 22.9566 27.2267C22.92 24.9517 22.8832 22.3249 22.8466 19.6978C22.8098 17.0711 22.7732 14.4446 22.7364 12.1698C22.7325 11.9198 22.9318 11.7138 23.1818 11.7096H23.1892C23.4359 11.7096 23.6379 11.9074 23.642 12.1551C23.6786 14.4304 23.7154 17.0578 23.752 19.6852C23.7888 22.3116 23.8254 24.9378 23.8622 27.212C23.879 28.2488 23.828 29.4178 23.0097 30.1695C22.3864 30.7418 21.5636 30.852 20.7308 30.852Z" fill="black"/>
<path d="M5.26773 6.35109H1.50947C1.25947 6.35109 1.05664 6.14826 1.05664 5.89826C1.05664 5.64826 1.25947 5.44543 1.50947 5.44543H5.26773C5.51773 5.44543 5.72056 5.64826 5.72056 5.89826C5.72056 6.14826 5.51773 6.35109 5.26773 6.35109Z" fill="black"/>
<path d="M5.26773 9.24795H1.50947C1.25947 9.24795 1.05664 9.04512 1.05664 8.79512C1.05664 8.54512 1.25947 8.34229 1.50947 8.34229H5.26773C5.51773 8.34229 5.72056 8.54512 5.72056 8.79512C5.72056 9.04512 5.51773 9.24795 5.26773 9.24795Z" fill="black"/>
<path d="M5.26773 12.1447H1.50947C1.25947 12.1447 1.05664 11.9418 1.05664 11.6918C1.05664 11.4418 1.25947 11.239 1.50947 11.239H5.26773C5.51773 11.239 5.72056 11.4418 5.72056 11.6918C5.72056 11.9418 5.51773 12.1447 5.26773 12.1447Z" fill="black"/>
<path d="M5.26773 15.0419H1.50947C1.25947 15.0419 1.05664 14.8391 1.05664 14.5891C1.05664 14.3391 1.25947 14.1362 1.50947 14.1362H5.26773C5.51773 14.1362 5.72056 14.3391 5.72056 14.5891C5.72056 14.8391 5.51773 15.0419 5.26773 15.0419Z" fill="black"/>
<path d="M5.26773 17.939H1.50947C1.25947 17.939 1.05664 17.7362 1.05664 17.4862C1.05664 17.2362 1.25947 17.0333 1.50947 17.0333H5.26773C5.51773 17.0333 5.72056 17.2362 5.72056 17.4862C5.72056 17.7362 5.51773 17.939 5.26773 17.939Z" fill="black"/>
<path d="M5.26773 20.8361H1.50947C1.25947 20.8361 1.05664 20.6333 1.05664 20.3833C1.05664 20.1333 1.25947 19.9304 1.50947 19.9304H5.26773C5.51773 19.9304 5.72056 20.1333 5.72056 20.3833C5.72056 20.6333 5.51773 20.8361 5.26773 20.8361Z" fill="black"/>
<path d="M5.26773 23.7329H1.50947C1.25947 23.7329 1.05664 23.5301 1.05664 23.2801C1.05664 23.0301 1.25947 22.8273 1.50947 22.8273H5.26773C5.51773 22.8273 5.72056 23.0301 5.72056 23.2801C5.72056 23.5301 5.51773 23.7329 5.26773 23.7329Z" fill="black"/>
<path d="M5.26773 26.63H1.50947C1.25947 26.63 1.05664 26.4272 1.05664 26.1772C1.05664 25.9272 1.25947 25.7244 1.50947 25.7244H5.26773C5.51773 25.7244 5.72056 25.9272 5.72056 26.1772C5.72056 26.4272 5.51773 26.63 5.26773 26.63Z" fill="black"/>
<path d="M17.8559 8.64931H8.61885C8.36885 8.64931 8.16602 8.44648 8.16602 8.19648C8.16602 7.94648 8.36885 7.74365 8.61885 7.74365H17.8559C18.1059 7.74365 18.3087 7.94648 18.3087 8.19648C18.3087 8.44648 18.1059 8.64931 17.8559 8.64931Z" fill="black"/>
<path d="M16.8812 13.4396H8.61885C8.36885 13.4396 8.16602 13.2368 8.16602 12.9868C8.16602 12.7368 8.36885 12.5339 8.61885 12.5339H16.8812C17.1312 12.5339 17.3341 12.7368 17.3341 12.9868C17.3341 13.2368 17.1312 13.4396 16.8812 13.4396Z" fill="black"/>
<path d="M17.8559 23.0204H8.61885C8.36885 23.0204 8.16602 22.8176 8.16602 22.5676C8.16602 22.3176 8.36885 22.1147 8.61885 22.1147H17.8559C18.1059 22.1147 18.3087 22.3176 18.3087 22.5676C18.3087 22.8176 18.1059 23.0204 17.8559 23.0204Z" fill="black"/>
<path d="M15.4549 18.23H8.61885C8.36885 18.23 8.16602 18.0272 8.16602 17.7772C8.16602 17.5272 8.36885 17.3243 8.61885 17.3243H15.4549C15.7049 17.3243 15.9078 17.5272 15.9078 17.7772C15.9078 18.0272 15.7049 18.23 15.4549 18.23Z" fill="black"/>
<path d="M29.2578 5.57214C29.1647 5.57214 29.0709 5.54354 28.9901 5.48429C28.6302 5.22014 28.2982 4.99903 27.9701 4.78087C27.532 4.489 27.0786 4.18741 26.5812 3.7959C26.3846 3.64142 26.3504 3.35663 26.5052 3.16029C26.6597 2.96306 26.9442 2.92886 27.1408 3.08423C27.6104 3.45333 28.0288 3.73193 28.4719 4.02674C28.8109 4.25257 29.1541 4.48104 29.5261 4.75433C29.7278 4.90233 29.7711 5.18564 29.6231 5.38729C29.5344 5.50817 29.397 5.57214 29.2578 5.57214Z" fill="black"/>
</svg>
