<svg width="58" height="38" viewBox="0 0 58 38" fill="none" xmlns="http://www.w3.org/2000/svg">
<g clip-path="url(#clip0_1_895)">
<path d="M18.5052 37.2307C18.0889 37.2307 17.6754 37.1008 17.3226 36.8457C16.6653 36.3693 16.3583 35.5506 16.5372 34.7605L18.9818 23.9919L10.6912 16.7212C10.0817 16.1891 9.84893 15.3466 10.0991 14.5757C10.3493 13.8063 11.0301 13.2615 11.8361 13.187L22.8057 12.1911L27.1426 2.0417C27.4624 1.29602 28.1907 0.814453 28.9999 0.814453C29.8091 0.814453 30.5374 1.29602 30.8571 2.03996L35.1941 12.1911L46.162 13.187C46.9697 13.2597 47.6504 13.8063 47.9006 14.5757C48.1508 15.3452 47.9195 16.1891 47.3101 16.7212L39.0194 23.9904L41.464 34.7588C41.6432 35.5506 41.3359 36.3693 40.6789 36.8442C40.0234 37.3191 39.1493 37.3557 38.459 36.9408L28.9999 31.2881L19.5408 36.944C19.221 37.1339 18.8647 37.2307 18.5052 37.2307ZM28.9999 28.853C29.3594 28.853 29.7154 28.9496 30.0355 29.1395L38.9626 34.4787L36.6553 24.3149C36.4907 23.5915 36.7362 22.8362 37.2952 22.3469L45.1235 15.4814L34.7665 14.5409C34.0208 14.4728 33.3795 14.004 33.0881 13.3169L28.9999 3.73892L24.9067 13.3183C24.6186 14.0008 23.9772 14.4696 23.2333 14.5377L12.8749 15.4783L20.7028 22.3437C21.2635 22.8345 21.5088 23.5883 21.3427 24.3134L19.0372 34.477L27.9643 29.1395C28.2841 28.9496 28.6404 28.853 28.9999 28.853ZM22.7219 12.3874C22.7219 12.3874 22.7219 12.3891 22.7201 12.3906L22.7219 12.3874ZM35.2747 12.3827L35.2765 12.3859C35.2765 12.3842 35.2765 12.3842 35.2747 12.3827Z" fill="#989898"/>
</g>
<defs>
<clipPath id="clip0_1_895">
<rect width="38" height="38" fill="white" transform="translate(10)"/>
</clipPath>
</defs>
</svg>
