<svg width="102" height="108" viewBox="0 0 102 108" fill="none" xmlns="http://www.w3.org/2000/svg">
<path fill-rule="evenodd" clip-rule="evenodd" d="M92.2299 32.3703C92.3071 32.478 92.1302 32.5544 92.0686 32.5937C92.1402 32.7601 92.0599 32.6814 92.0617 32.8473C92.0625 32.9347 92.3545 32.9748 91.8135 33.2663C91.0665 33.6689 90.4113 34.2264 89.5622 34.3239L88.5711 34.4175C88.3885 34.4911 88.4203 34.3759 88.3615 34.4162L86.8286 34.5608L84.5704 34.6339C84.5483 34.6339 84.525 34.6298 84.5029 34.638L83.7682 34.747C83.5944 34.785 83.7126 34.7003 83.3892 34.7662L81.8452 34.8516L81.0897 34.9496L79.7511 35.0268L77.963 35.017C77.9009 35.0142 77.843 34.9909 77.7837 34.9868C77.6155 34.9737 77.2734 34.9901 77.1483 34.9262L76.6146 34.9124C76.2656 34.8814 75.3447 34.748 75.1298 34.518C74.9798 34.3575 74.2159 34.0851 73.8202 33.4551L73.5597 32.7658C73.7387 32.565 73.6402 32.5424 73.7264 32.5326C73.842 32.5198 73.791 32.3437 73.9289 32.3106C74.2528 32.2334 74.1241 31.921 74.5644 31.988C74.7585 32.0175 74.9157 31.8203 75.1724 31.8251C75.6778 31.8346 75.6932 31.6672 75.8094 31.6626C75.8645 31.6613 75.9184 31.6736 75.9694 31.6102C75.9748 31.6033 75.9792 31.5992 75.9858 31.602C76.0976 31.6364 76.2038 31.5248 76.3112 31.4615L76.5897 31.4407C76.9623 31.2946 77.8186 31.2658 78.1999 31.3207L79.6006 31.2889C79.8309 31.2876 80.0624 31.2889 80.2955 31.2833C80.4307 31.2764 80.5658 31.2474 80.7007 31.242L82.1757 31.2461C82.3452 31.3094 82.5135 31.2102 82.6817 31.2323L83.9623 31.1689L86.8604 31.4515L89.6066 31.5866C89.773 31.5282 89.7686 31.7023 89.8422 31.7149C89.9181 31.7272 89.9938 31.7259 90.071 31.7631C90.0743 31.7646 90.7064 31.8141 90.9408 31.9521C91.1162 32.0552 91.3849 31.7703 91.4398 31.9687C91.4847 32.1306 91.7855 32.0387 91.9514 32.0762C92.0494 32.0988 92.1591 32.2734 92.2299 32.3703ZM85.3835 41.0487C85.3504 41.0872 85.3381 41.1259 85.3338 41.1618C85.3117 41.1521 85.2938 41.148 85.2717 41.141C85.301 41.0997 85.3407 41.0613 85.3835 41.0487ZM85.3822 41.2708L85.6318 41.519L85.3463 40.9C84.8855 40.4066 85.0032 40.6071 84.5316 40.274C84.1839 40.0283 83.9311 40.0689 83.648 39.844C83.3684 39.6219 82.1542 39.4844 81.7247 39.458L81.0325 39.4498L78.7054 39.3257L75.8848 39.4552L74.5846 39.3601L73.5589 39.4083L73.5602 39.6219C72.5883 39.6219 71.8436 40.3845 71.859 41.3231C71.8741 42.2414 72.6088 42.9679 73.5671 42.9679V43.183C73.6733 43.172 73.7807 43.1651 73.8856 43.1761C74.1033 43.1982 74.3213 43.0989 74.5418 43.161C74.7359 43.2164 77.425 43.1064 77.8768 43.1002L79.6883 43.063L81.3249 43.0218L81.8803 42.9282C81.9657 42.9199 82.0485 42.9474 82.1314 42.9087C82.2706 42.8453 82.4086 42.7322 82.5545 42.7668C82.5614 42.7697 82.5683 42.764 82.5737 42.7586C82.6884 42.6463 82.8191 42.7717 82.9625 42.6317C83.0733 42.5235 83.6423 42.6012 84.0639 42.4332C84.4006 42.2991 84.707 42.4448 84.8235 42.294C85.085 41.9552 85.2643 42.1332 85.3528 41.9273C85.4248 41.7598 85.5125 41.8585 85.5333 41.788C85.5594 41.7067 85.5941 41.668 85.6312 41.6349L85.3225 41.3246C85.3463 41.3093 85.3656 41.2916 85.3822 41.2708ZM98.147 37.4093C98.1857 34.8927 98.0818 32.3565 97.8354 29.8529C97.7739 29.2282 97.7377 28.7417 97.5197 28.1283C97.0053 26.6802 95.6308 25.6045 94.0855 25.4234L90.7864 25.1616C90.4915 25.1421 90.1976 25.1049 89.8999 25.0803C89.2455 25.0329 88.7041 25.1182 88.0582 24.9149C87.8192 24.8398 86.6396 24.8123 86.2411 24.7715C85.9336 24.7385 85.611 24.7564 85.2966 24.7454C84.4955 24.7095 83.6959 24.6931 82.8979 24.6531C82.1011 24.6187 81.3013 24.6159 80.5074 24.562C79.5516 24.4948 77.5452 24.8177 77.2042 24.6531C77.0257 24.5669 75.7276 24.601 75.456 24.6379C74.9198 24.7095 74.3808 24.7221 73.8389 24.7454C73.4202 24.7626 72.2087 24.6774 71.8179 24.5497C72.0328 24.4354 72.7329 24.3407 73.0173 24.2876C72.6421 24.2058 72.7737 24.2974 73.0476 24.0325C72.9463 23.9697 72.1516 24.0025 72.6573 23.8684C74.2336 23.4511 79.6906 22.8041 81.5205 22.6275C81.4903 22.2277 81.4516 21.8638 81.3772 21.5935C81.321 21.3971 81.3718 20.1949 81.2379 19.5105C81.1049 18.8294 81.1028 16.8302 81.0628 15.9688C80.8146 15.9839 80.565 16.0019 80.3237 16.0226C78.3015 16.1983 73.6012 15.6236 71.4907 15.3759C67.8039 14.9435 63.7719 13.9173 60.1859 12.7538C59.7889 12.6187 59.3712 12.4725 58.9976 12.372C57.7154 12.025 57.0309 11.7014 55.8475 11.2319L54.5004 10.7149C52.4668 9.75887 50.7641 9.13983 48.6921 7.99073L46.3126 6.59955C45.0304 5.88717 43.4335 4.82269 42.2057 3.98004C39.1085 6.22592 35.3024 8.45053 31.8356 10.1412C29.8351 11.1167 26.3447 12.501 24.1537 13.2557C18.0741 15.3497 10.73 16.6678 4.23668 16.7945L4.28079 27.308L4.28643 44.6553C4.28515 46.1608 4.31541 47.6828 4.27822 49.1675C4.21335 51.685 4.31259 54.1735 4.28925 56.6797C4.2754 58.1865 4.29053 59.7002 4.30028 61.2084C4.31259 62.8647 4.32618 63.8699 4.45747 65.5581C4.66852 68.0273 5.16883 70.4604 5.9961 72.7765C6.50437 74.1231 7.326 75.9828 8.04479 77.1757L8.56587 78.0222C9.99783 80.3481 11.8044 82.325 13.8544 84.1103C15.2569 85.3318 17.7141 87.0484 19.2352 88.1608L18.6754 82.5663C18.4 79.7981 18.2005 77.4704 18.1544 74.6721C18.1364 73.5059 18.1074 72.3588 18.0977 71.1787L18.208 68.7122C18.2559 67.9276 18.368 67.7347 18.3941 67.4165C18.4795 66.3781 18.9529 64.5831 19.2778 63.6238C20.6472 59.5805 22.7072 56.2391 25.9229 53.3267C28.3027 51.1714 31.4194 49.3058 34.5187 48.2341C32.2805 46.9835 30.3872 45.0484 29.1284 42.8202C27.1679 39.3508 26.7438 35.713 27.729 31.8751C27.9739 30.9209 28.0513 30.8591 28.3811 30.0401C29.124 28.196 29.8172 27.1905 31.1412 25.7345C32.0815 24.7003 33.1793 23.8997 34.4113 23.2586L36.5289 22.481C37.4862 22.1546 39.2254 21.9446 40.2347 22.062C41.3377 22.1902 40.7997 22.211 41.5872 22.5336C41.7336 22.5936 41.7128 22.7036 42.1675 22.8424C41.9703 22.8988 41.7816 22.9306 41.6603 23.0547C41.6005 23.1196 41.3092 23.0488 41.0853 23.2298C40.7984 23.4617 40.2109 23.3427 39.4862 23.8489C39.2562 24.0097 38.3258 24.2192 37.7491 24.4802C37.2854 24.6903 34.9049 26.1617 34.581 26.6833C34.4 26.9749 34.1905 27.1172 33.9966 27.3244L33.783 27.6319C33.4563 27.9242 33.2812 28.3171 33.0786 28.6797L32.4967 29.569C32.0449 30.4658 31.7335 31.2807 31.4297 32.2477C31.1376 33.1768 30.8876 34.8514 30.9445 35.8143C31.0448 37.5127 31.3507 38.9513 32.1233 40.4892C32.5162 41.268 32.9903 42.0127 33.5543 42.6799C34.7267 44.0572 36.6569 45.4192 38.3684 46.0121L39.4546 46.3498C40.1201 46.5868 41.6333 46.7042 42.4765 46.6532C44.3708 46.5385 46.329 45.9754 47.9758 45.0291C50.1956 43.7536 52.0265 41.6398 52.9002 39.2183C53.3133 38.0735 53.5839 36.65 53.5606 35.4863C53.5259 33.753 53.311 32.3254 52.5817 30.7037C52.3561 30.2019 51.5344 28.7343 51.1023 28.2842C50.6059 27.7673 50.79 27.7429 50.5895 27.508C49.6029 26.3522 48.4872 25.6086 47.234 24.7908C46.8619 24.5479 46.0864 24.3425 45.6471 24.2351C45.2591 24.1402 45.4871 24.0522 45.1509 23.9443C44.5006 23.7355 44.068 23.6958 43.3835 23.5914C43.1186 23.5512 42.3904 23.3301 42.1675 23.1791C42.2973 23.0901 42.7635 23.0508 42.9381 23.0398C42.7086 22.9252 42.7804 23.0203 42.985 22.7903C42.9135 22.6923 42.7453 22.727 42.6473 22.6649C42.5119 22.4908 43.9926 22.4836 44.1059 22.4857C45.4497 22.51 46.8855 22.7436 48.1687 23.1873C51.3234 24.2782 53.3526 26.1832 54.9322 29.0836C55.1846 29.5467 55.9039 31.1222 55.9524 31.6079L56.2296 32.5675C56.8696 35.4473 56.6319 38.6236 55.4685 41.3439C54.2719 44.1416 52.2391 46.3829 49.6658 47.9931C52.9597 48.9898 55.6426 50.461 58.3111 52.701C58.4537 52.291 60.5572 48.3164 60.998 47.4733C61.645 46.2354 62.2574 44.9255 62.9544 43.7221L64.2863 41.0874C64.2435 39.9722 64.2366 38.8582 64.2517 37.7455C64.2792 36.0094 64.4274 32.9617 64.8141 31.3405C65.0575 30.3201 65.1857 29.3654 65.4221 28.3432C65.8091 26.6707 67.2487 24.9775 68.804 24.2833C69.0461 24.1753 69.9393 23.8938 70.0862 23.9484C70.358 24.0494 70.6127 24.0102 70.8955 24.0366C71.0643 24.0522 71.2568 24.1769 71.789 24.2146C71.5538 24.2928 71.2463 24.3528 71.0873 24.5318C71.053 24.5746 70.9081 24.5951 70.8171 24.6326C70.247 24.8405 70.4545 24.9085 69.8023 25.2847C68.8461 25.8365 68.7617 26.4602 68.4596 26.8661C68.1691 27.2567 67.7016 28.2329 67.6544 28.781L67.4739 31.8469C67.4395 32.2508 67.3036 34.6029 67.38 35.0922C67.4908 35.801 67.3649 36.5177 67.471 37.0485C67.478 37.0816 67.4821 37.1203 67.4808 37.156C67.4436 37.8881 67.569 38.5746 67.6544 39.2736L67.7565 41.0769C67.7998 41.4598 67.8519 41.7219 67.6765 42.1122L66.7846 44.0601C66.1063 45.5656 65.3288 47.0242 64.6007 48.5034L66.9541 47.0655C67.7177 46.5996 68.6884 46.7581 69.2661 47.402C69.6495 47.7646 69.7782 47.9418 70.307 48.2264C70.8258 48.5057 71.2902 48.6108 71.8592 48.669C74.1261 48.9001 77.5132 49.0555 79.8291 49.1183C80.4935 49.1376 81.1677 49.1183 81.8239 49.1611C82.9392 49.2342 84.0408 49.1337 85.1479 49.1363C85.8151 49.1419 86.4852 49.1004 87.1524 49.0714L92.6379 48.7213L94.3045 48.5711C95.9078 48.2949 97.3136 47.043 97.5664 45.3794C97.9016 43.1756 98.1142 39.5978 98.147 37.4093ZM81.6557 53.866C81.6172 53.764 81.5798 53.6606 81.5426 53.5601C81.491 53.3739 81.4644 52.9744 81.4267 53.5585C81.4226 53.626 81.4116 53.6868 81.4033 53.757C81.3895 53.4165 81.3744 53.08 81.3592 52.7464C81.4928 52.7492 81.6267 52.7492 81.7562 52.7492C81.7083 53.098 81.7413 53.6109 81.6557 53.866ZM80.8864 55.5149C80.8684 56.7294 80.8451 57.9385 80.8892 59.1533C80.9077 59.7374 80.8723 62.7226 80.7776 63.0673C80.6922 63.365 80.6769 63.7758 80.6728 64.1854C80.6769 65.8348 80.3958 68.5266 79.9255 70.1522C78.941 73.5551 77.6793 76.4841 75.5317 79.3891C75.0588 80.0286 74.8549 80.3576 74.2977 80.991C73.8364 81.5157 72.1008 83.3913 71.5405 83.747C70.7901 84.2232 69.331 85.4713 68.3573 86.1665L65.4952 88.1972C65.7078 87.2294 66.0717 84.3409 66.1486 83.3513C66.2037 82.644 66.2519 81.9355 66.3732 81.2557C66.5963 80.0243 66.8197 72.8581 66.7702 71.0635C66.7079 68.7971 66.601 67.4885 66.0699 65.2539C65.1685 61.4612 63.3937 58.1011 60.816 55.1831C61.345 54.9715 66.9648 51.4416 67.7065 50.9852C68.9192 51.903 70.3793 52.3107 71.8574 52.4177C75.1098 52.6525 77.7104 52.7151 81.0543 52.7431L80.8864 55.5149ZM60.5875 91.7276L44.2105 103.445C43.4756 103.972 43.043 104.283 42.1729 104.685C41.4792 104.353 41.0466 104.076 40.4399 103.639C34.39 99.2812 28.4309 94.8797 22.4115 90.4772C21.7332 89.981 21.0549 89.4861 20.3738 88.9911L20.4 87.2663C20.3849 87.1058 20.4115 85.8729 20.509 85.7141C20.6895 85.4197 20.441 83.6008 20.5241 82.7707C20.6316 81.6993 20.6823 79.6396 20.7116 78.5026C20.7234 78.0469 20.7159 76.3054 20.8011 76.0361C20.9693 75.5053 20.8708 74.9573 20.8795 74.3847L20.9098 72.0975C20.9172 69.7857 21.0398 68.5158 21.6212 66.1722L22.3892 63.8492C24.0463 59.619 26.964 56.1629 30.7988 53.7575C32.726 52.5489 34.432 51.8886 36.5656 51.2773C37.855 50.9077 38.5943 50.7882 39.8757 50.621L38.322 58.4006C38.253 58.7424 38.2117 59.0871 38.1317 59.4277C37.9773 60.099 37.8283 60.7704 37.7111 61.4433C37.4808 62.7365 37.1623 64.0297 36.9859 65.3214L36.6813 67.3231C36.6302 67.6237 36.542 67.927 36.52 68.2232C36.4828 68.7223 36.4979 69.2049 36.3587 69.7288C36.3517 69.7549 36.3505 69.7826 36.3517 69.8072C36.3802 70.2381 36.1686 70.6402 36.2015 71.1859L35.8335 73.4828C35.6299 74.4906 35.6288 75.4332 35.4365 76.2649C34.9531 78.3546 35.406 77.5971 35.1703 79.1339C35.0737 79.7642 35.2909 79.4916 35.1978 80.0163C35.1285 80.4071 35.2378 79.9696 35.2693 80.7346C35.5196 80.2071 35.5824 80.2745 35.7104 80.0563C36.1917 79.2365 36.0943 79.7347 36.5623 78.6074L37.9024 74.9432C38.0706 74.396 38.2319 73.8513 38.4607 73.3151C38.8928 72.3073 39.9201 68.0906 40.246 66.6646L40.7576 64.292C40.9533 63.695 41.2523 62.1839 41.4082 61.474C41.4674 61.2094 41.5462 60.9488 41.6054 60.6868L42.2796 57.611C42.6004 58.8809 42.8186 60.2983 43.1315 61.5415L43.5064 63.2717C43.6223 63.7376 43.749 64.2023 43.8551 64.671C44.0026 65.3121 44.1128 65.9602 44.2962 66.5928L44.5293 67.7096L46.7116 78.0107L47.2424 80.331L45.6902 82.4348C45.6071 82.5756 45.3886 82.7415 45.0863 83.2054L43.978 84.6861L42.0395 87.2889C40.3678 85.5469 38.6584 83.9316 37.0075 82.2196C36.8949 82.103 35.8937 81.0164 35.7735 81.1C35.7776 81.2034 35.9307 81.3344 35.8948 81.4254C35.5791 81.3408 35.5432 81.2144 35.6314 81.4626C35.4645 81.2936 35.1278 80.9123 34.9434 80.8105C34.9598 81.0864 35.3098 81.8121 35.477 82.0555C35.6963 82.3768 35.9127 82.6994 36.1912 83C36.2651 83.08 36.8726 83.9108 36.8613 84.0588C36.84 84.3335 37.956 85.3841 38.3212 86.0013C38.7574 86.7383 39.7875 88.1744 40.3229 88.9116C40.4607 89.1006 40.6276 89.273 40.7502 89.4673C40.8884 89.6876 41.1023 90.0148 41.3043 90.1802C41.9093 90.6744 42.7176 90.5762 43.2604 89.9348C43.3846 89.7884 43.6177 89.4596 43.761 89.3766C44.1495 89.1514 44.3354 88.7516 44.6255 88.3949L48.9062 83.0374L50.0104 81.6575C50.4461 81.0972 50.3782 80.6084 50.2586 80.0155L49.2385 74.7147L47.6753 66.072L46.5559 60.3906C46.3641 59.4756 46.1033 58.5694 45.9384 57.6251C45.8033 56.8504 45.551 56.1073 45.4574 55.3187C45.4009 54.8569 45.2768 54.395 45.183 53.9319L44.4949 50.5598C45.661 50.6644 45.7594 50.7346 46.8731 50.9898C52.1312 52.1953 56.983 55.5418 59.8587 60.1259C60.9621 61.8851 61.6009 63.214 62.2038 65.136C63.0244 67.7522 63.2457 70.4183 63.2983 73.1707C63.3065 73.5512 63.2778 73.9318 63.3175 74.3095C63.3783 74.9437 63.4911 75.5656 63.4568 76.2244C63.4539 76.2574 63.4596 76.2918 63.4665 76.3223C63.5745 76.8185 63.4568 77.4681 63.5891 78.0828C63.6606 78.4149 63.6827 80.7323 63.6814 81.0082C63.676 82.2835 63.8722 83.4405 63.8427 84.5735C63.7747 87.1884 64.0868 86.3062 64.1653 88.3054C64.1833 88.7609 64.213 88.7319 64.321 89.0429L60.5875 91.7276ZM101.246 34.7057C101.183 33.2273 100.956 30.0411 100.7 28.5114C100.436 26.9308 99.4894 25.1198 98.1688 24.1797C97.7972 23.915 97.8259 23.8617 97.3443 23.5606C96.5127 23.0408 95.1867 22.6821 94.2012 22.5875C92.4607 22.42 89.0975 22.2833 87.1701 22.2951C85.5741 22.3049 83.2623 22.4587 81.6554 22.6136L81.9008 21.4127C81.9849 20.7744 82.0662 20.128 82.2193 19.7846C82.3345 19.5161 82.5894 15.6536 82.626 15.0048C82.6491 14.5966 82.3617 14.335 81.9257 14.3045C81.3854 14.2604 80.8338 14.2191 80.2866 14.175C77.1365 13.9539 71.8697 13.1436 68.6799 12.322C68.2678 12.2061 67.857 12.0835 67.4528 11.9594C66.9718 11.8091 66.463 11.6752 65.9611 11.5278C61.7086 10.2884 58.6732 9.07624 54.6689 7.24578C53.3151 6.62699 50.7838 5.25505 49.4906 4.47881L45.5035 1.94212L43.2315 0.334508C42.6055 -0.102463 41.748 -0.123234 41.0917 0.342714L39.3162 1.60131C38.2358 2.32934 35.7458 3.88977 34.6205 4.51574C33.068 5.37942 31.8797 6.01077 30.2642 6.77932C29.8767 6.95985 29.4838 7.12115 29.095 7.29783C21.4875 10.7957 12.4332 12.8423 4.16257 13.0569L2.35801 13.0982C1.32534 13.1216 0.498323 13.9655 0.499605 15.0048L0.578075 33.5694C0.609873 37.1303 0.641416 40.6902 0.673214 44.2511C0.678599 47.0981 0.684241 49.9489 0.689626 52.7972C0.689626 53.8009 0.721424 54.803 0.725527 55.8067C0.734246 58.776 0.693728 61.7258 0.784764 64.699C0.834513 66.3248 1.26918 69.0977 1.65614 70.6422C1.74564 71.0061 1.83667 71.3728 1.92771 71.7369C2.2739 73.2269 3.45967 76.1005 4.28515 77.5837C5.31372 79.5429 6.53514 81.4162 8.00889 83.0569C10.9838 86.4722 13.083 87.8156 16.7052 90.4216L37.9611 105.68C39.3272 106.655 40.0288 107.146 41.6821 107.798C41.9924 107.915 42.3439 107.922 42.6747 107.788C44.2949 107.136 45.1027 106.529 46.4136 105.576L52.1996 101.356C53.5105 100.382 54.8686 99.46 56.1426 98.4535C56.2998 98.3293 56.486 98.1942 56.6486 98.0896C57.6741 97.4333 58.8496 96.4912 59.8897 95.735L63.4424 93.1485C65.8083 91.4155 68.1711 89.6869 70.5383 87.9551C73.1014 86.0311 75.087 84.1906 77.0262 81.4549C80.6784 76.3021 82.3868 70.296 82.3037 63.9848C82.2955 62.9011 82.2293 61.841 82.1947 60.7686C82.1488 59.4192 81.9521 53.4539 81.8239 52.749C82.3642 52.7531 82.9061 52.7559 83.4451 52.7518C83.9028 52.749 84.3591 52.7187 84.814 52.7036C86.3816 52.6605 88.4251 52.6338 89.9633 52.4953L92.5261 52.3079C94.4399 52.1171 96.3742 51.9645 97.9457 50.6769C98.6327 50.1141 98.8622 49.9507 99.4181 49.2376C100.3 48.1067 100.767 46.8086 100.915 45.4077C101.3 41.7757 101.415 38.3548 101.246 34.7057Z" fill="#07A5D7"/>
</svg>
