<svg width="70" height="69" viewBox="0 0 70 69" fill="none" xmlns="http://www.w3.org/2000/svg">
<g filter="url(#filter0_d_1_667)">
<rect x="2" y="1" width="65.2" height="65" rx="8" fill="white" shape-rendering="crispEdges"/>
<rect x="2.25" y="1.25" width="64.7" height="64.5" rx="7.75" stroke="#BEBEBE" stroke-width="0.5" shape-rendering="crispEdges"/>
<path d="M54.6 15C54.6 20.3043 52.4928 25.3914 48.7421 29.1421C44.9914 32.8929 39.9043 35 34.6 35C29.2956 35 24.2086 32.8929 20.4578 29.1421C16.7071 25.3914 14.6 20.3043 14.6 15" stroke="black"/>
<path d="M13.47 53H12.74L15.37 45.84H16.26L18.92 53H18.17L17.47 51.1H14.17L13.47 53ZM15.72 46.85L14.39 50.47H17.24L15.9 46.85C15.87 46.75 15.82 46.63 15.81 46.56C15.8 46.62 15.76 46.75 15.72 46.85ZM20.7491 53L19.1491 48.16H19.8591L20.8091 51.08C20.9191 51.4 21.0091 51.73 21.1091 52.12C21.1891 51.73 21.3491 51.24 21.3991 51.08L22.3591 48.16H23.0691L24.0191 51.08C24.1091 51.34 24.2291 51.76 24.3191 52.12C24.4191 51.72 24.4391 51.6 24.6091 51.08L25.5691 48.16H26.2891L24.6491 53H23.9791L22.9791 49.96C22.8591 49.6 22.7791 49.3 22.7191 49.01C22.6491 49.27 22.5691 49.56 22.4391 49.96L21.4391 53H20.7491ZM29.1546 53.12C27.7346 53.12 26.7846 52.1 26.7846 50.58C26.7846 49.07 27.7246 48.03 29.1046 48.03C30.4146 48.03 31.3046 48.96 31.3046 50.33V50.67H27.4546C27.5046 51.85 28.1246 52.53 29.1646 52.53C29.9546 52.53 30.4646 52.19 30.6446 51.55H31.3046C31.0446 52.57 30.2946 53.12 29.1546 53.12ZM29.1046 48.62C28.1946 48.62 27.5946 49.22 27.4746 50.17H30.6146C30.6146 49.24 30.0146 48.62 29.1046 48.62ZM32.1862 51.64H32.8462C32.8462 52.2 33.2662 52.55 33.9462 52.55C34.6962 52.55 35.1362 52.23 35.1362 51.71C35.1362 51.31 34.9362 51.08 34.3662 50.94L33.5362 50.73C32.6962 50.52 32.2862 50.08 32.2862 49.42C32.2862 48.57 32.9962 48.03 34.0362 48.03C35.0562 48.03 35.7162 48.59 35.7462 49.49H35.0762C35.0562 48.93 34.6662 48.6 34.0162 48.6C33.3362 48.6 32.9562 48.89 32.9562 49.41C32.9562 49.78 33.2162 50.04 33.7462 50.17L34.5762 50.38C35.4162 50.59 35.7962 50.98 35.7962 51.68C35.7962 52.55 35.0562 53.12 33.9562 53.12C32.8662 53.12 32.1862 52.54 32.1862 51.64ZM36.7806 50.58C36.7806 49.1 37.8206 48.03 39.2406 48.03C40.6606 48.03 41.7006 49.1 41.7006 50.58C41.7006 52.05 40.6606 53.12 39.2406 53.12C37.8206 53.12 36.7806 52.05 36.7806 50.58ZM37.4806 50.57C37.4806 51.71 38.2006 52.5 39.2406 52.5C40.2706 52.5 41.0006 51.71 41.0006 50.57C41.0006 49.45 40.2706 48.65 39.2406 48.65C38.2006 48.65 37.4806 49.45 37.4806 50.57ZM43.6826 53H42.9926V48.16H43.5926L43.6726 48.85C43.9126 48.34 44.4526 48.03 45.1326 48.03C45.8926 48.03 46.4626 48.43 46.6926 49.06C46.9126 48.43 47.5026 48.03 48.2826 48.03C49.3326 48.03 50.0226 48.71 50.0226 49.83V53H49.3526V49.97C49.3526 49.14 48.8926 48.65 48.1526 48.65C47.3426 48.65 46.8626 49.26 46.8626 50.01V53H46.1826V49.96C46.1826 49.14 45.7126 48.66 44.9826 48.66C44.1726 48.66 43.6826 49.26 43.6826 50V53ZM53.629 53.12C52.209 53.12 51.259 52.1 51.259 50.58C51.259 49.07 52.199 48.03 53.579 48.03C54.889 48.03 55.779 48.96 55.779 50.33V50.67H51.929C51.979 51.85 52.599 52.53 53.639 52.53C54.429 52.53 54.939 52.19 55.119 51.55H55.779C55.519 52.57 54.769 53.12 53.629 53.12ZM53.579 48.62C52.669 48.62 52.069 49.22 51.949 50.17H55.089C55.089 49.24 54.489 48.62 53.579 48.62Z" fill="black"/>
</g>
<defs>
<filter id="filter0_d_1_667" x="0" y="0" width="69.2" height="69" filterUnits="userSpaceOnUse" color-interpolation-filters="sRGB">
<feFlood flood-opacity="0" result="BackgroundImageFix"/>
<feColorMatrix in="SourceAlpha" type="matrix" values="0 0 0 0 0 0 0 0 0 0 0 0 0 0 0 0 0 0 127 0" result="hardAlpha"/>
<feOffset dy="1"/>
<feGaussianBlur stdDeviation="1"/>
<feComposite in2="hardAlpha" operator="out"/>
<feColorMatrix type="matrix" values="0 0 0 0 0 0 0 0 0 0 0 0 0 0 0 0 0 0 0.1 0"/>
<feBlend mode="normal" in2="BackgroundImageFix" result="effect1_dropShadow_1_667"/>
<feBlend mode="normal" in="SourceGraphic" in2="effect1_dropShadow_1_667" result="shape"/>
</filter>
</defs>
</svg>
