<svg width="70" height="69" viewBox="0 0 70 69" fill="none" xmlns="http://www.w3.org/2000/svg">
<g filter="url(#filter0_d_1_670)">
<rect x="2.20001" y="1" width="65.2" height="65" rx="8" fill="white" shape-rendering="crispEdges"/>
<rect x="2.45001" y="1.25" width="64.7" height="64.5" rx="7.75" stroke="#BEBEBE" stroke-width="0.5" shape-rendering="crispEdges"/>
<path d="M59.8 23C53.1696 29.4029 44.1768 33 34.8 33C25.4232 33 16.4304 29.4029 9.79999 23" stroke="black"/>
<path d="M25.67 46.4C24.02 46.4 22.98 47.62 22.98 49.45C22.98 51.31 24.08 52.44 25.69 52.44C26.89 52.44 28.06 51.86 28.06 50.14V49.77H25.47V49.13H28.74V53.01H28.17L28.1 51.87C27.72 52.58 26.82 53.12 25.66 53.12C23.63 53.12 22.23 51.66 22.23 49.45C22.23 47.26 23.63 45.72 25.68 45.72C27.19 45.72 28.36 46.58 28.64 47.88H27.86C27.56 46.9 26.72 46.4 25.67 46.4ZM29.8684 50.58C29.8684 49.1 30.9084 48.03 32.3284 48.03C33.7484 48.03 34.7884 49.1 34.7884 50.58C34.7884 52.05 33.7484 53.12 32.3284 53.12C30.9084 53.12 29.8684 52.05 29.8684 50.58ZM30.5684 50.57C30.5684 51.71 31.2884 52.5 32.3284 52.5C33.3584 52.5 34.0884 51.71 34.0884 50.57C34.0884 49.45 33.3584 48.65 32.3284 48.65C31.2884 48.65 30.5684 49.45 30.5684 50.57ZM35.7404 50.58C35.7404 49.1 36.7804 48.03 38.2004 48.03C39.6204 48.03 40.6604 49.1 40.6604 50.58C40.6604 52.05 39.6204 53.12 38.2004 53.12C36.7804 53.12 35.7404 52.05 35.7404 50.58ZM36.4404 50.57C36.4404 51.71 37.1604 52.5 38.2004 52.5C39.2304 52.5 39.9604 51.71 39.9604 50.57C39.9604 49.45 39.2304 48.65 38.2004 48.65C37.1604 48.65 36.4404 49.45 36.4404 50.57ZM43.8525 53.12C42.4425 53.12 41.6125 52.04 41.6125 50.59C41.6125 49.13 42.4425 48.03 43.8825 48.03C44.6825 48.03 45.3225 48.38 45.6625 49.08V45.71H46.3525V53H45.7525L45.6825 52.01C45.3425 52.76 44.6625 53.12 43.8525 53.12ZM43.9725 52.49C45.0325 52.49 45.6525 51.69 45.6525 50.57C45.6525 49.46 45.0325 48.65 43.9725 48.65C42.9225 48.65 42.3125 49.46 42.3125 50.57C42.3125 51.69 42.9225 52.49 43.9725 52.49Z" fill="black"/>
</g>
<defs>
<filter id="filter0_d_1_670" x="0.200012" y="0" width="69.2" height="69" filterUnits="userSpaceOnUse" color-interpolation-filters="sRGB">
<feFlood flood-opacity="0" result="BackgroundImageFix"/>
<feColorMatrix in="SourceAlpha" type="matrix" values="0 0 0 0 0 0 0 0 0 0 0 0 0 0 0 0 0 0 127 0" result="hardAlpha"/>
<feOffset dy="1"/>
<feGaussianBlur stdDeviation="1"/>
<feComposite in2="hardAlpha" operator="out"/>
<feColorMatrix type="matrix" values="0 0 0 0 0 0 0 0 0 0 0 0 0 0 0 0 0 0 0.1 0"/>
<feBlend mode="normal" in2="BackgroundImageFix" result="effect1_dropShadow_1_670"/>
<feBlend mode="normal" in="SourceGraphic" in2="effect1_dropShadow_1_670" result="shape"/>
</filter>
</defs>
</svg>
