<svg width="70" height="69" viewBox="0 0 70 69" fill="none" xmlns="http://www.w3.org/2000/svg">
<g filter="url(#filter0_d_1_673)">
<rect x="2.40002" y="1" width="65.2" height="65" rx="8" fill="white" shape-rendering="crispEdges"/>
<rect x="2.65002" y="1.25" width="64.7" height="64.5" rx="7.75" stroke="#BEBEBE" stroke-width="0.5" shape-rendering="crispEdges"/>
<line x1="10" y1="25.5" x2="60" y2="25.5" stroke="black"/>
<path d="M20.09 53H19.37V45.84H20.1L24.04 51.8V45.84H24.75V53H24.04L20.09 47.04V53ZM28.5673 53.12C27.1473 53.12 26.1973 52.1 26.1973 50.58C26.1973 49.07 27.1373 48.03 28.5173 48.03C29.8273 48.03 30.7173 48.96 30.7173 50.33V50.67H26.8673C26.9173 51.85 27.5373 52.53 28.5773 52.53C29.3673 52.53 29.8773 52.19 30.0573 51.55H30.7173C30.4573 52.57 29.7073 53.12 28.5673 53.12ZM28.5173 48.62C27.6073 48.62 27.0073 49.22 26.8873 50.17H30.0273C30.0273 49.24 29.4273 48.62 28.5173 48.62ZM35.409 48.16H36.099V53H35.499L35.409 52.18C35.139 52.74 34.469 53.12 33.709 53.12C32.569 53.12 31.949 52.34 31.949 51.16V48.15H32.649V50.94C32.649 52.09 33.159 52.5 33.929 52.5C34.859 52.5 35.409 51.88 35.409 50.73V48.16ZM38.8347 53H38.1547V48.74H37.1847V48.16H38.1547V46.63H38.8347V48.16H39.8047V48.74H38.8347V53ZM43.4217 48.1V48.72H43.0417C42.1517 48.72 41.5817 49.32 41.5817 50.24V53H40.8917V48.16H41.5417L41.5917 48.91C41.7817 48.39 42.2917 48.05 42.9717 48.05C43.1217 48.05 43.2517 48.06 43.4217 48.1ZM45.7221 53.12C44.6921 53.12 44.0821 52.54 44.0821 51.69C44.0821 50.8 44.7621 50.24 45.8921 50.15L47.4921 50.02V49.86C47.4921 48.91 46.9221 48.61 46.2121 48.61C45.3721 48.61 44.8721 48.99 44.8721 49.64H44.2421C44.2421 48.66 45.0421 48.03 46.2321 48.03C47.3521 48.03 48.1721 48.59 48.1721 49.87V53H47.5921L47.5021 52.15C47.2021 52.76 46.5421 53.12 45.7221 53.12ZM45.8821 52.56C46.9021 52.56 47.4921 51.85 47.4921 50.8V50.54L46.0621 50.65C45.1521 50.73 44.7821 51.13 44.7821 51.67C44.7821 52.26 45.2221 52.56 45.8821 52.56ZM50.4651 53H49.7751V45.71H50.4651V53Z" fill="black"/>
</g>
<defs>
<filter id="filter0_d_1_673" x="0.400024" y="0" width="69.2" height="69" filterUnits="userSpaceOnUse" color-interpolation-filters="sRGB">
<feFlood flood-opacity="0" result="BackgroundImageFix"/>
<feColorMatrix in="SourceAlpha" type="matrix" values="0 0 0 0 0 0 0 0 0 0 0 0 0 0 0 0 0 0 127 0" result="hardAlpha"/>
<feOffset dy="1"/>
<feGaussianBlur stdDeviation="1"/>
<feComposite in2="hardAlpha" operator="out"/>
<feColorMatrix type="matrix" values="0 0 0 0 0 0 0 0 0 0 0 0 0 0 0 0 0 0 0.1 0"/>
<feBlend mode="normal" in2="BackgroundImageFix" result="effect1_dropShadow_1_673"/>
<feBlend mode="normal" in="SourceGraphic" in2="effect1_dropShadow_1_673" result="shape"/>
</filter>
</defs>
</svg>
