<svg width="70" height="69" viewBox="0 0 70 69" fill="none" xmlns="http://www.w3.org/2000/svg">
<g filter="url(#filter0_d_1_679)">
<rect x="2.79999" y="1" width="65.2" height="65" rx="8" fill="white" shape-rendering="crispEdges"/>
<rect x="3.04999" y="1.25" width="64.7" height="64.5" rx="7.75" stroke="#BEBEBE" stroke-width="0.5" shape-rendering="crispEdges"/>
<path d="M13.4 33C13.4 27.1652 15.7178 21.5695 19.8436 17.4437C23.9694 13.3179 29.5652 11 35.4 11C41.2348 11 46.8305 13.3178 50.9563 17.4436C55.0821 21.5694 57.4 27.1652 57.4 33" stroke="black"/>
<path d="M18.52 46.5V45.84H23.65V46.5H21.44V53H20.72V46.5H18.52ZM25.9673 53.12C24.5473 53.12 23.5973 52.1 23.5973 50.58C23.5973 49.07 24.5373 48.03 25.9173 48.03C27.2273 48.03 28.1173 48.96 28.1173 50.33V50.67H24.2673C24.3173 51.85 24.9373 52.53 25.9773 52.53C26.7673 52.53 27.2773 52.19 27.4573 51.55H28.1173C27.8573 52.57 27.1073 53.12 25.9673 53.12ZM25.9173 48.62C25.0073 48.62 24.4073 49.22 24.2873 50.17H27.4273C27.4273 49.24 26.8273 48.62 25.9173 48.62ZM31.9389 48.1V48.72H31.5589C30.6689 48.72 30.0989 49.32 30.0989 50.24V53H29.4089V48.16H30.0589L30.1089 48.91C30.2989 48.39 30.8089 48.05 31.4889 48.05C31.6389 48.05 31.7689 48.06 31.9389 48.1ZM35.5746 48.1V48.72H35.1946C34.3046 48.72 33.7346 49.32 33.7346 50.24V53H33.0446V48.16H33.6946L33.7446 48.91C33.9346 48.39 34.4446 48.05 35.1246 48.05C35.2746 48.05 35.4046 48.06 35.5746 48.1ZM37.0203 46.83C36.7403 46.83 36.5103 46.6 36.5103 46.32C36.5103 46.04 36.7403 45.8 37.0203 45.8C37.3003 45.8 37.5403 46.04 37.5403 46.32C37.5403 46.6 37.3003 46.83 37.0203 46.83ZM36.6803 53V48.16H37.3703V53H36.6803ZM39.5977 53H38.9977V45.71H39.6877V49.1C40.0277 48.39 40.6877 48.03 41.5077 48.03C42.9177 48.03 43.7377 49.13 43.7377 50.59C43.7377 52.04 42.8977 53.12 41.4877 53.12C40.6777 53.12 40.0077 52.76 39.6677 52.01L39.5977 53ZM39.6977 50.57C39.6977 51.69 40.3177 52.49 41.3777 52.49C42.4277 52.49 43.0377 51.69 43.0377 50.57C43.0377 49.46 42.4277 48.65 41.3777 48.65C40.3177 48.65 39.6977 49.46 39.6977 50.57ZM45.7459 53H45.0559V45.71H45.7459V53ZM49.4319 53.12C48.0119 53.12 47.0619 52.1 47.0619 50.58C47.0619 49.07 48.0019 48.03 49.3819 48.03C50.6919 48.03 51.5819 48.96 51.5819 50.33V50.67H47.7319C47.7819 51.85 48.4019 52.53 49.4419 52.53C50.2319 52.53 50.7419 52.19 50.9219 51.55H51.5819C51.3219 52.57 50.5719 53.12 49.4319 53.12ZM49.3819 48.62C48.4719 48.62 47.8719 49.22 47.7519 50.17H50.8919C50.8919 49.24 50.2919 48.62 49.3819 48.62Z" fill="black"/>
</g>
<defs>
<filter id="filter0_d_1_679" x="0.799988" y="0" width="69.2" height="69" filterUnits="userSpaceOnUse" color-interpolation-filters="sRGB">
<feFlood flood-opacity="0" result="BackgroundImageFix"/>
<feColorMatrix in="SourceAlpha" type="matrix" values="0 0 0 0 0 0 0 0 0 0 0 0 0 0 0 0 0 0 127 0" result="hardAlpha"/>
<feOffset dy="1"/>
<feGaussianBlur stdDeviation="1"/>
<feComposite in2="hardAlpha" operator="out"/>
<feColorMatrix type="matrix" values="0 0 0 0 0 0 0 0 0 0 0 0 0 0 0 0 0 0 0.1 0"/>
<feBlend mode="normal" in2="BackgroundImageFix" result="effect1_dropShadow_1_679"/>
<feBlend mode="normal" in="SourceGraphic" in2="effect1_dropShadow_1_679" result="shape"/>
</filter>
</defs>
</svg>
