<svg width="58" height="38" viewBox="0 0 58 38" fill="none" xmlns="http://www.w3.org/2000/svg">
<g clip-path="url(#clip0_1_913)">
<path d="M42.436 5.56422C38.8474 1.97563 34.076 -0.000732422 29.001 -0.000732422C23.9257 -0.000732422 19.1545 1.97563 15.5659 5.56422C11.9773 9.15282 10.001 13.924 10.001 18.9993C10.001 24.0743 11.9773 28.8457 15.5659 32.4343C19.1545 36.0229 23.9257 37.9993 29.001 37.9993C34.076 37.9993 38.8474 36.0229 42.436 32.4343C46.0246 28.8457 48.001 24.0743 48.001 18.9993C48.001 13.924 46.0246 9.15282 42.436 5.56422ZM19.5262 32.8327C20.3209 28.2572 24.2858 24.8823 29.001 24.8823C33.7165 24.8823 37.6811 28.2572 38.4758 32.8327C35.7781 34.6861 32.5142 35.7727 29.001 35.7727C25.4878 35.7727 22.2239 34.6861 19.5262 32.8327ZM22.9597 16.6144C22.9597 13.283 25.6698 10.5731 29.001 10.5731C32.3321 10.5731 35.0423 13.2833 35.0423 16.6144C35.0423 19.9456 32.3321 22.6557 29.001 22.6557C25.6698 22.6557 22.9597 19.9456 22.9597 16.6144ZM40.4043 31.2883C39.805 29.1582 38.6149 27.2257 36.9467 25.7161C35.9233 24.7898 34.7584 24.0589 33.506 23.5437C35.7697 22.0672 37.2691 19.5127 37.2691 16.6144C37.2691 12.0555 33.5599 8.34656 29.001 8.34656C24.442 8.34656 20.7331 12.0555 20.7331 16.6144C20.7331 19.5127 22.2326 22.0672 24.496 23.5437C23.2438 24.0589 22.0786 24.7895 21.0552 25.7158C19.3873 27.2254 18.1969 29.158 17.5977 31.288C14.297 28.2227 12.2275 23.8484 12.2275 18.9993C12.2275 9.75034 19.752 2.22583 29.001 2.22583C38.2499 2.22583 45.7744 9.75034 45.7744 18.9993C45.7744 23.8487 43.705 28.223 40.4043 31.2883Z" fill="#989898"/>
</g>
<defs>
<clipPath id="clip0_1_913">
<rect width="38" height="38" fill="white" transform="translate(10)"/>
</clipPath>
</defs>
</svg>
