<svg width="108" height="108" viewBox="0 0 108 108" fill="none" xmlns="http://www.w3.org/2000/svg">
<g filter="url(#filter0_d_1_934)">
<rect x="3" y="2" width="100" height="100" rx="50" fill="url(#paint0_linear_1_934)" shape-rendering="crispEdges"/>
<rect x="3.5" y="2.5" width="99" height="99" rx="49.5" stroke="#FFAFC1" shape-rendering="crispEdges"/>
<path d="M59.3999 52C59.3999 52.9333 59.0399 53.8667 58.3332 54.5733L49.6399 63.2667C49.2532 63.6533 48.6132 63.6533 48.2265 63.2667C47.8399 62.88 47.8399 62.24 48.2265 61.8533L56.9199 53.16C57.5599 52.52 57.5599 51.48 56.9199 50.84L48.2265 42.1467C47.8399 41.76 47.8399 41.12 48.2265 40.7333C48.6132 40.3467 49.2532 40.3467 49.6399 40.7333L58.3332 49.4267C59.0399 50.1333 59.3999 51.0667 59.3999 52Z" fill="#292D32"/>
</g>
<defs>
<filter id="filter0_d_1_934" x="0" y="0" width="108" height="108" filterUnits="userSpaceOnUse" color-interpolation-filters="sRGB">
<feFlood flood-opacity="0" result="BackgroundImageFix"/>
<feColorMatrix in="SourceAlpha" type="matrix" values="0 0 0 0 0 0 0 0 0 0 0 0 0 0 0 0 0 0 127 0" result="hardAlpha"/>
<feOffset dx="1" dy="2"/>
<feGaussianBlur stdDeviation="2"/>
<feComposite in2="hardAlpha" operator="out"/>
<feColorMatrix type="matrix" values="0 0 0 0 0 0 0 0 0 0 0 0 0 0 0 0 0 0 0.08 0"/>
<feBlend mode="normal" in2="BackgroundImageFix" result="effect1_dropShadow_1_934"/>
<feBlend mode="normal" in="SourceGraphic" in2="effect1_dropShadow_1_934" result="shape"/>
</filter>
<linearGradient id="paint0_linear_1_934" x1="103" y1="52" x2="3.00011" y2="51.8963" gradientUnits="userSpaceOnUse">
<stop stop-color="white"/>
<stop offset="1" stop-color="#FFE8ED"/>
</linearGradient>
</defs>
</svg>
