<svg width="33" height="32" viewBox="0 0 33 32" fill="none" xmlns="http://www.w3.org/2000/svg">
<g clip-path="url(#clip0_1_1128)">
<path d="M31.2924 13.2179L18.2399 13.2173C17.6635 13.2173 17.1963 13.6844 17.1963 14.2608V18.4305C17.1963 19.0067 17.6635 19.474 18.2398 19.474H25.5902C24.7853 21.5628 23.283 23.3121 21.3664 24.4236L24.5006 29.8492C29.5282 26.9415 32.5006 21.8397 32.5006 16.1285C32.5006 15.3153 32.4407 14.734 32.3208 14.0795C32.2297 13.5822 31.7979 13.2179 31.2924 13.2179Z" fill="#167EE6"/>
<path d="M16.5007 25.7394C12.9036 25.7394 9.7633 23.774 8.07674 20.8657L2.65137 23.9928C5.4123 28.778 10.5844 32.0003 16.5007 32.0003C19.403 32.0003 22.1416 31.2188 24.5007 29.857V29.8496L21.3665 24.424C19.9329 25.2555 18.2739 25.7394 16.5007 25.7394Z" fill="#12B347"/>
<path d="M24.5 29.8567V29.8493L21.3658 24.4236C19.9322 25.2551 18.2733 25.7391 16.5 25.7391V32C19.4023 32 22.141 31.2185 24.5 29.8567Z" fill="#0F993E"/>
<path d="M6.76088 16.0001C6.76088 14.227 7.24475 12.5682 8.07606 11.1346L2.65069 8.00751C1.28137 10.3592 0.5 13.0903 0.5 16.0001C0.5 18.9098 1.28137 21.6409 2.65069 23.9926L8.07606 20.8655C7.24475 19.4319 6.76088 17.7731 6.76088 16.0001Z" fill="#FFD500"/>
<path d="M16.5007 6.26088C18.8464 6.26088 21.001 7.09437 22.6839 8.48081C23.0991 8.82281 23.7026 8.79813 24.0829 8.41781L27.0372 5.46344C27.4687 5.03194 27.438 4.32562 26.9771 3.92575C24.1574 1.47956 20.4886 0 16.5007 0C10.5844 0 5.4123 3.22231 2.65137 8.00744L8.07674 11.1346C9.7633 8.22625 12.9036 6.26088 16.5007 6.26088Z" fill="#FF4B26"/>
<path d="M22.6833 8.481C23.0984 8.823 23.7019 8.79831 24.0822 8.418L27.0366 5.46362C27.468 5.03212 27.4373 4.32581 26.9764 3.92593C24.1567 1.47968 20.4879 0.000183105 16.5 0.000183105V6.26106C18.8456 6.26106 21.0003 7.09456 22.6833 8.481Z" fill="#D93F21"/>
</g>
<defs>
<clipPath id="clip0_1_1128">
<rect width="32" height="32" fill="white" transform="translate(0.5)"/>
</clipPath>
</defs>
</svg>
