<svg width="58" height="38" viewBox="0 0 58 38" fill="none" xmlns="http://www.w3.org/2000/svg">
<g clip-path="url(#clip0_1_872)">
<path d="M47.3619 17.2971L41.6028 11.538V4.88533C41.6028 3.68243 40.628 2.70757 39.4234 2.70757C38.2215 2.70757 37.2467 3.68243 37.2467 4.88533V7.18198L32.9586 2.89373C30.8385 0.774808 27.1524 0.778566 25.0372 2.89757L10.6373 17.2971C9.78724 18.1489 9.78724 19.527 10.6373 20.3775C11.4877 21.229 12.8686 21.229 13.7187 20.3775L28.1172 5.97755C28.5863 5.51094 29.413 5.51094 29.8796 5.97617L44.2806 20.3775C44.7076 20.8033 45.2643 21.0151 45.8209 21.0151C46.3786 21.0151 46.9363 20.8031 47.362 20.3775C48.2124 19.5271 48.2123 18.1489 47.3619 17.2971Z" fill="#FC456F"/>
<path d="M29.7575 10.112C29.3392 9.69387 28.6618 9.69387 28.2446 10.112L15.5785 22.7744C15.3785 22.9743 15.2651 23.2472 15.2651 23.532V32.7675C15.2651 34.9347 17.0223 36.6918 19.1894 36.6918H25.4604V26.98H32.5403V36.6918H38.8114C40.9784 36.6918 42.7356 34.9347 42.7356 32.7676V23.532C42.7356 23.2472 42.6233 22.9743 42.4223 22.7744L29.7575 10.112Z" fill="#FC456F"/>
</g>
<defs>
<clipPath id="clip0_1_872">
<rect width="38" height="38" fill="white" transform="translate(10)"/>
</clipPath>
</defs>
</svg>
