<svg width="166" height="142" viewBox="0 0 166 142" fill="none" xmlns="http://www.w3.org/2000/svg">
<path d="M61.1097 12.201C62.3673 9.93338 73.8121 11.653 76.8981 11.433C78.8193 7.57698 80.6477 3.59298 83.0549 0.142578C81.8577 3.19458 82.0545 15.735 78.5569 15.9082C76.2205 16.0166 73.8569 16.1314 71.5437 16.3858C79.3337 22.1466 79.5485 19.9618 76.2817 29.5126C83.7769 23.9802 82.3389 23.8874 89.9253 29.4806C86.6713 19.3242 87.2829 22.359 95.2137 16.2246C93.5057 16.2902 91.8813 16.0114 90.1865 15.9618C88.6749 15.8442 86.2989 16.4454 85.7553 14.527C84.5141 9.94738 83.8897 5.33938 83.0553 0.652176C83.1813 0.928176 83.3125 1.46538 83.4293 1.80378C83.4181 1.71338 83.3101 1.27978 83.4217 1.49458L83.4837 1.47978C83.4821 1.30498 83.2109 0.456576 83.3789 0.752176C84.8761 4.65058 86.9333 8.45378 88.6013 12.3626C91.7101 12.025 95.8701 12.0474 99.0317 11.9602C99.9093 11.951 101.84 11.943 102.691 11.8702C104.558 11.6738 105.537 14.2486 104.064 15.3542C100.489 17.9702 96.7229 20.8358 93.1525 23.4938C94.1353 26.3974 95.8769 31.7406 96.8565 34.6718L96.8641 34.6774L96.8597 34.6806L97.3801 36.2526C98.1369 38.2942 95.5513 40.1498 93.8617 38.8442C90.2985 36.273 86.6353 33.8294 83.0689 31.2634C79.7625 33.7846 76.3905 36.2226 73.1233 38.7974C71.8701 40.0446 69.7793 40.1766 68.6713 38.673C67.0309 36.9798 70.0013 31.5702 70.2437 29.7426C70.7093 28.3318 71.6877 25.2318 72.1329 23.837C70.0781 22.3174 66.9413 20.0526 64.9129 18.4714C63.0145 16.9834 59.0381 15.1214 61.1097 12.201ZM110.417 39.6258C113.615 42.015 116.878 44.4394 120.098 46.7918C119.115 49.6314 117.96 52.8026 116.996 55.6718C116.558 57.1218 115.284 59.2566 116.452 60.7026C117.892 62.8326 120.386 61.6818 121.924 60.3322C124.303 58.6826 127.766 56.1966 130.062 54.447C132.48 56.1134 135.407 58.3786 137.83 60.1098C139.025 60.9514 140.503 62.4262 142.135 61.7646C146.035 60.2118 142.81 55.6578 142.163 52.9466C141.897 52.1398 140.408 47.6166 140.175 46.9082C143.303 44.6146 146.658 42.207 149.781 39.937C151.891 38.505 150.751 34.8742 148.147 34.9754C143.97 35.0634 139.812 35.2602 135.673 35.703C134.207 31.5598 132.188 27.7778 130.016 24.0146C131.139 28.759 131.171 33.7202 132.019 38.4794C132.714 41.1502 137.361 39.9798 139.515 40.3618C132.753 45.0034 133.157 44.2282 135.833 51.877C128.516 46.3222 130.152 47.951 123.26 52.7382C126.521 42.5558 126.585 46.0794 118.034 39.6038C131.351 39.3762 125.422 40.097 129.75 25.0886C129.686 25.1566 129.598 25.4934 129.538 25.4878C129.528 25.3262 129.72 24.6926 129.518 25.055C129.69 24.5086 129.863 24.0866 130.016 23.5054C127.733 27.317 126.071 31.5594 124.378 35.6962C121.281 35.5642 117.67 35.2762 114.52 35.3658C114.52 35.3654 111.885 35.3238 111.885 35.3238C109.667 35.2118 108.548 38.3302 110.417 39.6258ZM74.4245 68.1194C74.9597 65.121 76.3653 62.1954 79.0749 60.6434C79.5093 60.2738 80.1057 60.1678 80.6297 59.9854C81.0437 59.5182 81.6481 59.4002 82.1381 59.069C82.2497 58.8574 82.4841 58.9478 82.6237 58.835C82.7213 58.645 82.8861 58.5982 83.0549 58.509C81.4961 56.5766 78.7721 56.9198 76.5917 57.6106C73.9705 58.239 71.9473 60.3974 70.5689 62.6198C64.8577 72.3782 72.5657 84.2742 83.7257 83.5018C90.2673 83.113 96.2693 77.5114 96.6249 70.8802C97.3941 63.5878 91.0233 55.8982 83.4741 58.2398C83.5585 58.3418 83.7061 58.2834 83.7665 58.4242C83.7165 58.5814 83.4821 58.7046 83.7157 58.8046C83.4873 58.8826 83.2457 58.8358 83.0549 59.019C83.6921 59.7694 84.6989 59.5942 85.5161 59.9374C85.5873 59.9638 85.6565 59.9894 85.6849 60.0914C85.8673 60.3974 86.3257 60.287 86.6277 60.4294C87.3945 60.6554 87.9777 61.3014 88.5969 61.7846C92.6329 65.3606 93.5093 71.8286 89.2365 75.6822C82.9681 81.1622 73.2613 76.5706 74.4245 68.1194ZM35.6537 83.369C32.0349 83.573 27.8625 83.407 24.2645 83.841C22.8565 80.739 21.0965 77.7466 19.8493 74.6558C19.6945 74.4014 19.9449 75.187 19.9289 75.3046L19.8761 75.3478C19.7817 75.2042 19.8729 75.5638 19.8773 75.6386C19.7869 75.3834 19.6853 74.9366 19.5857 74.7422C20.1873 78.5578 20.4869 82.2958 21.4473 86.0194C22.4073 88.5138 26.0869 86.9722 28.1401 87.733C23.2897 91.3126 22.0309 90.5282 24.3297 96.8454C19.9481 93.4546 19.3105 93.2118 14.9897 96.8906C17.3425 90.751 16.2481 91.2166 11.4313 87.7042C12.9433 87.685 14.4349 87.409 15.9541 87.3982C19.4313 87.0538 18.4993 77.081 19.5857 74.2322C17.4277 76.6578 15.9761 79.955 14.3193 82.9102C10.7249 82.6674 7.11489 82.7006 3.51889 82.5678C0.910492 82.405 -0.422309 86.071 1.77849 87.589C4.37089 89.5022 7.41769 91.8318 10.0245 93.7354C9.71209 94.7086 8.93249 97.1942 8.60369 98.1958C8.33889 99.9918 5.84769 104.312 7.40929 105.989C8.48129 107.429 10.5229 107.389 11.7557 106.176C14.3217 104.111 17.0025 102.194 19.6025 100.176C22.4429 102.195 25.3605 104.116 28.1905 106.15C29.8781 107.453 32.4661 105.597 31.7053 103.557L31.1841 101.986L31.1897 101.982L31.1805 101.975C30.4385 99.7578 29.0713 95.5866 28.3305 93.3866C30.8809 91.4306 33.7045 89.3746 36.2225 87.407C38.4109 86.5962 38.1997 83.2646 35.6537 83.369ZM16.2333 39.9422C19.2341 42.1506 22.7289 44.811 25.7461 47.0062C25.3577 48.2238 24.4605 51.0606 24.0545 52.3026C23.8065 54.1342 21.0321 59.0498 22.6409 60.753C23.7341 62.229 25.8037 62.1386 27.0485 60.9042C30.0201 58.5446 33.1001 56.3258 36.1089 54.017C39.3681 56.3526 42.7181 58.5754 45.9721 60.9202C47.6593 62.2246 50.2489 60.3698 49.4893 58.3278L48.9685 56.7562L48.9733 56.7526L48.9653 56.7466C48.0829 54.1082 46.5049 49.2746 45.6209 46.6606C48.8897 44.2142 52.3405 41.589 55.6129 39.185C57.0773 38.0758 56.0929 35.5062 54.2257 35.7138C53.4509 35.7838 51.6501 35.7902 50.8469 35.803C47.9421 35.8926 44.1333 35.8654 41.2761 36.1978C39.7181 32.629 37.7837 29.1674 36.3925 25.6094C36.2229 25.2998 36.5001 26.1826 36.4865 26.3038L36.4285 26.3306C36.3241 26.145 36.4249 26.5486 36.4333 26.6322C36.3273 26.3286 36.2089 25.8298 36.0937 25.5882C36.8277 29.9078 37.3173 34.1494 38.4401 38.3678C38.9477 40.2242 41.2137 39.7078 42.6793 39.803C44.0701 39.793 45.3749 40.1582 46.7701 40.047C40.1021 45.1562 39.2161 42.9686 42.0569 51.573C35.7909 46.8934 36.4037 46.8662 30.2345 51.6314C33.1285 43.447 32.5513 45.0094 26.0017 40.1534C27.9757 39.985 29.9713 39.8294 31.9593 39.7478C35.4425 39.5234 34.9461 28.0394 36.0937 25.0782C33.7893 28.109 32.1193 31.789 30.3097 35.2678C26.2009 35.013 22.0745 35.0486 17.9633 34.913C15.3553 34.7574 14.0297 38.4282 16.2333 39.9422ZM162.592 82.6298C158.937 82.7154 155.298 82.9094 151.686 83.3362C150.361 79.707 148.541 76.3858 146.525 73.1686C147.52 77.4114 147.394 81.8682 148.043 86.131C148.714 88.5886 152.052 87.673 153.989 87.9818C148.98 91.3138 148.949 91.4914 151.059 97.103C145.626 92.8474 146.047 94.3958 141.049 97.9442C143.749 89.8486 143.293 92.2794 136.601 87.2418C147.824 87.1086 142.661 86.9118 146.287 74.1534C146.23 74.2026 146.152 74.5086 146.096 74.4882C146.082 74.3438 146.261 73.753 146.075 74.0614C146.23 73.5638 146.387 73.1938 146.525 72.6594C145.55 73.8614 145.008 75.5438 144.244 76.9498C142.982 78.8526 142.41 81.2598 141.383 83.3474C138.695 83.1914 135.535 82.9394 132.793 83.0194L130.458 82.9778C128.24 82.8638 127.119 85.9758 128.983 87.275C131.757 89.359 134.597 91.4678 137.39 93.5198C136.531 95.9606 135.522 98.7154 134.688 101.186C134.234 102.584 133.12 104.531 134.229 105.93C135.605 107.979 138.041 107.017 139.547 105.679C141.581 104.282 144.621 102.096 146.58 100.607C148.646 102.021 151.186 104.01 153.258 105.48C154.406 106.316 155.8 107.621 157.372 106.994C159.998 106.161 159.344 103.219 158.481 101.295C157.742 99.2558 156.582 95.7206 155.9 93.6366C158.621 91.6406 161.507 89.5674 164.227 87.5914C166.338 86.1602 165.194 82.5274 162.592 82.6298ZM126.291 72.3898C128.807 79.0466 123.49 82.1034 118.958 85.557C116.548 87.4514 113.625 89.6782 111.18 91.5758C106.899 94.895 100.63 98.5714 100.482 104.675C100.109 114.545 100.105 124.436 99.8057 134.289C106.427 132.447 112.541 129.225 118.395 125.759C119.131 125.464 119.531 124.519 120.27 124.322C120.527 124.351 120.979 123.895 121.192 123.79C121.865 123.098 122.654 122.443 123.648 122.334C123.585 122.653 123.321 122.837 123.159 123.101C123.445 122.961 123.32 123.229 123.388 123.408C123.546 123.451 123.641 123.279 123.792 123.277C111.493 142.181 78.0941 146.207 58.5345 137.282C52.3145 134.277 43.6629 129.955 42.1157 122.708C45.2113 123.629 47.7757 125.854 50.6181 127.487C55.9305 129.865 61.1965 132.657 66.8685 134.236C65.8289 126.777 66.0365 119.225 65.8169 111.693C65.5673 107.353 66.1225 102.607 63.3617 98.9282C62.5717 97.9226 61.5889 97.0434 60.5389 96.307C54.2757 91.587 48.1693 86.6442 41.9729 81.8366C33.7189 74.7826 44.0405 62.3774 52.5005 69.2402C56.6401 72.475 62.3397 76.8314 66.5197 80.1298C72.6221 84.9818 78.8225 91.2618 87.3313 88.357C89.8381 87.6758 92.0101 86.0426 93.9861 84.4066C97.0537 82.0394 103.286 77.2786 106.374 74.9282C108.523 73.293 112.49 70.1338 114.688 68.5958C118.703 66.0754 124.576 67.935 126.291 72.3898ZM122.128 75.119C121.86 72.6242 118.587 71.4386 116.769 73.179C111.725 77.1018 103.402 83.7318 98.5085 87.6422C90.2349 96.0134 77.3993 96.851 68.6181 88.7622C62.7521 84.3206 54.7225 78.1646 48.8777 73.6106C45.8701 71.273 42.8541 75.8946 46.1265 77.8554C49.5565 80.5442 54.6697 84.685 58.0585 87.361C61.1869 90.0746 64.8585 92.2562 67.4293 95.551C71.7457 101.172 70.1837 108.474 70.0821 115.007C69.3225 121.464 69.6581 128.264 68.0697 134.557C77.9261 137.144 88.3733 136.826 98.2853 134.674C97.6861 126.285 97.0897 117.884 96.6625 109.479C96.3477 105.197 96.2609 100.629 98.7649 96.9138C100.494 94.0438 103.411 92.2182 105.897 90.129C109.966 86.8586 114.407 83.333 118.514 80.0558C119.976 78.7798 122.562 77.4414 122.128 75.119Z" fill="#BD0730"/>
</svg>
