<svg id="vuesax_bold_close-circle" data-name="vuesax/bold/close-circle" xmlns="http://www.w3.org/2000/svg" width="20" height="20" viewBox="0 0 20 20">
  <g id="close-circle" transform="translate(0 0)">
    <path id="Vector" d="M8.333,0a8.333,8.333,0,1,0,8.333,8.333A8.347,8.347,0,0,0,8.333,0Zm2.8,10.25a.629.629,0,0,1,0,.883.624.624,0,0,1-.883,0L8.333,9.217,6.417,11.133a.624.624,0,0,1-.883,0,.629.629,0,0,1,0-.883L7.45,8.333,5.533,6.417a.625.625,0,0,1,.883-.883L8.333,7.45,10.25,5.533a.625.625,0,0,1,.883.883L9.217,8.333Z" transform="translate(1.667 1.667)" fill="#cecece"/>
    <path id="Vector-2" data-name="Vector" d="M0,0H20V20H0Z" transform="translate(20 20) rotate(180)" fill="none" opacity="0"/>
  </g>
</svg>
