<svg width="32" height="33" viewBox="0 0 32 33" fill="none" xmlns="http://www.w3.org/2000/svg">
<g clip-path="url(#clip0_1_1341)">
<path d="M8.66962 9.0625H8.26837L7.51855 12.8125H9.41943L8.66962 9.0625Z" fill="#3E3E3E"/>
<path d="M23.8359 16.5625C24.2407 17.6499 24.7791 18.5302 25.375 19.2792C25.9709 18.5302 26.5718 17.6499 26.9766 16.5625H23.8359Z" fill="#3E3E3E"/>
<path d="M29.1871 6.1875H17.5444L19.972 25.6674C20.015 26.4642 19.7971 27.2143 19.2771 27.8016L15.166 32.5H29.1871C30.738 32.5 31.9996 31.2384 31.9996 29.6875V9.0625C31.9996 7.51163 30.738 6.1875 29.1871 6.1875ZM29.1871 16.5625H28.9367C28.4033 18.2739 27.5573 19.6131 26.6782 20.6689C27.3669 21.2985 28.1033 21.815 28.8355 22.3935C29.2393 22.7167 29.3052 23.3062 28.9811 23.7109C28.6585 24.115 28.0666 24.1805 27.6636 23.8565C26.8681 23.2286 26.1213 22.7029 25.3746 22.0177C24.6278 22.7029 23.9436 23.2286 23.148 23.8565C22.7451 24.1805 22.1532 24.115 21.8306 23.7109C21.5065 23.3062 21.5724 22.7167 21.9761 22.3935C22.7083 21.815 23.3823 21.2985 24.071 20.6689C23.1918 19.6132 22.4083 18.274 21.875 16.5625H21.6246C21.1064 16.5625 20.6871 16.1432 20.6871 15.625C20.6871 15.1068 21.1064 14.6875 21.6246 14.6875H24.4371V13.75C24.4371 13.2318 24.8564 12.8125 25.3746 12.8125C25.8928 12.8125 26.3121 13.2318 26.3121 13.75V14.6875H29.1871C29.7053 14.6875 30.1246 15.1068 30.1246 15.625C30.1246 16.1432 29.7053 16.5625 29.1871 16.5625Z" fill="#3E3E3E"/>
<path d="M15.2603 2.96369C15.0854 1.55925 13.8851 0.5 12.4698 0.5H2.8125C1.26163 0.5 0 1.76163 0 3.3125V24.0625C0 25.6134 1.26163 26.875 2.8125 26.875C8.41687 26.875 12.4486 26.875 17.5969 26.875C17.8704 26.5624 18.0997 26.3666 18.1094 25.9586C18.1117 25.8563 15.2729 3.06519 15.2603 2.96369ZM11.4965 18.4192C10.9994 18.5215 10.4958 18.1987 10.3933 17.684L9.79412 14.6875H7.14344L6.54425 17.684C6.44356 18.1912 5.95463 18.5244 5.44106 18.4192C4.93388 18.3176 4.60425 17.8241 4.70587 17.316L6.58081 7.941C6.66869 7.50338 7.05325 7.1875 7.5 7.1875H9.4375C9.88425 7.1875 10.2688 7.50338 10.3567 7.941L12.2317 17.316C12.3333 17.8241 12.0037 18.3176 11.4965 18.4192Z" fill="#3E3E3E"/>
<path d="M10.9541 28.75L11.115 30.0363C11.2222 30.8977 11.7946 31.7762 12.7361 32.2148C14.5129 30.2589 13.4379 31.4422 15.8835 28.75H10.9541Z" fill="#3E3E3E"/>
</g>
<defs>
<clipPath id="clip0_1_1341">
<rect width="32" height="32" fill="white" transform="translate(0 0.5)"/>
</clipPath>
</defs>
</svg>
