<svg width="30" height="32" viewBox="0 0 30 32" fill="none" xmlns="http://www.w3.org/2000/svg">
<path fill-rule="evenodd" clip-rule="evenodd" d="M14.7704 26.9035V28.4982C14.7704 29.7771 14.133 30.8812 13.0254 31.5206C12.4926 31.8282 11.8978 31.9998 11.2812 32.0001C10.664 32.0004 10.0694 31.8285 9.53619 31.5206L2.44519 27.4266C1.33751 26.7871 0.700256 25.6833 0.700256 24.4042V3.48994C0.700256 1.5655 2.26576 6.10352e-05 4.19013 6.10352e-05H19.8071C21.7316 6.10352e-05 23.2972 1.56537 23.2972 3.48994V7.89862C23.2972 8.53106 22.7837 9.04456 22.1513 9.04456C21.5186 9.04456 21.0056 8.53112 21.0056 7.89862V3.48994C21.0056 2.82912 20.4679 2.29144 19.8071 2.29144H6.12257L13.0254 6.2775C14.1326 6.91687 14.7704 8.02062 14.7704 9.29919V24.6119H19.8071C20.4678 24.6119 21.0056 24.0745 21.0056 23.4136V19.5489C21.0056 18.916 21.5183 18.4029 22.1513 18.4029C22.7839 18.4029 23.2972 18.9161 23.2972 19.5489V23.4136C23.2972 25.3382 21.7316 26.9035 19.8071 26.9035H14.7704ZM25.3881 14.5974L24.1261 15.8594C23.6787 16.3068 23.6788 17.0322 24.1261 17.4797C24.3415 17.6952 24.6318 17.8149 24.9363 17.8149C25.2412 17.8149 25.5311 17.6955 25.7468 17.4797L28.9643 14.2617C29.4116 13.8143 29.4116 13.0893 28.9643 12.6419L25.7468 9.42444C25.2993 8.97694 24.5739 8.97712 24.1262 9.42437C23.6789 9.87137 23.679 10.5971 24.1262 11.0442L25.3881 12.3058H16.9343C16.3013 12.3058 15.7886 12.8188 15.7886 13.4518C15.7886 14.0848 16.3013 14.5975 16.9343 14.5975H25.3881V14.5974Z" fill="black"/>
</svg>
