<svg width="21" height="22" viewBox="0 0 21 22" fill="none" xmlns="http://www.w3.org/2000/svg">
<path d="M2.8416 6.58543L3.56776 6.77302L2.8416 6.58543ZM6.34141 3.29138L6.48268 4.02796L6.34141 3.29138ZM8.40606 12.0096L8.19446 11.2901L8.40606 12.0096ZM9.51279 13.1164L8.79326 12.9048L9.51279 13.1164ZM14.937 18.6809L15.1246 19.407L14.937 18.6809ZM18.2311 15.181L18.9677 15.3223L18.2311 15.181ZM19.9857 6.03198L19.2491 5.89071L19.9857 6.03198ZM15.4905 1.53674L15.3492 0.800161L15.4905 1.53674ZM4.25862 16.2032C3.96573 16.4961 3.96573 16.971 4.25862 17.2639C4.55151 17.5567 5.02639 17.5567 5.31928 17.2639L4.25862 16.2032ZM6.7335 15.8496C7.02639 15.5567 7.02639 15.0819 6.7335 14.789C6.4406 14.4961 5.96573 14.4961 5.67283 14.789L6.7335 15.8496ZM4.96573 19.7387C4.67284 20.0316 4.67284 20.5065 4.96573 20.7994C5.25862 21.0923 5.7335 21.0923 6.02639 20.7994L4.96573 19.7387ZM7.4406 19.3852C7.7335 19.0923 7.7335 18.6174 7.4406 18.3245C7.14771 18.0316 6.67284 18.0316 6.37994 18.3245L7.4406 19.3852ZM0.723088 15.4961C0.430195 15.789 0.430195 16.2639 0.723088 16.5567C1.01598 16.8496 1.49085 16.8496 1.78375 16.5567L0.723088 15.4961ZM3.19796 15.1425C3.49085 14.8496 3.49085 14.3748 3.19796 14.0819C2.90507 13.789 2.43019 13.789 2.1373 14.0819L3.19796 15.1425ZM19.2491 5.89071L17.4945 15.0398L18.9677 15.3223L20.7223 6.17324L19.2491 5.89071ZM6.48268 4.02796L15.6317 2.27331L15.3492 0.800161L6.20015 2.55481L6.48268 4.02796ZM3.56776 6.77302C3.92927 5.37359 5.06779 4.29931 6.48268 4.02796L6.20015 2.55481C4.21131 2.93623 2.62077 4.44168 2.11544 6.39785L3.56776 6.77302ZM8.19446 11.2901C5.44206 12.0995 2.8452 9.57014 3.56776 6.77302L2.11544 6.39785C1.10653 10.3034 4.72857 13.8729 8.61766 12.7292L8.19446 11.2901ZM10.2323 13.328C10.5989 12.0816 9.44085 10.9236 8.19446 11.2901L8.61766 12.7292C8.72506 12.6976 8.82484 12.7974 8.79326 12.9048L10.2323 13.328ZM14.7494 17.9547C11.9523 18.6773 9.42291 16.0804 10.2323 13.328L8.79326 12.9048C7.64958 16.7939 11.219 20.416 15.1246 19.407L14.7494 17.9547ZM17.4945 15.0398C17.2232 16.4547 16.1489 17.5932 14.7494 17.9547L15.1246 19.407C17.0808 18.9017 18.5862 17.3112 18.9677 15.3223L17.4945 15.0398ZM20.7223 6.17324C21.3334 2.98664 18.5358 0.189023 15.3492 0.800161L15.6317 2.27331C17.7771 1.86187 19.6606 3.74535 19.2491 5.89071L20.7223 6.17324ZM5.31928 17.2639L6.7335 15.8496L5.67283 14.789L4.25862 16.2032L5.31928 17.2639ZM6.02639 20.7994L7.4406 19.3852L6.37994 18.3245L4.96573 19.7387L6.02639 20.7994ZM1.78375 16.5567L3.19796 15.1425L2.1373 14.0819L0.723088 15.4961L1.78375 16.5567Z" fill="#F2F4F5"/>
</svg>
