<svg width="32" height="33" viewBox="0 0 32 33" fill="none" xmlns="http://www.w3.org/2000/svg">
<rect y="0.219177" width="32" height="32" rx="16" fill="white"/>
<g clip-path="url(#clip0_1_1457)">
<path d="M25.431 10.4337L19.608 16.2191L25.431 22.0046C25.5362 21.7846 25.6001 21.5413 25.6001 21.2816V11.1566C25.6001 10.8969 25.5362 10.6537 25.431 10.4337Z" fill="#1F1F1F"/>
<path d="M23.9128 9.46906H8.0878C7.82804 9.46906 7.58485 9.53292 7.36484 9.63818L14.8072 17.043C15.4653 17.7011 16.5353 17.7011 17.1934 17.043L24.6358 9.63818C24.4157 9.53292 24.1726 9.46906 23.9128 9.46906Z" fill="#1F1F1F"/>
<path d="M6.56912 10.4337C6.46386 10.6537 6.39999 10.8969 6.39999 11.1567V21.2817C6.39999 21.5414 6.46386 21.7847 6.56912 22.0046L12.3921 16.2192L6.56912 10.4337Z" fill="#1F1F1F"/>
<path d="M18.8128 17.0145L17.9888 17.8385C16.8923 18.9349 15.1082 18.9349 14.0118 17.8385L13.1878 17.0145L7.36484 22.7999C7.58485 22.9052 7.82804 22.9691 8.0878 22.9691H23.9128C24.1726 22.9691 24.4157 22.9052 24.6358 22.7999L18.8128 17.0145Z" fill="#1F1F1F"/>
</g>
<defs>
<clipPath id="clip0_1_1457">
<rect width="19.2" height="19.2" fill="white" transform="translate(6.39999 6.6192)"/>
</clipPath>
</defs>
</svg>
