<svg width="28" height="31" viewBox="0 0 28 31" fill="none" xmlns="http://www.w3.org/2000/svg">
<path d="M27.7671 12.1526C27.749 14.3542 27.4431 16.5826 26.6917 18.6628C26.0102 20.729 24.7264 22.5574 24.1804 24.6349C23.7655 26.2499 23.9937 27.9397 24.1305 29.5794C24.2674 30.4399 23.5384 31.0748 22.7008 30.9672C20.1028 30.9913 17.1439 30.9845 14.5274 30.9694C13.5923 30.943 12.2565 31.205 12.0849 29.9313C12.0452 29.2046 12.0189 28.4668 11.9828 27.7403C12.038 27.4481 11.7588 27.5147 11.5776 27.5503C10.3685 27.7386 9.14266 27.9172 7.93691 28.11C7.23092 28.2304 6.46863 28.3831 5.79267 28.0508C3.80189 27.1573 4.50321 25.0253 4.69085 23.3307C4.78757 22.8543 4.03446 22.3453 4.48307 21.9194C3.70566 21.6353 3.64809 20.6563 3.16846 20.1012C2.39197 19.5236 1.22176 18.9935 0.537956 18.3049C-0.638261 16.5615 1.9543 15.3228 2.81797 14.0837C6.90227 10.6785 4.54072 8.32982 7.03445 5.11676C6.8875 5.37879 6.69308 5.66166 6.56874 5.94595C6.72049 5.69946 6.636 5.8616 6.61396 6.01151C6.67549 5.9374 6.7626 5.76311 6.83734 5.66936C6.6497 6.13288 6.3888 6.68302 6.28587 7.22312C5.9464 8.71676 6.10628 10.3133 5.44925 11.7359C4.4616 13.6294 2.73899 15.0332 1.37994 16.6635C0.94079 17.0278 0.814471 17.6464 1.33536 18.0016C1.99966 18.4215 2.79339 18.9187 3.45691 19.3397C4.3978 19.929 4.15442 21.0573 5.32831 21.476C5.49306 20.8516 5.88423 20.3337 6.24433 19.8161C6.77948 18.9805 7.61277 20.824 8.01568 21.1459C8.41067 20.7017 9.09688 19.0078 9.82059 19.5532C10.3076 20.2375 11.106 21.0755 10.8708 21.9684C10.8449 21.9582 10.8253 21.9439 10.7892 21.9521C10.7605 21.9461 10.7563 21.9095 10.715 21.917C10.6316 21.9054 10.604 21.8162 10.5068 21.8084C10.1844 21.4679 9.83931 21.146 9.50826 20.8099C7.93571 23.0393 8.07022 22.9756 6.57284 20.733C6.28205 21.1069 5.92486 21.4639 5.61711 21.78L5.57331 21.825C5.59783 22.0215 5.35727 22.1953 5.24106 22.3218C5.89236 23.4273 5.18644 24.7527 5.24014 25.9497C5.26804 26.7566 6.0138 27.4385 6.82074 27.3886C7.70737 27.2635 10.238 26.8394 11.1601 26.6968C13.4567 26.093 12.8094 28.4857 13.0132 29.8561C13.0449 29.9698 13.1434 30.0329 13.264 30.0236C16.3579 30.0185 19.4529 29.9782 22.5477 29.9793C22.7241 29.9496 23.154 30.0844 23.1537 29.7957C22.9781 27.8176 22.7134 25.7457 23.3589 23.8175C24.6107 20.5065 26.5587 17.4441 26.6529 13.8014C28.5798 3.07037 13.9822 -2.02384 7.10898 5.17271C12.8191 -3.11944 28.583 1.78041 27.7671 12.1526ZM12.5925 11.2359L12.8618 10.9744C11.5782 10.2305 10.5898 9.10102 9.51349 8.10177C9.28084 7.9224 9.07554 7.59565 9.33355 7.34245C10.2151 6.4366 11.0836 5.49635 11.9502 4.57439C12.3536 4.17071 12.7506 4.60887 13.0369 4.91117C14.0224 5.92787 15.1473 6.88331 15.8056 8.15518C17.0337 7.06763 18.1892 5.83666 19.6179 5.04187C16.7687 8.50475 13.5117 11.7199 10.368 14.9276C10.9867 15.5367 11.6947 16.2733 12.313 16.8728C15.4482 13.7851 18.5987 10.6507 21.7862 7.62299C21.066 6.79026 20.2551 6.03391 19.6179 5.13498C19.6961 5.17921 19.7812 5.27607 19.8572 5.33824C19.8406 5.31422 19.7827 5.24463 19.8423 5.28214C19.852 5.28094 19.8617 5.27981 19.8717 5.27861C19.4757 4.79192 20.7061 5.94574 20.839 6.02211C21.2369 6.3485 21.6489 6.69524 22.049 7.03492C22.1933 7.21118 22.8023 7.51115 22.5303 7.80406C21.4058 9.07247 20.1377 10.295 18.9647 11.5157C20.2915 12.2784 21.3206 13.4257 22.4249 14.4622C22.6576 14.6416 22.8629 14.9683 22.6049 15.2215C21.7233 16.1274 20.8548 17.0676 19.9882 17.9896C19.5848 18.3933 19.1879 17.9552 18.9015 17.6528C17.9137 16.6338 16.7863 15.6764 16.1283 14.4003C14.9713 15.5432 13.7909 16.7999 12.649 17.9478C12.1354 18.4114 11.6935 17.5679 11.3259 17.2986C8.051 14.0314 8.47864 15.6701 12.5925 11.2359ZM16.4706 14.0559L16.4401 14.0866C17.5806 14.8858 18.6214 15.8903 19.6077 16.8914C20.2789 16.2461 20.9102 15.5283 21.602 14.9034C20.6172 13.8835 19.6156 12.8387 18.7239 11.7607C18.0386 12.4705 17.1731 13.3559 16.4706 14.0559ZM13.1291 10.7148C13.9045 9.96949 14.7009 9.20882 15.4746 8.46603C14.3482 7.65704 13.3081 6.67066 12.3306 5.6724C11.6594 6.3177 11.0281 7.03548 10.3363 7.66043C11.2863 8.65975 12.286 9.65927 13.1291 10.7148Z" fill="#0293C1"/>
</svg>
