<svg width="30" height="30" viewBox="0 0 30 30" fill="none" xmlns="http://www.w3.org/2000/svg">
<path fill-rule="evenodd" clip-rule="evenodd" d="M15.3709 21.6514C15.2307 21.5359 15.0634 21.4582 14.8847 21.4259C14.7061 21.3935 14.5221 21.4074 14.3504 21.4662C14.1786 21.5252 14.0249 21.6271 13.9037 21.7624C13.7826 21.8976 13.6981 22.0616 13.6584 22.2389C13.1084 23.4889 15.1834 24.2764 15.7084 23.2764C16.1084 22.4889 16.0584 21.9889 15.3709 21.6514Z" fill="black"/>
<path fill-rule="evenodd" clip-rule="evenodd" d="M26.6113 5.77312C22.0728 -0.0156422 15.3088 0.396949 11.708 1.32215C9.82799 1.79846 8.06329 2.64892 6.51937 3.8227C5.384 4.66995 4.3443 5.63838 3.4187 6.71082C2.47927 7.81441 1.71211 9.05369 1.1432 10.3866C-0.0411247 12.984 -0.315122 15.9048 0.36548 18.6772C1.04608 21.4494 2.64152 23.9113 4.89402 25.665C7.10081 27.4292 9.72935 28.5875 12.5204 29.026C15.3114 29.4645 18.1685 29.1679 20.81 28.1655C23.3283 27.1367 25.5193 25.4425 27.1489 23.2644C28.8415 21.1129 29.8361 18.4954 29.9995 15.7628C29.9915 12.1522 28.8015 8.64356 26.6113 5.77312ZM26.0361 22.3768C24.542 24.3118 22.5558 25.81 20.2849 26.7152C17.8931 27.6098 15.3111 27.8727 12.7883 27.4785C10.2653 27.0843 7.88656 26.0463 5.88174 24.4647C3.84791 22.9228 2.39019 20.7432 1.7419 18.2747C1.0936 15.8062 1.29221 13.1915 2.30595 10.8492C2.79772 9.63289 3.47231 8.49874 4.30639 7.486C5.15371 6.434 6.11382 5.47809 7.16952 4.63537C8.5887 3.51957 10.2169 2.69912 11.9581 2.22235C14.046 1.63472 21.135 0.321933 25.711 6.44828C27.7266 9.11852 28.8035 12.3799 28.7743 15.7253C28.549 18.1668 27.5951 20.4843 26.0361 22.3768Z" fill="black"/>
<path fill-rule="evenodd" clip-rule="evenodd" d="M15.8962 6.67352C15.2011 6.47881 14.4686 6.45912 13.764 6.61618C13.0593 6.77324 12.4045 7.10219 11.8579 7.57371C11.3129 8.09277 10.9269 8.75627 10.7451 9.48663C10.5023 10.4961 10.5238 11.5511 10.8076 12.5498C10.8309 12.6543 10.8946 12.7452 10.9849 12.8027C11.0752 12.8602 11.1846 12.8793 11.289 12.8562C11.3935 12.8329 11.4844 12.7692 11.5419 12.6789C11.5993 12.5887 11.6185 12.4792 11.5953 12.3748C11.4518 11.6525 11.4518 10.9091 11.5953 10.1868C11.7247 9.52328 12.0886 8.92856 12.6206 8.51142C13.0276 8.22336 13.4981 8.03772 13.9922 7.97024C14.4862 7.90277 14.9893 7.95546 15.4587 8.12383C15.9391 8.24847 16.3847 8.48104 16.7617 8.80386C17.1387 9.12668 17.4371 9.53123 17.6341 9.98674C17.7981 10.3146 17.874 10.6795 17.8542 11.0456C17.8346 11.4117 17.72 11.7663 17.5216 12.0747C16.7465 13.2124 15.3211 14.1127 14.546 15.3379C14.1637 15.9247 13.9676 16.6133 13.9833 17.3133C13.9753 17.9635 14.0943 18.609 14.3335 19.2138C14.3708 19.3292 14.452 19.4254 14.5596 19.4815C14.6672 19.5377 14.7925 19.5493 14.9086 19.5138C15.0272 19.4763 15.1265 19.3938 15.185 19.2839C15.2433 19.174 15.2563 19.0455 15.2211 18.9262C15.0628 18.4168 14.9952 17.8837 15.0211 17.3509C15.0587 16.8629 15.232 16.3953 15.5212 16.0005C16.1757 15.2572 16.9047 14.5827 17.6967 13.9877C18.329 13.4942 18.8382 12.8608 19.1845 12.1372C19.364 11.7053 19.4565 11.2422 19.4565 10.7744C19.4565 10.3067 19.364 9.84353 19.1845 9.41162C18.8938 8.72648 18.4438 8.12061 17.872 7.64438C17.3001 7.16814 16.6227 6.83529 15.8962 6.67352Z" fill="black"/>
</svg>
