<svg width="32" height="32" viewBox="0 0 32 32" fill="none" xmlns="http://www.w3.org/2000/svg">
<path fill-rule="evenodd" clip-rule="evenodd" d="M6.33046 17.0407C6.47128 16.9354 6.75197 16.6662 7.0365 16.0517C7.48857 15.0753 7.91739 13.3003 7.85495 10.11C7.80006 7.303 8.60318 5.62558 9.66481 4.62375C11.2666 3.11244 13.4858 3.13186 14.3995 3.19633C15.4728 3.27196 17.4482 3.65764 18.9303 5.2055C19.9149 6.23394 20.6872 7.77593 20.8202 10.0908C20.954 12.4196 20.3747 13.9542 19.4497 14.9484C18.0636 16.4381 15.8742 16.7217 14.0156 16.5927C11.9537 16.4497 9.53717 16.6619 7.92962 17.029C7.36405 17.1582 6.90154 17.3033 6.60012 17.4619C6.4859 17.5429 6.41531 17.5666 6.41531 17.5666C6.2963 17.612 6.16219 17.5607 6.10406 17.4474C6.04581 17.3341 6.08225 17.1952 6.18855 17.125C6.23134 17.0967 6.2788 17.0686 6.33046 17.0407ZM7.269 16.6828C7.43967 16.6337 7.6234 16.5867 7.8184 16.5421C9.46454 16.1663 11.9388 15.9482 14.0501 16.0946C15.7684 16.2137 17.8026 15.9854 19.0841 14.6082C19.9375 13.6911 20.4451 12.2678 20.3216 10.1195C20.1974 7.95714 19.4893 6.51151 18.5696 5.55091C17.195 4.11535 15.3597 3.76466 14.3644 3.69443C13.5247 3.63523 11.4795 3.59807 10.0075 4.98702C9.0199 5.91885 8.30307 7.48913 8.35425 10.1002C8.41897 13.4096 7.95862 15.2487 7.48965 16.2616C7.4163 16.4199 7.34223 16.5596 7.269 16.6828Z" fill="#FF0039"/>
<path fill-rule="evenodd" clip-rule="evenodd" d="M20.6855 24.1434C20.8125 24.1973 20.8717 24.344 20.8177 24.4708C20.7638 24.5976 20.6171 24.6568 20.4903 24.603C20.0902 24.4025 19.7228 24.249 19.3068 24.1258C18.9362 24.0161 18.5329 23.929 18.0404 23.8519C17.9938 23.8476 17.9594 23.8063 17.9637 23.7598C17.9681 23.7131 18.0094 23.6789 18.056 23.6832C18.5678 23.6983 18.9898 23.7357 19.3815 23.7998C19.8339 23.8738 20.2396 23.9861 20.6855 24.1434Z" fill="#FF0039"/>
<path fill-rule="evenodd" clip-rule="evenodd" d="M20.2907 18.8265C20.4249 18.8577 20.5084 18.9921 20.477 19.1263C20.4457 19.2605 20.3114 19.3441 20.1772 19.3128C19.5766 19.1304 19.2077 19.0334 18.7297 18.8626C18.4662 18.7686 18.1722 18.6537 17.7883 18.4894C17.7442 18.4739 17.721 18.4254 17.7365 18.3813C17.7521 18.3372 17.8005 18.314 17.8446 18.3296C18.2407 18.4404 18.5426 18.5148 18.8123 18.5727C19.3033 18.6783 19.6779 18.7253 20.2907 18.8265Z" fill="#FF0039"/>
<path fill-rule="evenodd" clip-rule="evenodd" d="M21.9443 16.9213C22.0802 16.8985 22.2092 16.9903 22.2319 17.1262C22.2547 17.2621 22.1629 17.3909 22.027 17.4137C21.4865 17.4662 21.0786 17.4371 20.7513 17.2633C20.4288 17.092 20.1776 16.7922 19.9737 16.2795C19.9535 16.2373 19.9712 16.1866 20.0134 16.1663C20.0556 16.1461 20.1063 16.1639 20.1265 16.206C20.3593 16.615 20.5947 16.8511 20.8872 16.9577C21.174 17.0621 21.5095 17.0258 21.9443 16.9213Z" fill="#FF0039"/>
<path fill-rule="evenodd" clip-rule="evenodd" d="M17.8042 3.5917C17.6757 3.54184 17.6119 3.39706 17.6617 3.26858C17.7115 3.1401 17.8562 3.07622 17.9847 3.12608C18.2106 3.23419 18.594 3.3357 18.9669 3.67607C19.1939 3.88329 19.4197 4.17177 19.5974 4.60899C19.6183 4.65093 19.6013 4.70187 19.5593 4.72272C19.5175 4.74358 19.4665 4.72656 19.4457 4.68473C19.2279 4.32063 18.991 4.09255 18.761 3.93962C18.3808 3.68674 18.021 3.65714 17.8042 3.5917Z" fill="#FF0039"/>
<path fill-rule="evenodd" clip-rule="evenodd" d="M12.2035 23.9736C12.0898 24.0514 11.9344 24.0224 11.8565 23.9087C11.7786 23.795 11.8076 23.6394 11.9213 23.5615C12.1174 23.4374 12.5836 23.0814 13.7285 22.9493C14.3902 22.873 15.2849 22.87 16.5001 23.0383C16.5466 23.0429 16.5806 23.0845 16.5758 23.1311C16.5711 23.1777 16.5294 23.2116 16.4829 23.2069C15.2904 23.1288 14.4213 23.192 13.7838 23.3126C12.7672 23.505 12.3711 23.8495 12.2035 23.9736Z" fill="#FF0039"/>
<path fill-rule="evenodd" clip-rule="evenodd" d="M23.9092 29.6112C23.8975 29.7102 23.8203 29.8466 23.6064 29.9283C23.3857 30.0126 22.9375 30.0813 22.3312 30.1269C19.7011 30.3244 13.9503 30.1591 11.5019 29.8257C11.053 29.7646 10.7105 29.6962 10.5096 29.6253C10.3792 29.5793 10.2928 29.5238 10.2457 29.4756C10.1476 29.3752 10.0645 29.2153 10.0115 29.0028C9.94718 28.7447 9.92165 28.3976 9.93879 28.0006C9.97738 27.1106 10.2287 25.9609 10.687 25.0316C10.978 24.4413 11.3545 23.9405 11.8053 23.6345C11.793 23.3189 11.7871 22.5717 11.9626 21.9368C12.1391 21.2975 12.505 20.7856 13.1351 20.7594C14.19 20.7153 18.2451 21.8173 19.9442 22.5098C20.26 22.6385 20.4983 22.7559 20.6305 22.8485C20.7297 22.918 20.7863 22.9883 20.8126 23.0419C21.0019 23.431 20.9283 23.9795 20.8704 24.262C21.2349 24.5153 22.1924 25.2357 22.9385 26.2843C23.5791 27.1843 24.0611 28.3227 23.9092 29.6112ZM10.5965 29.1198C10.6108 29.1261 10.6875 29.1599 10.752 29.1785C10.9397 29.2328 11.2191 29.2833 11.5693 29.331C13.9939 29.661 19.6892 29.8245 22.2938 29.6289C22.7944 29.5913 23.2788 29.4873 23.4236 29.4544C23.5242 28.3399 23.0895 27.3576 22.5316 26.5738C21.6504 25.3354 20.4553 24.5847 20.4553 24.5847C20.3595 24.5245 20.316 24.4075 20.3495 24.2994C20.3495 24.2994 20.4235 24.0582 20.4385 23.7733C20.447 23.6103 20.4389 23.4307 20.3733 23.2816C20.3309 23.2565 20.0533 23.0935 19.7557 22.9722C18.1078 22.3006 14.1791 21.2156 13.1559 21.2583C12.7465 21.2754 12.5586 21.6544 12.4439 22.0698C12.2362 22.8217 12.3113 23.7476 12.3113 23.7476C12.319 23.8439 12.2706 23.9358 12.1871 23.9839C11.8177 24.1966 11.5113 24.569 11.2604 25.0142C10.8628 25.7195 10.6083 26.6075 10.4969 27.3955C10.4241 27.9119 10.4121 28.3849 10.4664 28.7322C10.4935 28.9061 10.5285 29.044 10.5965 29.1198Z" fill="#FF0039"/>
<path fill-rule="evenodd" clip-rule="evenodd" d="M15.4328 3.36853C16.5108 3.08149 17.4694 3.08976 17.7956 3.10342C18.1232 2.78965 18.6348 2.50237 19.2494 2.27646C20.2172 1.9205 21.4427 1.70992 22.5597 1.75355C23.8616 1.80449 25.0101 2.21389 25.5047 3.08005C26.1878 4.2764 25.8528 5.31598 25.2859 6.10243C24.7533 6.84107 24.0108 7.34516 23.802 7.51966C23.4319 7.82912 22.9461 7.88017 22.375 7.79292C21.6416 7.68086 20.751 7.33929 19.8116 7.2301C19.7257 7.22016 19.6511 7.16634 19.6143 7.08808C18.6245 4.97584 16.809 4.15966 15.4424 3.85345C15.3302 3.82828 15.2496 3.72976 15.2474 3.6147C15.2451 3.49977 15.3217 3.39813 15.4328 3.36853ZM16.5455 3.66049C17.7947 4.12718 19.1569 5.03013 20.0064 6.75166C20.9015 6.87667 21.7478 7.19187 22.4505 7.29926C22.8608 7.36194 23.2157 7.35894 23.4817 7.13662C23.6779 6.97267 24.3804 6.50441 24.8808 5.81036C25.3467 5.16413 25.6323 4.31067 25.071 3.32754C24.65 2.59022 23.6485 2.29587 22.5401 2.25261C21.4878 2.21138 20.3336 2.40973 19.4217 2.74507C18.839 2.95936 18.3563 3.22627 18.0781 3.52805C18.026 3.58462 17.9507 3.6141 17.874 3.60775C17.874 3.60775 17.3192 3.56257 16.5455 3.66049Z" fill="#FF0039"/>
<path fill-rule="evenodd" clip-rule="evenodd" d="M19.8691 6.73409C20.8149 6.84399 21.7118 7.1864 22.4503 7.2993C22.8607 7.36198 23.2156 7.35899 23.4815 7.13666C23.5442 7.08429 23.6285 7.06583 23.7072 7.08729C23.786 7.10862 23.8494 7.16723 23.8768 7.24405C24.0525 7.73448 24.2383 8.51242 24.3321 9.72579C24.5198 12.1514 25.4006 12.3889 25.4006 12.3889C25.505 12.4108 25.5839 12.4966 25.597 12.6026C25.6102 12.7085 25.5545 12.811 25.4586 12.8577C24.8518 13.1531 24.6502 13.497 24.5405 14.1127C24.4576 14.579 24.4227 15.1834 24.3314 16.0025C24.1931 17.2417 23.7599 18.0306 23.2333 18.533C22.2385 19.4818 20.8853 19.413 20.3797 19.3466C19.9418 20.3952 20.137 22.1131 20.2245 22.7606C20.2366 22.8496 20.1999 22.9382 20.1285 22.9926C20.0571 23.047 19.9619 23.0589 19.8792 23.0238C18.3154 22.3575 14.2056 21.2145 13.1558 21.2584C13.1092 21.2603 13.0652 21.2669 13.0239 21.278C12.9124 21.3081 12.795 21.2578 12.7397 21.1565C12.6845 21.0551 12.7058 20.9291 12.7915 20.8517C13.1423 20.5345 13.5911 19.983 13.7297 18.3878C13.7747 17.8682 13.5473 17.1446 13.2645 16.4036C13.2346 16.3252 13.2461 16.237 13.2951 16.1689C13.344 16.1007 13.4239 16.0618 13.5078 16.0651C13.6906 16.0725 13.8717 16.0822 14.05 16.0946C15.7683 16.2138 17.8026 15.9854 19.084 14.6082C19.9374 13.6912 20.445 12.2678 20.3216 10.1195C20.2511 8.89307 19.9932 7.89663 19.6142 7.08812C19.5759 7.00603 19.5848 6.90967 19.6377 6.8362C19.6907 6.76273 19.7792 6.72366 19.8691 6.73409ZM13.5286 20.7783C14.8876 20.9203 18.0451 21.7848 19.6801 22.4061C19.5877 21.4906 19.5217 19.8946 20.0124 18.9541C20.0648 18.8535 20.1786 18.801 20.2892 18.8263C20.2892 18.8263 21.829 19.1822 22.8886 18.1716C23.3502 17.7313 23.7138 17.0331 23.8351 15.9471C23.928 15.1141 23.9645 14.4994 24.0489 14.0252C24.1643 13.3767 24.3626 12.9645 24.8568 12.6275C24.4774 12.2936 23.9704 11.5234 23.8343 9.76426C23.7621 8.83207 23.6352 8.17061 23.5011 7.70619C23.1819 7.84606 22.8022 7.85828 22.3748 7.79296C21.7557 7.69828 21.0246 7.44024 20.2467 7.29642C20.5505 8.07269 20.7571 8.99494 20.8201 10.0909C20.9539 12.4197 20.3747 13.9542 19.4497 14.9484C18.0635 16.4381 15.8742 16.7217 14.0155 16.5927C13.9646 16.5892 13.9135 16.5859 13.8624 16.583C14.1065 17.2777 14.27 17.9385 14.2272 18.431C14.1191 19.6768 13.8289 20.3572 13.5286 20.7783Z" fill="#FF0039"/>
<path fill-rule="evenodd" clip-rule="evenodd" d="M11.47 8.05997C11.7309 7.54545 12.1707 7.22353 12.625 7.04819C13.1555 6.84325 13.7081 6.84552 14.0272 6.96657C14.2253 7.04184 14.3483 7.16541 14.3908 7.30084C14.4258 7.41206 14.4186 7.54042 14.3333 7.67824C14.2337 7.8392 13.9964 8.03827 13.552 8.23591C12.8268 8.55699 12.2192 8.64819 11.7803 8.57257C11.7178 8.79932 11.6934 9.06143 11.7197 9.36226C11.7747 10.0085 11.9128 10.4233 12.1084 10.6556C12.1984 10.3521 12.3668 10.0659 12.5794 9.81146C12.936 9.38467 13.4162 9.04873 13.8259 8.86692C14.1275 8.73317 14.3989 8.6869 14.5759 8.71974C14.7491 8.75198 14.8633 8.84714 14.9195 8.98653C14.9643 9.09811 14.9707 9.26087 14.8819 9.47636C14.6141 10.1231 13.9971 10.8395 13.3575 11.1783C13.0749 11.328 12.7871 11.4044 12.5189 11.388C12.571 11.6377 12.7089 11.8937 12.9602 12.1469C13.1367 12.3248 13.3087 12.4623 13.4757 12.5644C13.5266 12.4672 13.5863 12.3711 13.6534 12.2769C14.3099 11.3542 15.684 10.6012 16.2774 10.4667C16.6655 10.3787 16.8185 10.5644 16.7593 10.7806C16.6885 11.0394 16.4205 11.6444 15.9955 12.1829C15.6521 12.6181 15.2057 13.0055 14.6876 13.1537C14.3534 13.2494 13.9865 13.2503 13.5946 13.0991C13.5713 13.2065 13.5638 13.3148 13.575 13.4236C13.6052 13.7153 13.7709 14.0049 14.1137 14.2839C14.1726 14.3309 14.1822 14.4168 14.1352 14.4757C14.0881 14.5344 14.0022 14.544 13.9434 14.497C13.5216 14.1656 13.3269 13.8095 13.2843 13.4562C13.2647 13.2936 13.2778 13.1305 13.3183 12.9689C13.1023 12.8486 12.8798 12.6808 12.6517 12.4568C12.2418 12.0539 12.0655 11.6383 12.0399 11.2406C11.6458 11.0018 11.3209 10.4492 11.2382 9.40181C11.2093 9.0226 11.246 8.69373 11.3306 8.41029C11.0306 8.2262 10.8803 7.91699 10.9141 7.51669C10.9656 6.90377 11.5018 6.02958 12.7212 5.08756C12.7803 5.04082 12.8661 5.05077 12.9128 5.10985C12.9596 5.16882 12.9496 5.25475 12.8907 5.30149C11.7954 6.19066 11.2922 6.97964 11.2577 7.54173C11.2439 7.76621 11.3202 7.94323 11.47 8.05997ZM13.7489 12.7025C14.0433 12.8198 14.3202 12.8282 14.5773 12.7583C15.0189 12.6384 15.3948 12.3047 15.6917 11.9396C16.0164 11.5404 16.2473 11.1003 16.3557 10.8279C16.2713 10.8449 16.1567 10.8724 16.0512 10.9129C15.4194 11.1551 14.4293 11.7487 13.9059 12.4597C13.8473 12.5392 13.7945 12.6204 13.7489 12.7025ZM12.5226 10.8881C12.6105 10.8979 12.7032 10.8899 12.7999 10.8659C13.4497 10.7046 14.152 9.94965 14.4285 9.28771C14.44 9.26051 14.4564 9.22719 14.4662 9.20154C14.4115 9.2037 14.2876 9.21173 14.1927 9.24205C13.6998 9.39941 12.9988 9.88277 12.6676 10.5024C12.6016 10.6258 12.5516 10.7549 12.5226 10.8881ZM14.4723 9.18296C14.4763 9.1675 14.4749 9.15827 14.463 9.16091C14.4535 9.16307 14.4618 9.17338 14.4723 9.18296ZM11.9232 8.21625C12.299 8.24957 12.7966 8.13955 13.383 7.86485C13.6232 7.75279 13.7898 7.64804 13.8942 7.5506C13.9438 7.50434 13.9772 7.46635 13.9849 7.42788C13.9859 7.42332 13.9774 7.42524 13.9738 7.42212C13.9623 7.41206 13.9481 7.40355 13.9325 7.3954C13.8695 7.3622 13.7851 7.34194 13.6879 7.33044C13.3243 7.28741 12.7991 7.38773 12.3787 7.69694C12.1993 7.8289 12.0408 8.00028 11.9232 8.21625Z" fill="#FF0039"/>
</svg>
