<svg width="28" height="32" viewBox="0 0 28 32" fill="none" xmlns="http://www.w3.org/2000/svg">
<path d="M22.815 9.66036L22.6338 4.16602L23.1772 4.22639C23.4188 4.22639 23.6603 4.16602 23.9018 4.10564C24.3848 3.86413 24.6867 3.44149 24.8074 2.89809C24.8678 2.3547 24.6867 1.8113 24.264 1.44904C24.0829 1.2679 23.8414 1.14715 23.5395 1.02639C23.4188 0.966017 23.2376 0.966017 23.1169 0.966017H22.815L20.5206 0.90564L18.2263 0.966017H17.6225C17.3206 0.966017 17.0791 1.08677 16.8376 1.20753C16.3546 1.50941 16.0527 1.99243 16.0527 2.53583C15.9923 3.07922 16.2338 3.62262 16.6565 3.92451C16.8376 4.10564 17.0791 4.16602 17.3206 4.22639H17.6829H17.9848H18.1659L18.1055 9.66036H16.5961C15.932 9.66036 15.2074 9.90187 14.7244 10.3849C14.2414 10.8679 13.9395 11.5924 13.8791 12.2566C13.7584 24.5736 13.7584 20.3471 13.7584 21.2528C13.7584 21.4339 13.698 26.9887 13.698 26.6264V27.5321V28.4981C13.7584 29.2226 14.181 29.9472 14.7848 30.4302C15.0867 30.6717 15.4489 30.8528 15.8112 30.9736C16.1735 31.0943 16.5961 31.0943 16.8376 31.0943H20.4603H24.0829C24.3244 31.0943 24.8074 31.0943 25.1093 30.9736C25.4716 30.8528 25.8338 30.6717 26.1357 30.4302C26.7395 29.9472 27.1018 29.283 27.2225 28.4981C27.2829 28.0755 27.2225 27.8339 27.2225 27.5321C27.2225 27.4113 27.2225 24.6943 27.2225 24.8151V21.1924C27.2225 20.2868 27.2829 24.5132 27.1018 12.1962C27.1018 11.4717 26.7999 10.8075 26.2565 10.3245C25.7735 9.84149 25.0489 9.5396 24.3848 9.59998L22.815 9.66036ZM17.8037 3.56224C17.7433 3.56224 17.6829 3.56224 17.6225 3.50187C17.5018 3.44149 17.381 3.38111 17.3206 3.26036C17.1395 3.07922 17.0791 2.83772 17.1395 2.59621C17.1395 2.41507 17.3206 2.23394 17.5018 2.11319C17.6225 2.05281 17.6829 2.05281 17.8037 2.05281H18.3471L20.6414 2.11319L22.9357 2.05281H23.3584C23.4791 2.05281 23.5395 2.11319 23.6603 2.17356C23.8414 2.29432 23.9621 2.53583 23.9621 2.71696C23.9621 2.95847 23.8414 3.19998 23.6603 3.32073C23.5395 3.38111 23.4188 3.44149 23.298 3.44149L22.7546 3.50187C22.0301 3.56224 21.3055 3.683 20.581 3.80375H20.3395C19.615 3.683 18.9508 3.62262 18.2263 3.50187L17.8037 3.56224ZM26.0754 24.8151C25.2301 24.6339 24.3848 24.5132 23.5395 24.4528C21.3659 24.2717 19.3735 24.2717 17.381 24.4528C16.5357 24.5132 15.6905 24.6339 14.8452 24.8151V21.2528L14.7848 16.5434C15.6301 16.7245 16.5357 16.8453 17.381 16.9056C19.5546 17.0868 21.5471 17.0868 23.5395 16.9056C24.3848 16.8453 25.2905 16.7245 26.1357 16.5434L26.0754 21.2528V24.8151ZM26.0754 27.5924V28.4377C26.015 29.1019 25.532 29.7056 24.8074 29.8868C24.5659 29.9471 24.3848 29.9471 24.0829 29.9471H20.4603H16.8376C16.4754 29.9471 16.3546 29.9471 16.1131 29.8868C15.4489 29.7056 14.9659 29.1019 14.9055 28.4377C14.9055 28.2566 14.9055 27.8943 14.9055 27.5924C14.9055 27.5321 14.9055 24.9962 14.9055 25.0566C15.7508 25.2377 16.5961 25.3585 17.4414 25.4188C19.4338 25.6 21.4263 25.6 23.5999 25.4188C24.4452 25.3585 25.2905 25.2377 26.1357 25.0566V26.6868L26.0754 27.5924ZM26.1961 12.2566V14.0679V16.3019C25.3508 16.1207 24.4452 16 23.5999 15.9396C21.6074 15.7585 19.615 15.7585 17.4414 15.9396C16.5961 16 15.6905 16.1207 14.8452 16.3019V14.0679V12.2566C14.8452 11.7736 15.0263 11.2905 15.3886 10.9283C15.7508 10.566 16.2338 10.3245 16.7169 10.3245C16.7772 10.3245 18.6489 10.2641 18.5282 10.2641C18.7093 10.2641 18.8301 10.1434 18.8301 9.96224L18.5282 4.10564C19.132 4.04526 19.6754 3.98488 20.2791 3.86413H20.3999C21.064 3.98488 21.7886 4.04526 22.4527 4.10564C22.4527 4.16602 22.2716 10.0226 22.2716 9.96224C22.2716 10.1434 22.3923 10.2641 22.5735 10.2641C23.0565 10.2641 24.5055 10.3245 24.3848 10.3245C24.9282 10.3245 25.4112 10.566 25.7131 10.9283C26.015 11.2905 26.2565 11.7736 26.1961 12.2566Z" fill="#0293C1"/>
<path d="M1.68297 19.8641C2.22637 20.8905 2.9509 21.7962 3.85656 22.4603C4.76222 23.1245 5.90939 23.4264 7.05656 23.366C5.96976 23.2452 4.94335 22.8226 4.15844 22.0981C3.37354 21.4339 2.76976 20.5283 2.4075 19.5622C2.04524 18.5962 1.80373 17.5698 1.80373 16.5433C1.80373 15.6377 1.92448 14.732 2.22637 13.8867C3.85656 13.8867 5.42637 13.8867 7.05656 13.9471C8.68674 13.9471 10.3169 13.9471 11.8867 13.8867C12.1886 14.732 12.3094 15.6377 12.3094 16.5433C12.3094 17.5698 12.1283 18.5962 11.7056 19.5622C11.283 20.5283 10.7396 21.4339 9.89429 22.0981C9.10939 22.8226 8.08297 23.2452 6.99618 23.366C8.08297 23.4264 9.23014 23.1245 10.1962 22.4603C11.1622 21.8566 11.8867 20.8905 12.3698 19.8641C12.9132 18.8377 13.1547 17.6905 13.215 16.5433C13.2754 15.3962 13.0943 14.1886 12.732 13.1018C12.6717 12.9207 12.4905 12.7396 12.249 12.7396C10.4981 12.6792 8.74712 12.7396 6.99618 12.6792C5.24523 12.6792 3.49429 12.6792 1.74335 12.7396C1.50184 12.7396 1.32071 12.8603 1.26033 13.1018C0.898065 14.1886 0.716933 15.3962 0.777311 16.5433C0.898065 17.6905 1.13957 18.8377 1.68297 19.8641Z" fill="#0293C1"/>
<path d="M6.87548 29.8868C6.2717 29.8868 5.72831 29.9472 5.12453 30.0075C4.46038 30.1283 3.79623 30.249 3.13208 30.4906C5.24529 31.2755 8.92831 31.2755 10.9811 30.4906C10.317 30.249 9.65284 30.1283 8.98868 30.0075C8.38491 29.9472 7.84151 29.8868 7.23774 29.8868C7.66038 28.4377 7.72076 26.6868 7.47925 25.117C7.3585 24.5132 7.23774 23.9094 6.99623 23.366C6.75472 23.9698 6.63397 24.5736 6.51321 25.117C6.33208 26.6264 6.39246 28.4377 6.87548 29.8868Z" fill="#0293C1"/>
</svg>
