<svg width="32" height="32" viewBox="0 0 32 32" fill="none" xmlns="http://www.w3.org/2000/svg">
<path d="M30.954 10.8159C30.8485 9.34188 30.4501 7.63329 29.4836 6.54827C28.7078 5.67254 27.9065 5.60246 26.7637 5.54473C20.5472 5.27503 16.722 5.66792 10.8297 5.72248C7.4271 5.76562 5.23543 5.61305 4.09821 5.56281C3.4556 5.51812 2.97606 5.55264 2.66559 5.65163C2.35303 5.74892 2.21048 5.86571 2.14614 5.93395C2.08265 6.00661 2.09141 6.03857 2.10878 6.06626C2.12615 6.09401 2.1541 6.11482 2.23891 6.10106C2.325 6.09094 2.46752 6.0438 2.74028 6.01321C3.01498 5.98165 3.41949 5.9978 4.04706 6.09071C5.8978 6.31973 7.82383 6.48686 10.8297 6.50898C16.3666 6.56873 20.4709 6.18375 26.7137 6.47708C27.1387 6.49733 27.5487 6.51677 27.8982 6.61076C28.0747 6.65728 28.2271 6.72392 28.3719 6.81552C28.4812 6.8866 28.5844 6.97706 28.6838 7.07668C27.7621 8.05843 25.2945 11.2771 21.9563 14.5958C21.947 14.5655 21.9377 14.5329 21.9283 14.5026C21.8911 14.3955 21.8515 14.286 21.8119 14.1742C21.2027 12.7525 19.8059 12.0232 18.0249 12.8699C17.3703 13.1871 17.0275 13.4984 16.5692 14.0484C16.49 14.1462 16.4272 14.2487 16.3806 14.3326C16.2944 14.5002 16.2222 14.612 16.2129 14.612H16.2012C16.1896 14.6144 16.164 14.6098 16.1407 14.6098C16.1221 14.6074 16.1011 14.6004 16.0778 14.5934C16.0335 14.5795 15.9823 14.5515 15.9334 14.5142C15.8519 14.449 15.7681 14.3838 15.6842 14.3186C14.7715 13.604 13.8029 13.0319 12.6704 13.3264C12.356 13.4056 12.0463 13.5803 11.8064 13.8109C11.5665 14.0438 11.3895 14.3256 11.2707 14.6214C11.2544 14.6609 11.2404 14.6982 11.2264 14.7378C5.49685 10.4966 2.16709 6.55263 2.01743 6.68866C1.91107 6.77918 5.37784 11.1977 11.0727 15.6089C11.0704 15.6671 11.0727 15.723 11.0727 15.7812C11.2991 18.2799 13.8204 20.4828 15.8915 21.8717C15.9893 21.9392 16.0871 21.9998 16.185 22.0627C16.2921 22.1255 16.3573 22.1837 16.5133 22.2606C16.7998 22.384 17.1282 22.3538 17.3727 22.2047C17.4403 22.1628 17.4799 22.1278 17.5218 22.0976C18.3019 21.3878 18.8447 20.9946 19.6412 19.6917C19.8392 19.3656 19.9254 19.1723 19.8998 19.156C19.9533 19.191 20.0139 19.2142 20.1699 19.0768C20.2491 19.0093 20.3516 18.8998 20.4913 18.7321C20.954 18.1658 21.4718 17.4639 21.7793 16.7967C21.8957 16.5242 22.0052 16.2051 22.0541 15.8348L22.2893 15.5996C24.4354 13.4439 27.5839 9.89422 29.0186 7.48785C29.6723 8.46527 29.9263 9.70669 30.0092 10.8841C30.0833 11.9075 30.0634 11.9142 29.8881 21.7922C29.876 22.5093 29.8638 23.2398 29.8513 23.9817C29.8431 24.3373 29.8035 24.6095 29.6593 24.7871C29.5234 24.9753 29.2678 25.1136 28.952 25.1953C28.6355 25.2778 28.28 25.3068 27.9038 25.3218C19.4218 25.6714 12.1641 25.8239 5.12646 25.8574C3.55697 25.8712 2.52383 25.7761 1.94462 23.9614C1.39486 22.2628 1.53419 20.2909 1.61813 12.814C1.63584 10.795 1.64335 9.16087 1.63823 8.03133C1.6357 7.46652 1.62998 7.0279 1.62083 6.73034C1.61167 6.43279 1.59905 6.27636 1.58267 6.27602C1.56633 6.27562 1.5466 6.43131 1.52388 6.72813C1.50114 7.02494 1.47543 7.46289 1.44712 8.02695C1.39048 9.15513 1.32344 10.7879 1.24901 12.8056C1.00184 20.0836 0.794248 22.2486 1.36953 24.1438C2.01483 26.2426 3.26201 26.5097 5.12518 26.528C12.0666 26.5918 19.3684 26.5158 27.9388 26.2198C29.1691 26.1757 30.4415 25.9136 30.7002 24.65C30.7513 24.4191 30.763 24.2044 30.7696 24.0083C30.7857 23.2634 30.8016 22.5299 30.8172 21.8098C30.8752 18.9354 30.9289 16.2747 30.9759 13.9473C30.9942 12.8894 31.0288 11.8459 30.954 10.8159ZM20.0418 18.448C19.9487 18.6389 19.8928 18.774 19.8625 18.8742C19.8043 19.0652 19.8415 19.1164 19.8951 19.1537C19.8555 19.1537 19.7157 19.3097 19.4852 19.5799C18.4002 20.8404 18.0758 21.0794 17.3658 21.6224L17.24 21.7063C17.1981 21.7342 17.1561 21.7645 17.1305 21.7761C17.0094 21.839 16.8557 21.8414 16.7346 21.7785C16.6927 21.7552 16.5809 21.669 16.4947 21.6085C16.4039 21.5432 16.3107 21.478 16.2199 21.4082C14.5147 20.1505 11.489 17.3586 11.9717 15.2828C11.9973 15.1687 12.0346 15.0592 12.0788 14.9545C12.2489 14.5561 12.54 14.2837 12.8963 14.2022C13.6929 14.0081 14.4552 14.5467 15.0996 15.0569C15.9605 15.7591 16.6545 15.7678 17.212 14.7914C17.247 14.7262 17.2749 14.6819 17.3029 14.6493C19.501 12.0511 21.9422 14.1552 21.0503 16.4962C20.7806 17.2009 20.3956 17.7319 20.0418 18.448Z" fill="#FF0039"/>
</svg>
