<svg width="31" height="29" viewBox="0 0 31 29" fill="none" xmlns="http://www.w3.org/2000/svg">
<path d="M20.9714 15.4166C21.3547 16.5746 20.5781 18.0299 19.2021 17.9452C17.9141 17.9699 17.1754 16.5439 17.5521 15.4212C17.5761 15.2486 18.1227 14.9752 18.2181 15.3932C18.4101 15.8866 18.5281 16.4726 19.0747 16.6026C19.2201 16.6286 19.4574 16.6139 19.5901 16.5626C19.9974 16.3466 20.1101 15.9266 20.3047 15.3972C20.4481 14.9812 20.9314 15.2132 20.9714 15.4166ZM13.3281 20.0412C11.2607 18.2119 14.0601 15.3019 15.9861 17.2572C16.4314 17.7819 16.5814 18.5686 16.2647 19.1926C16.1414 19.4246 15.9067 19.8312 15.6234 19.7399C15.5401 20.1186 14.7347 20.3772 14.4054 20.3766C14.1034 20.4126 13.5887 20.2486 13.3281 20.0412ZM14.2281 19.2839C14.4487 19.4512 14.8874 19.4626 15.1681 19.3326C15.2041 19.3132 15.2674 19.3172 15.3381 19.3386C15.8614 18.4732 14.7927 17.3639 14.0394 18.2166C13.7921 18.5272 13.8821 19.0746 14.2281 19.2839ZM29.2674 16.0639C29.2461 17.4972 27.8841 19.0312 26.4227 18.8166C23.8127 31.7079 5.24142 31.5352 2.27008 18.7799C-0.682584 18.2619 -0.785918 13.8012 2.14408 13.1112C4.19408 4.83523 14.5281 0.541229 21.6187 5.50056C22.6234 5.4139 23.6287 5.34656 24.6334 5.31056C25.1667 5.27323 25.4741 5.97256 25.1007 6.3419C24.7014 6.76256 24.2914 7.17256 23.8847 7.5859C25.2114 9.13656 26.1241 11.0426 26.5934 13.0352C28.0881 13.0479 29.3781 14.5626 29.2674 16.0639ZM2.00342 17.5932C1.80075 16.5106 1.77008 15.4286 1.90208 14.3732C1.08342 15.2692 1.12742 16.7512 2.00342 17.5932ZM23.1694 8.31789C22.8047 8.67989 22.4307 9.03189 22.0601 9.38789C22.7561 9.42723 23.4521 9.48189 24.1481 9.54989C23.8487 9.11456 23.5207 8.70389 23.1694 8.31789ZM22.8361 6.47656C22.8934 6.52856 22.9474 6.58456 23.0034 6.63789C23.0541 6.58856 23.1054 6.53923 23.1567 6.49056C23.0501 6.48523 22.9427 6.48256 22.8361 6.47656ZM3.21142 16.6132C4.30142 13.0392 8.68075 12.8666 12.0454 12.2019C14.5087 11.6972 16.8894 10.8412 18.9027 9.33523C19.3281 9.02123 19.7601 9.35056 20.0194 9.70323C20.6567 8.86456 21.4934 8.15923 22.2207 7.39056C21.6387 6.96323 21.1041 6.27789 20.3407 6.2839C20.0867 6.25789 19.8981 6.0559 19.9894 5.8579C16.4661 4.0019 12.0101 3.98923 8.15141 6.80789C4.62608 9.18256 2.91342 12.8432 3.21142 16.6132ZM26.0327 18.8886C25.9301 18.7539 25.8521 18.4972 25.8261 18.2026C25.6801 16.3486 24.9527 14.8346 23.2881 13.9052C21.8414 13.0386 20.3667 11.9919 19.1901 10.7192C17.1481 12.1672 14.7354 13.0232 12.2987 13.4712C8.74741 14.1219 3.88808 13.9179 3.54942 18.5666C5.35875 26.3659 15.0414 30.0566 21.4761 25.1532C23.6407 23.6972 25.1967 21.2812 26.0327 18.8886ZM26.2147 15.9746C26.1567 13.8646 25.5787 11.9392 24.6221 10.2966C23.3487 10.4279 22.0747 10.5039 20.8007 10.5446C22.3501 12.2946 24.8534 13.0192 25.9434 15.2472C26.0547 15.4866 26.1434 15.7299 26.2147 15.9746ZM26.7507 13.8739C26.9561 15.1546 27.0407 16.9492 26.6047 18.0966C28.3114 17.1292 28.3707 14.9132 26.7507 13.8739ZM30.1521 4.24056C29.2274 4.15256 28.3021 4.1039 27.3774 4.06856C28.3867 3.08656 29.3814 2.08923 30.3447 1.06123C30.7541 0.701895 30.4594 -0.0367713 29.9061 0.00122872C28.4807 0.0518954 27.0567 0.141895 25.6321 0.306562C25.4447 0.328562 25.2894 0.442562 25.2621 0.593895C25.2274 0.777229 25.3927 0.948562 25.6321 0.973229C26.5687 1.07323 27.5054 1.1339 28.4421 1.1799C27.4147 2.17923 26.4034 3.19456 25.4241 4.24123C25.0534 4.61189 25.3667 5.30656 25.8974 5.26256C27.3154 5.19456 28.7341 5.08723 30.1521 4.90723C30.6227 4.86523 30.6581 4.28323 30.1521 4.24056ZM14.9021 26.3979C14.4521 26.4759 13.0994 26.1159 13.1254 25.5552C12.4634 25.7339 12.1061 24.3319 12.1287 23.8146C12.1081 22.5046 13.2327 21.3226 14.5654 21.3192C17.8314 21.3519 18.1574 26.0352 14.9021 26.3979ZM15.5201 23.0332C14.6801 22.1599 13.2747 22.7632 13.1147 23.8939C12.9754 24.4639 13.2174 24.7886 13.2934 25.2886C13.4007 25.2372 13.5261 25.2299 13.6347 25.2972C14.4867 25.7432 15.6434 25.2699 15.8701 24.3539C16.0121 23.8846 15.8501 23.3772 15.5201 23.0332ZM11.0254 15.3866C10.7967 15.9132 10.6894 16.3386 10.2587 16.5572C9.43475 16.8452 9.01875 16.0912 8.79342 15.3806C8.76941 15.3112 8.65341 15.2592 8.50141 15.2566C7.86208 15.2139 8.06742 16.1566 8.13208 16.5812C8.96342 19.0526 12.3841 17.8639 11.6914 15.4099C11.6541 15.2012 11.1614 15.0579 11.0254 15.3866Z" fill="#FF0039"/>
</svg>
