<svg width="32" height="32" viewBox="0 0 32 32" fill="none" xmlns="http://www.w3.org/2000/svg">
<path d="M26.4686 20.3346C26.3793 19.6265 26.0055 18.933 25.392 18.5439C25.3242 17.4022 25.2292 16.2658 25.1548 15.125C27.1685 12.2166 17.7863 12.3943 16.3037 12.6758C16.3511 12.6942 16.4291 12.6827 16.4664 12.7084C16.4196 12.7535 16.3242 12.7573 16.4509 12.7793C16.3277 12.7951 16.1947 12.7868 16.0786 12.8238C18.8927 13.2398 22.12 12.9585 24.6566 14.4183C22.2357 16.1246 10.0674 16.0968 7.57121 14.421C9.38277 13.4167 11.6182 13.2906 13.6496 13.024C13.5277 13.2978 13.2695 13.8822 13.1459 14.1596C12.8967 14.7999 13.7677 15.1538 14.1165 14.5868L14.1168 14.5871C14.5956 14.1957 15.579 12.7927 16.0786 12.7292C15.9885 12.7117 15.9637 12.7067 15.9154 12.6859C16.4507 12.1329 16.9292 11.544 17.4376 10.9735C19.142 11.1956 22.5924 11.896 23.9667 10.8103C26.0101 9.31459 25.4262 6.05766 22.9843 5.37585C22.4391 1.43934 17.7679 -0.654881 14.9829 2.57951C13.0971 1.9372 11.0099 3.44662 10.8469 5.38727C6.46645 5.4152 7.07717 11.9795 11.3922 11.1658C12.4514 11.0939 13.5072 11.0087 14.5656 10.9319C14.3912 11.3228 14.0994 11.987 13.9375 12.374C12.5665 12.2252 4.6508 12.5883 6.89106 15.2287C6.73426 16.2929 6.69592 17.381 6.59913 18.4512C4.35614 20.2312 5.82141 24.1466 8.33846 24.8666C10.9878 33.1022 21.1876 33.0036 23.7032 24.7444C25.5366 24.2233 26.7209 22.1881 26.4686 20.3346ZM13.9278 10.6265C12.5286 10.4347 10.5406 10.939 9.41077 10.0394C7.77046 8.78163 8.84859 6.09614 10.8872 6.27485C11.2291 6.31269 11.7045 6.27111 11.7202 5.82998C11.6971 4.64502 12.6368 3.4864 13.8434 3.41374C14.4851 3.26727 15.2567 4.06804 15.6905 3.29778C17.6335 0.734999 21.4638 2.38106 21.893 5.29271C21.9983 5.67231 21.9008 6.26257 22.4246 6.33645C24.8053 6.67986 24.6603 10.1801 22.3291 10.482C20.7706 10.6107 19.2096 10.5308 17.6516 10.6997C18.5568 9.55239 19.5805 8.51009 20.4514 7.33711C18.6761 8.81695 16.9273 10.3455 15.2665 11.9459C15.6523 10.9387 16.1856 9.96559 16.5054 8.94274C16.5087 8.16567 14.9606 8.56695 14.4409 8.49221C15.0352 7.44976 15.8751 6.06584 16.4633 5.02447C17.401 5.00171 18.386 5.00272 19.3193 4.98189C18.983 5.49296 18.6371 6.10906 18.3445 6.65035C18.1862 7.00439 17.593 7.70759 18.4235 7.53046L18.4357 7.55308C18.442 7.54418 18.4487 7.53585 18.4551 7.52716C19.027 7.44495 19.6285 7.40697 20.2089 7.35492C20.184 7.34544 20.1063 7.35003 20.0957 7.33582C20.1322 7.31988 20.2741 7.31801 20.1694 7.29934C20.2975 7.29855 20.4065 7.30753 20.5385 7.3002C19.9846 7.15309 19.3764 7.1248 18.8061 7.04905C19.1037 6.34004 21.6013 4.09145 19.6162 4.18091C18.5077 4.16899 17.3314 4.15348 16.2275 4.14968C15.7823 4.14515 15.6317 4.80032 15.3957 5.0855C14.8503 5.97071 14.2389 6.9751 13.6887 7.86411C13.6118 8.04928 13.0779 8.72914 13.115 8.94827C13.1075 9.40384 13.5646 9.55418 13.9492 9.49782C14.211 9.48174 14.9629 9.51039 15.2092 9.48942C15.0809 9.76563 14.824 10.3588 14.6937 10.6437C14.4426 10.617 14.1812 10.6145 13.9278 10.6265ZM24.6765 14.4461C24.6776 14.4488 24.6776 14.4486 24.6765 14.4461V14.4461ZM25.7231 20.8077C25.7118 21.9939 25.019 23.1768 23.965 23.734C22.6963 24.166 23.1004 23.9793 22.6329 25.1792C19.7679 32.0578 11.2708 31.3645 9.26444 24.2744C9.18116 23.9037 8.7518 23.9091 8.45857 23.8009C6.73663 23.1288 5.60357 20.253 7.26083 18.9763C7.54774 18.5813 7.32444 17.8502 7.35754 17.367C7.33241 16.7339 7.35517 16.1154 7.25817 15.4853C10.6098 17.1934 21.4735 17.061 24.8363 15.3528C24.8421 16.0647 24.7832 16.7796 24.8064 17.492C24.853 17.9314 24.5771 18.7112 24.9384 19.0122C25.5394 19.3946 25.7309 20.1337 25.7231 20.8077ZM19.9486 25.7864C19.9739 25.9196 19.8706 26.0411 19.864 26.164C19.4874 25.9694 19.2562 25.5807 19.0215 25.2228C17.402 27.0913 17.7631 27.1034 16.0883 25.266C14.3664 27.0544 14.7549 27.0687 13.1741 25.1677C13.0501 25.3672 12.8767 25.5319 12.8035 25.76C12.7957 25.8007 12.7368 25.7885 12.7216 25.8224C12.6185 25.9629 12.5643 26.1604 12.3756 26.2106C12.3623 26.1614 12.3898 26.1255 12.3965 26.0795C12.3607 26.1103 12.3595 26.0614 12.3372 26.0403C12.3089 26.0386 12.3067 26.0672 12.2832 26.0721C12.8249 23.5687 13.0009 23.6656 14.5843 25.4891C16.2369 23.6499 15.7243 23.3899 17.5485 25.3036C18.9795 23.587 19.4721 23.3174 19.9486 25.7864ZM12.2813 20.0729C12.1054 20.0565 11.9234 20.037 11.7494 20.0256C11.7384 20.0321 11.7278 20.0312 11.7178 20.0002C11.6869 19.9656 11.6284 19.9814 11.5866 19.9552C11.5561 19.9506 11.5268 19.9068 11.4935 19.9217C11.4723 19.9225 11.4478 19.9624 11.4422 19.9178C11.4311 19.8681 11.3862 19.9038 11.3569 19.887C11.3227 19.858 11.2831 19.7712 11.3371 19.7412C11.3233 19.7122 11.3506 19.6647 11.3249 19.6388C11.6073 19.0873 12.2835 19.2309 12.7901 19.1285C13.3813 19.0455 14.3414 18.867 14.4352 19.6927C14.4245 19.6998 14.4219 19.7431 14.407 19.7585C14.3945 19.7551 14.3869 19.8256 14.3731 19.821C14.3505 19.8203 14.3313 19.8819 14.3107 19.9081C14.2377 19.9059 14.1865 19.9649 14.1128 19.9677C14.087 19.9613 14.0773 20.0046 14.0584 20.0041C14.0475 20.0018 14.0384 20.0067 14.0291 20.0211C13.5077 20.1847 12.8348 20.1531 12.2813 20.0729ZM20.6736 19.617C20.6825 19.6685 20.6825 19.6685 20.6927 19.6928C20.6834 19.6998 20.6785 19.7431 20.6646 19.7586C20.6521 19.7552 20.6444 19.8256 20.6307 19.8211C20.6076 19.8203 20.589 19.882 20.5683 19.9082C20.5123 19.9001 20.4714 19.9473 20.4228 19.9578C20.3955 19.9634 20.3584 19.9603 20.3395 19.9835C20.3239 20.0206 20.3072 19.9875 20.2893 20.0188C20.2686 20.0163 20.252 20.0374 20.2319 20.0609C19.498 20.1992 18.7436 20.1018 18.0069 20.0257C17.9919 20.0428 17.9792 20.0049 17.9672 19.9891C17.9545 19.9858 17.9418 19.9863 17.929 19.9761C17.8499 19.9852 17.7871 19.8846 17.7128 19.9384C17.6936 19.931 17.6995 19.8819 17.6555 19.887C17.5904 19.9207 17.5342 19.771 17.5946 19.7413C17.5808 19.7123 17.6081 19.6647 17.5824 19.6389C17.8557 19.0978 18.5053 19.2331 18.9994 19.1319C19.5682 19.0842 20.5263 18.8222 20.6736 19.617Z" fill="#0293C1"/>
</svg>
