<svg width="31" height="24" viewBox="0 0 31 24" fill="none" xmlns="http://www.w3.org/2000/svg">
<path d="M28.4689 14.9098C27.9794 14.4556 26.7333 14.3138 26.1231 14.0888C26.1924 12.6958 24.6034 12.4075 23.8091 13.3682C20.8515 11.2307 20.9557 6.52368 17.1161 5.41328C19.0438 4.03858 18.1895 0.848514 15.8852 0.471391C13.131 -0.0930371 11.2004 3.82564 13.6572 5.4145C9.82863 6.5086 9.86928 11.3119 6.9402 13.4425C6.26374 12.5687 4.6631 12.9935 4.8323 14.191C4.17573 14.3649 3.5086 14.5376 2.84693 14.7177C1.89525 15.0208 1.70608 16.5002 2.69087 16.8935C6.19781 17.0413 10.3278 15.7367 11.964 12.3351C10.9225 13.5906 9.58861 14.6796 8.08651 15.3335C6.5666 15.9833 4.85457 15.951 3.24984 16.2031C2.72599 16.2809 2.72189 15.566 3.19375 15.5106C3.93083 15.3321 4.69262 15.1457 5.43207 14.9663C6.02594 14.7805 5.64408 14.3019 5.79569 13.9441C5.88834 13.8959 6.09 13.9422 6.18236 14.0263C6.37225 14.375 6.65027 14.8115 7.09806 14.5283C7.91687 13.9763 8.62422 13.2763 9.20438 12.4827C10.1533 11.2275 10.6534 9.74894 11.4575 8.42955C13.3081 5.18023 18.1791 5.57832 19.6207 8.99067C20.314 10.2854 20.8608 11.6886 21.8128 12.8368C22.348 13.4949 22.9741 14.0749 23.6815 14.5487C24.1261 14.8146 24.4202 14.3698 24.6026 14.0181C24.5799 14.0039 24.6535 14.0497 24.5517 13.9864C24.5652 13.9934 24.5915 14.0111 24.6027 14.0177C24.6954 13.9096 24.9099 13.7985 25.0548 13.8166C25.2184 14.1574 24.8853 14.8132 25.4437 14.9472C26.1807 15.1534 26.9387 15.3422 27.6726 15.5607C28.0005 15.6839 27.9513 16.2099 27.5593 16.154C26.4083 15.9815 25.2523 15.8137 24.1026 15.6348C22.1124 15.1585 20.5216 13.8271 19.3034 12.2241L19.3007 12.194L19.2843 12.2004C18.8917 11.5229 18.1819 11.7926 18.3656 12.5628L18.3454 12.5707L18.3694 12.6017C18.4729 13.6983 18.5966 14.7891 18.6973 15.8848C18.7773 16.1862 18.6589 17.1351 19.0488 17.2602C20.153 17.8391 25.4656 19.8054 25.171 21.0942C24.1049 22.0412 21.8362 22.0117 20.4363 22.1997C20.4888 21.3438 19.1677 20.7703 18.588 20.2789C17.2486 19.323 16.8778 19.4813 15.6774 20.5129C14.4383 20.2942 13.1498 19.9897 11.9104 20.3406C11.8543 20.3588 11.6579 20.3715 11.77 20.4467C11.7634 20.4734 11.727 20.4971 11.761 20.5157C11.7252 20.5297 11.6909 20.5213 11.661 20.5537C11.7499 20.6915 11.9095 20.6622 12.0468 20.692C12.8325 20.8777 13.672 21.0243 14.4924 21.1755C15.9985 21.5282 15.7392 21.758 17.0032 20.7173C17.3948 20.5182 17.8916 21.1498 18.2442 21.2983C18.7476 21.7499 19.4882 21.86 19.9487 22.3195C19.7594 22.5404 19.8135 22.7604 19.4223 22.7246C13.0488 22.2354 -2.87254 23.2755 11.6556 16.8857C11.7321 15.5943 11.8462 14.1556 11.9171 12.9162C11.8938 13.0646 11.8768 13.2722 11.8502 13.3966C11.8438 13.3454 11.8488 13.2506 11.8509 13.2122C11.8442 13.1926 11.8226 13.3732 11.8139 13.411C11.8498 13.0941 11.8993 12.72 11.9301 12.4211C11.6895 13.8265 11.4174 15.2186 11.2785 16.6326C3.78353 19.5865 1.51461 22.6776 11.5387 23.1241C13.0611 23.1226 19.9643 24.2233 20.4986 23.0415C30.3448 22.3634 25.4473 18.8591 19.6939 16.5306C19.6496 16.0382 19.5004 14.3748 19.4576 13.9127C20.6135 15.2176 22.1737 16.1776 23.8691 16.5924C25.0688 16.777 26.2702 16.9676 27.4719 17.1355C28.6933 17.2781 29.3911 15.7394 28.4689 14.9098ZM6.25943 13.9785C6.26165 13.9767 6.26474 13.9749 6.26725 13.9736C6.3 13.9532 6.28521 13.9624 6.25943 13.9785ZM13.6305 3.86593C13.2737 2.65412 14.2954 1.29013 15.5828 1.43262C17.6015 1.60966 17.8792 4.16384 16.3513 5.23531C15.7836 5.14302 15.2027 5.14029 14.6323 5.204C14.1967 4.86386 13.7821 4.40924 13.6305 3.86593ZM25.0522 13.8131C25.051 13.8139 25.0521 13.8126 25.0522 13.8131V13.8131ZM2.30886 9.11657C2.66882 9.45585 3.03603 9.79735 3.38723 10.1465C3.83021 10.4677 4.61994 11.8253 5.26466 11.1697C6.73042 9.24972 11.2336 6.75874 8.57043 4.16341C8.57761 4.19924 8.62422 4.22826 8.61776 4.26539C8.57072 4.26948 8.51937 4.22388 8.55772 4.30094C8.49509 4.25074 8.44015 4.18373 8.36632 4.15421C9.3274 5.76053 8.78079 6.63435 7.48423 7.7584C6.61184 8.60062 5.72624 9.48235 4.85694 10.3254C3.79689 9.20469 2.65769 8.06068 1.55045 6.99036C-0.171563 4.82443 2.62968 2.60672 4.51508 4.67526C5.41742 5.42534 5.75877 2.58252 8.43189 4.08857C7.95982 2.57757 5.83095 2.76918 4.85586 3.68552C1.70867 0.899219 -2.76826 5.43296 2.30886 9.11657ZM4.63473 10.5335C4.64026 10.5279 4.64601 10.5225 4.65225 10.5178C4.64974 10.52 4.61993 10.5486 4.63473 10.5335ZM29.9952 6.08199C28.1822 8.06571 26.1047 9.95736 24.2441 11.9149C23.8942 12.3348 23.1886 11.9021 23.396 11.4044C23.864 10.2063 24.4336 8.74297 24.926 7.55938C24.4143 7.25695 22.5106 7.06024 23.0209 6.19956C23.807 4.83973 24.4919 3.28994 25.6727 2.24928C25.3163 3.61974 24.5828 4.86523 24.0883 6.18943C27.0145 7.15131 26.1945 6.8065 25.2671 9.47847C26.3499 8.37094 27.5586 7.23914 28.6848 6.17428C28.2028 6.0333 27.7218 5.87817 27.2407 5.73331C26.695 5.54708 26.9907 4.97834 27.2226 4.65171C27.5939 4.00174 28.0679 3.17639 28.4341 2.52456C27.5281 2.43867 26.6099 2.5255 25.7212 2.32821C25.7925 2.29768 25.8974 2.30587 25.9792 2.2928C25.9529 2.28684 25.8838 2.27743 25.9403 2.25933C25.9458 2.25036 25.9512 2.24138 25.9569 2.23211C25.9243 2.20956 25.754 2.21588 25.8426 2.18464C26.835 2.06355 27.8779 1.95518 28.8822 1.87266C29.8062 1.73965 29.3052 2.51544 29.0629 2.94973C28.7056 3.61629 28.2835 4.40924 27.9256 5.06653C28.1547 5.13196 28.5978 5.24932 28.8232 5.31862C29.187 5.47756 30.1529 5.46951 29.9952 6.08199Z" fill="#0293C1"/>
</svg>
