<svg width="80" height="80" viewBox="0 0 80 80" fill="none" xmlns="http://www.w3.org/2000/svg">
<g filter="url(#filter0_di_1_1068)">
<circle cx="39" cy="38" r="36" fill="url(#paint0_linear_1_1068)"/>
<circle cx="39" cy="38" r="35" stroke="white" stroke-width="2"/>
</g>
<path d="M24.0617 50.9821C25.0873 56.2415 24.6386 56.7372 25.3559 56.9451C25.4718 57.0379 25.8876 57.0469 26.3371 57.0348C27.0094 57.0167 27.6143 56.6343 27.9333 56.0422C28.2698 55.4179 28.8884 54.5191 29.3398 53.7421C32.559 54.7697 35.623 54.8941 38.6427 53.7218C41.8049 52.4942 44.3861 50.0262 45.3283 46.7676C45.6283 45.73 45.7815 44.3212 45.5308 42.4696C45.4473 41.8001 45.2771 41.1179 45.0293 40.4411C46.0699 40.3629 47.1319 40.1728 48.214 39.8768C48.6309 40.671 49.207 41.5919 49.5149 42.2282C49.808 42.8336 50.3956 43.2419 51.0665 43.2893C51.5191 43.3212 51.9387 43.3303 52.0541 43.24C52.3486 43.1708 52.5213 42.9225 52.527 42.727C52.9199 40.3934 53.2166 38.9768 53.6023 37.3418C58.2294 34.0439 58.97 27.0429 54.8873 22.9564C51.0637 19.1296 43.4313 17.5155 37.9366 20.5363C34.8603 22.2354 32.6195 25.4701 32.4073 28.8717C32.2106 29.9994 32.2704 31.4981 32.7764 33.0058C28.9864 33.127 25.4207 34.7053 23.4044 36.555C19.1499 40.4581 19.5807 47.484 24.0617 50.9821ZM24.6725 49.5569C24.5831 49.0571 21.3617 47.0344 21.8868 42.3491C21.9612 42.0061 22.0365 40.6662 22.9854 39.0347C23.532 38.0846 24.6769 36.9472 25.5311 36.2439C27.6752 34.6748 30.3443 33.9397 32.9383 33.8802C33 33.8787 33.0583 33.8643 33.1112 33.8401C34.8287 37.7091 39.1161 40.5503 44.0992 40.4851C46.5264 46.5841 41.4212 51.7577 35.2303 52.486C33.6669 52.6851 31.8466 52.626 30.2056 52.2295C29.7628 52.1213 29.2965 51.9697 28.8649 52.1054C28.8626 52.106 28.8603 52.1066 28.858 52.1072C28.0755 52.3043 26.8285 54.3733 25.7088 55.7374C25.4796 53.968 25.0675 51.2736 24.6725 49.5569ZM33.3938 28.0521C33.8666 25.3246 35.7709 22.7408 38.3622 21.309C42.5977 18.9814 48.8489 19.4225 52.7614 22.5394C55.0231 24.5678 56.3714 26.8398 56.1414 30.0446C55.8274 33.9417 53.1747 35.4341 53.0549 35.8727C52.8277 36.6978 52.2342 39.2154 51.7532 42.0293C51.4608 41.6396 51.2017 41.2524 50.9323 40.8488C49.2237 38.2933 49.0206 37.9822 47.6539 38.2716C42.7795 39.3302 36.9213 37.5856 34.3641 33.2282C34.3531 33.2092 34.3411 33.1914 34.3273 33.1748C33.3899 31.5385 33.0731 29.8178 33.3938 28.0521Z" fill="black"/>
<path d="M40.9541 26.503H46.9353C47.1788 26.503 47.3765 26.3053 47.3765 26.0618C47.3765 25.8182 47.1788 25.6206 46.9353 25.6206H40.9541C40.7105 25.6206 40.5129 25.8182 40.5129 26.0618C40.5129 26.3053 40.7105 26.503 40.9541 26.503Z" fill="black"/>
<path d="M40.6111 29.8355H46.2028C46.4463 29.8355 46.644 29.6379 46.644 29.3943C46.644 29.1507 46.4463 28.9531 46.2028 28.9531H40.6111C40.3675 28.9531 40.1699 29.1507 40.1699 29.3943C40.1699 29.6379 40.3675 29.8355 40.6111 29.8355Z" fill="black"/>
<path d="M40.3169 33.1192H45.6191C45.8626 33.1192 46.0602 32.9216 46.0602 32.678C46.0602 32.4344 45.8626 32.2368 45.6191 32.2368H40.3169C40.0733 32.2368 39.8757 32.4344 39.8757 32.678C39.8757 32.9216 40.0733 33.1192 40.3169 33.1192Z" fill="black"/>
<path d="M49.4838 26.5274C49.7273 26.5274 49.925 26.3053 49.925 26.0618C49.925 25.8182 49.7273 25.6206 49.4838 25.6206C49.2402 25.6206 49.0426 25.8182 49.0426 26.0618V26.1109C49.0426 26.3545 49.2402 26.5274 49.4838 26.5274Z" fill="black"/>
<path d="M49.2879 30.2532C49.5314 30.2532 49.729 30.0309 49.729 29.7874C49.729 29.5438 49.5314 29.3462 49.2879 29.3462C49.0443 29.3462 48.8467 29.5438 48.8467 29.7874V29.8365C48.8467 30.08 49.0443 30.2532 49.2879 30.2532Z" fill="black"/>
<path d="M49.2875 33.0703C49.5311 33.0703 49.7287 32.8727 49.7287 32.6292C49.7287 32.3856 49.5311 32.188 49.2875 32.188H49.2381C48.9946 32.188 48.8217 32.3856 48.8217 32.6292C48.8217 32.8727 49.044 33.0703 49.2875 33.0703Z" fill="black"/>
<path d="M27.1296 45.3128C27.8575 45.106 28.3974 44.4126 28.4135 43.6647C28.4416 42.4167 27.106 41.5798 26.2117 42.068C25.6711 42.1001 25.1535 42.4675 24.9387 42.992C24.4009 44.3113 25.7309 45.7065 27.1296 45.3128ZM25.7774 43.2789C26.1112 43.9997 26.9632 43.4122 26.5816 42.9205C26.581 42.9107 26.5862 42.8917 26.596 42.8759C26.6132 42.8642 26.6299 42.8512 26.6454 42.8372C26.9616 42.6983 27.5435 43.0944 27.5312 43.6451C27.5237 44.0042 27.2411 44.3638 26.8889 44.4637C26.1559 44.671 25.4571 43.8851 25.7774 43.2789Z" fill="black"/>
<path d="M32.8327 45.1306C33.8216 45.1306 34.571 44.2991 34.59 43.4176C34.6181 42.1693 33.2832 41.3336 32.3881 41.8212C31.8475 41.8534 31.33 42.2205 31.1151 42.745C30.9003 43.272 30.987 43.8999 31.342 44.3833C31.689 44.8561 32.2594 45.1306 32.8327 45.1306ZM31.9538 43.0319C32.2772 43.7501 33.1433 43.1701 32.758 42.6737C32.7575 42.664 32.7626 42.645 32.7724 42.6292C32.7896 42.6174 32.8063 42.6045 32.8218 42.5904C33.1378 42.4517 33.72 42.8474 33.7076 43.3981C33.7001 43.7571 33.4175 44.1167 33.0648 44.2167C32.7121 44.3178 32.2755 44.1641 32.0532 43.8611C31.8794 43.6246 31.8241 43.2821 31.9538 43.0319Z" fill="black"/>
<path d="M39.678 45.1154C40.4064 44.9091 40.9469 44.2158 40.963 43.4667C40.9901 42.2251 39.656 41.3801 38.7611 41.8706C37.5815 41.9406 36.9254 43.3553 37.7145 44.4329C38.1616 45.0412 38.9717 45.3162 39.678 45.1154ZM38.3263 43.0821C38.4943 43.443 38.8375 43.4901 39.0466 43.3285C39.2385 43.1792 39.2799 42.9158 39.1305 42.7234C39.1299 42.7133 39.1357 42.6941 39.1454 42.6783C39.1621 42.6668 39.1788 42.6541 39.1937 42.6404C39.4982 42.4994 40.0932 42.8889 40.0806 43.4477C40.0732 43.8068 39.7906 44.1664 39.4373 44.2663C39.084 44.3669 38.6485 44.2135 38.4262 43.911C38.2313 43.645 38.2114 43.2955 38.3263 43.0821Z" fill="black"/>
<defs>
<filter id="filter0_di_1_1068" x="0" y="0" width="80" height="80" filterUnits="userSpaceOnUse" color-interpolation-filters="sRGB">
<feFlood flood-opacity="0" result="BackgroundImageFix"/>
<feColorMatrix in="SourceAlpha" type="matrix" values="0 0 0 0 0 0 0 0 0 0 0 0 0 0 0 0 0 0 127 0" result="hardAlpha"/>
<feOffset dx="1" dy="2"/>
<feGaussianBlur stdDeviation="2"/>
<feComposite in2="hardAlpha" operator="out"/>
<feColorMatrix type="matrix" values="0 0 0 0 0 0 0 0 0 0 0 0 0 0 0 0 0 0 0.16 0"/>
<feBlend mode="normal" in2="BackgroundImageFix" result="effect1_dropShadow_1_1068"/>
<feBlend mode="normal" in="SourceGraphic" in2="effect1_dropShadow_1_1068" result="shape"/>
<feColorMatrix in="SourceAlpha" type="matrix" values="0 0 0 0 0 0 0 0 0 0 0 0 0 0 0 0 0 0 127 0" result="hardAlpha"/>
<feOffset/>
<feGaussianBlur stdDeviation="2"/>
<feComposite in2="hardAlpha" operator="arithmetic" k2="-1" k3="1"/>
<feColorMatrix type="matrix" values="0 0 0 0 0 0 0 0 0 0 0 0 0 0 0 0 0 0 0.16 0"/>
<feBlend mode="normal" in2="shape" result="effect2_innerShadow_1_1068"/>
</filter>
<linearGradient id="paint0_linear_1_1068" x1="3" y1="2" x2="75" y2="74" gradientUnits="userSpaceOnUse">
<stop stop-color="#FFE0E7"/>
<stop offset="1" stop-color="#FFCBD7"/>
</linearGradient>
</defs>
</svg>
