<svg width="80" height="80" viewBox="0 0 80 80" fill="none" xmlns="http://www.w3.org/2000/svg">
<g filter="url(#filter0_di_1_1098)">
<circle cx="39" cy="38" r="36" fill="url(#paint0_linear_1_1098)"/>
<circle cx="39" cy="38" r="35" stroke="white" stroke-width="2"/>
</g>
<path d="M41.4706 31.2364C41.8824 31.2364 42.0589 30.7658 41.7647 30.4717L40.6471 29.354C40.4706 29.1776 40.1765 29.1776 40 29.354C39.8236 29.5305 39.8236 29.8246 40 30.0011C41.1765 31.0011 41.1765 31.2364 41.4706 31.2364Z" fill="black"/>
<path d="M43.7059 33.6481C44.1177 33.6481 44.2941 33.1775 44 32.8834L43.0588 31.9422C42.8824 31.7658 42.5882 31.7658 42.4118 31.9422C42.2353 32.1187 42.2353 32.4128 42.4118 32.5893C43.3529 33.4128 43.4118 33.6481 43.7059 33.6481Z" fill="black"/>
<path d="M45.0588 34.0598C44.8824 33.8834 44.5882 33.8834 44.4118 34.0598C44.2353 34.2363 44.2353 34.5304 44.4118 34.7069C45.3529 35.5893 45.4118 35.8245 45.7059 35.8245C46.1177 35.8245 46.2941 35.354 46 35.0598L45.0588 34.0598Z" fill="black"/>
<path d="M47.1177 36.2951C46.9412 36.1186 46.6471 36.1186 46.4706 36.2951C46.2941 36.4715 46.2941 36.7657 46.4706 36.9421L47.4118 37.8833C47.5883 38.0598 47.8824 38.0598 48.0588 37.8833C48.2353 37.7068 48.2353 37.4127 48.0588 37.2362L47.1177 36.2951Z" fill="black"/>
<path d="M31.0589 47.354C31.353 48.1187 31.7059 48.8834 31.9412 49.5893C32.0001 49.8246 32.2354 50.001 32.4706 50.001H32.5295C32.7648 50.001 32.9412 49.8834 33.0589 49.7069C33.4118 49.1775 33.7059 48.5893 34.0589 47.9422C34.353 47.4128 33.8236 47.001 33.2354 45.7657C33.6471 45.0598 34.1177 44.354 34.5883 43.6481C35.4118 44.7069 36.1765 45.8834 37.0001 47.2951C37.1177 47.4716 37.353 47.5893 37.5295 47.5893C37.7648 47.5893 37.9412 47.4716 38.0589 47.2951C38.2354 47.001 38.353 46.7069 38.5295 46.4128C38.7059 46.0598 38.8824 45.7069 39.0589 45.354C39.4118 44.7069 38.5295 44.354 36.6471 41.001C37.5295 39.2363 39.0589 37.001 37.9412 36.001C37.7648 35.8245 37.5295 35.7657 37.2942 35.8245C36.353 35.9422 34.8824 37.8834 34.0589 39.1775C32.8236 39.1187 31.5883 39.2363 30.353 39.1775C30.0589 39.1775 29.7648 39.2951 29.5295 39.4716C28.8824 40.0598 28.4706 40.5304 27.8824 41.2363C27.5295 41.6481 27.8236 42.2951 28.4118 42.2951C29.8236 42.2363 31.1765 42.2951 32.2354 42.354L31.0589 44.5304C29.0589 44.6481 28.7648 44.4716 28.5295 44.9422C27.7059 46.5304 27.353 46.7657 27.6471 47.2363C28.0001 47.8834 28.4118 47.5893 31.0589 47.354ZM29.2354 45.5304C31.1765 45.4128 31.5295 45.5893 31.7648 45.1187L33.2942 42.2363C33.4118 42.001 33.2354 41.5893 32.8824 41.5893C31.8824 41.5304 30.4706 41.4128 28.8824 41.4716C29.2942 41.001 29.6471 40.6481 30.0589 40.1775C30.1765 40.0598 30.0001 40.1187 32.1177 40.1187H34.1765C34.353 40.1187 34.4706 40.0598 34.5883 39.9422C35.8236 38.0598 36.9412 36.8245 37.2942 36.7657C37.7059 37.2951 36.1177 39.8834 35.6471 40.8834C35.5883 41.001 35.5883 41.1775 35.6471 41.2951C36.5295 42.8834 37.1765 43.7069 38.1177 45.1187C37.8824 45.5893 37.6471 46.0598 37.4118 46.4716C36.5295 45.001 35.7059 43.8246 34.8236 42.6481C34.6471 42.4128 34.2354 42.4128 34.1177 42.7069C31.7648 46.6481 31.9412 45.1187 33.2354 47.7069C33.0001 48.1775 32.7648 48.5304 32.5883 48.8834C32.353 48.2363 32.0589 47.5304 31.7648 46.8834C31.6471 46.6481 31.4118 46.4716 31.1765 46.4716C30.8824 46.4716 29.1177 46.7069 28.5883 46.7657C28.8236 46.354 29.0589 45.9422 29.2354 45.5304Z" fill="black"/>
<path d="M43.6471 29.2951C45.2941 27.7657 46.1765 26.8834 47.8236 25.4128C48 25.2363 48 24.9422 47.8236 24.7657C47.6471 24.5892 47.353 24.5892 47.1765 24.7657C45.5294 26.2951 44.6471 27.1775 43 28.6481C42.8236 28.8245 42.8236 29.1187 43 29.2951C43.1765 29.4716 43.4706 29.4716 43.6471 29.2951Z" fill="black"/>
<path d="M45.8236 31.2364C45.6471 31.4128 45.7059 31.7069 45.8824 31.8834C45.9412 31.9422 46.0589 32.0011 46.1765 32.0011C46.2942 32.0011 46.4118 31.9422 46.5295 31.8246C47.7059 30.5305 49.0001 29.2952 50.353 28.1187C50.5295 27.9422 50.5883 27.7069 50.4118 27.4717C50.2354 27.2952 50.0001 27.2364 49.7648 27.4128C48.2942 28.6481 47.0001 29.9422 45.8236 31.2364Z" fill="black"/>
<path d="M48.2942 34.3539C48.4706 34.5304 48.7059 34.5304 48.9412 34.4128L52.9412 30.9422C53.1177 30.7657 53.1177 30.5304 53.0001 30.2951C52.8236 30.1186 52.5883 30.1186 52.353 30.2363L48.353 33.7069C48.1765 33.8833 48.1177 34.1775 48.2942 34.3539Z" fill="black"/>
<path d="M21.9412 49.1187C23.8236 51.001 25.7059 52.8834 27.5883 54.7069C28.5295 55.6481 29.4706 56.4128 30.7647 55.9422C32.8824 56.0599 30.5883 56.2363 48.4118 40.5304C48.5883 40.4128 48.5295 40.354 48.7647 39.4716C48.8236 39.2952 48.8824 39.1187 48.9412 38.9422H50.353C50.4706 38.9422 50.5883 38.9422 50.6471 38.8246C53 36.8834 55.1765 34.7069 57.7059 32.0599C58.2353 31.5304 57.9412 30.8834 57.9412 30.7657C57.8824 30.354 57.8236 30.0599 57.5295 29.7657C54.7059 27.001 51.7059 23.6481 49.0589 20.354C48.8824 20.1187 48.6471 20.0599 48.353 20.001C47.8824 20.001 47.5295 20.001 47.1177 19.8834C46.8824 19.8246 46.5883 19.8834 46.4118 20.0599C43.7647 22.2363 41.4706 24.2952 39.353 26.2952C39.1765 26.4716 39.1765 26.8834 39.0589 27.9422C38.5883 27.9422 38 28.001 37.5295 27.9422C37.4118 27.9422 37.2942 28.001 37.1765 28.0599C29.2353 36.6481 25.6471 39.5304 20.8236 43.7657C18.8236 45.001 20.7647 47.9422 21.9412 49.1187ZM37.7059 28.8834C38.2353 28.8834 38.9412 28.8246 39.4118 28.8834C39.6471 28.8834 39.8236 28.7657 39.8824 28.5304C40 28.001 40 27.354 40.1177 26.8834C42.1177 24.9422 44.4118 22.9422 47 20.7657C47.4706 20.8834 47.8824 20.8834 48.4118 20.8834C51.0589 24.2363 54.1177 27.6481 56.9412 30.4128C57 30.4716 57 30.4716 57 30.5304C57.1177 31.2952 57.2353 31.4128 57.1177 31.5304C54.6471 34.1187 52.5294 36.2363 50.2353 38.1187C49.7059 38.0599 49.0589 38.1187 48.5883 38.0599C48.353 38.0599 48.1765 38.1775 48.1177 38.4128C48 38.8834 47.8236 39.4716 47.7059 40.001C29.1177 56.4128 32.7647 55.1775 30.1177 55.0599C29.8824 55.0599 29.7059 54.9422 29.5883 54.8246C28.2353 53.354 26.8236 51.7657 25.4118 50.2363C24 48.7069 22.5883 47.1187 21.2353 45.6481C21.0589 45.4716 21 45.2952 21.0589 45.0599C21.1177 44.9422 21.0589 44.6481 21.353 44.4128C26.2942 40.2952 30.9412 36.1187 37.7059 28.8834Z" fill="black"/>
<path d="M32.4119 25.7069C32.1766 25.5893 31.9413 25.7069 31.8236 25.9422C31.706 26.1775 31.8236 26.4128 32.0589 26.5304C34.4119 27.6481 34.2942 27.6481 34.4707 27.6481C34.9413 27.6481 35.0589 27.001 34.6471 26.8246L32.4119 25.7069Z" fill="black"/>
<path d="M36.5294 26.4717C36.7059 26.354 36.7647 26.0599 36.6471 25.8835L35 23.4129C34.8824 23.2364 34.5882 23.1776 34.4118 23.2952C34.2353 23.4129 34.1765 23.707 34.2941 23.8835L35.9412 26.354C36.0588 26.5305 36.2941 26.5893 36.5294 26.4717Z" fill="black"/>
<path d="M38.0001 23.0011L37.7648 25.2364C37.7648 25.4716 37.9412 25.7069 38.1765 25.7069C38.4118 25.7069 38.6471 25.5305 38.6471 25.2952L38.8824 23.0599C38.8824 22.8246 38.7059 22.5893 38.4707 22.5893C38.2354 22.5893 38.0001 22.7658 38.0001 23.0011Z" fill="black"/>
<defs>
<filter id="filter0_di_1_1098" x="0" y="0" width="80" height="80" filterUnits="userSpaceOnUse" color-interpolation-filters="sRGB">
<feFlood flood-opacity="0" result="BackgroundImageFix"/>
<feColorMatrix in="SourceAlpha" type="matrix" values="0 0 0 0 0 0 0 0 0 0 0 0 0 0 0 0 0 0 127 0" result="hardAlpha"/>
<feOffset dx="1" dy="2"/>
<feGaussianBlur stdDeviation="2"/>
<feComposite in2="hardAlpha" operator="out"/>
<feColorMatrix type="matrix" values="0 0 0 0 0 0 0 0 0 0 0 0 0 0 0 0 0 0 0.16 0"/>
<feBlend mode="normal" in2="BackgroundImageFix" result="effect1_dropShadow_1_1098"/>
<feBlend mode="normal" in="SourceGraphic" in2="effect1_dropShadow_1_1098" result="shape"/>
<feColorMatrix in="SourceAlpha" type="matrix" values="0 0 0 0 0 0 0 0 0 0 0 0 0 0 0 0 0 0 127 0" result="hardAlpha"/>
<feOffset/>
<feGaussianBlur stdDeviation="2"/>
<feComposite in2="hardAlpha" operator="arithmetic" k2="-1" k3="1"/>
<feColorMatrix type="matrix" values="0 0 0 0 0 0 0 0 0 0 0 0 0 0 0 0 0 0 0.16 0"/>
<feBlend mode="normal" in2="shape" result="effect2_innerShadow_1_1098"/>
</filter>
<linearGradient id="paint0_linear_1_1098" x1="39" y1="2" x2="39" y2="74" gradientUnits="userSpaceOnUse">
<stop stop-color="#FFEDBE"/>
<stop offset="1" stop-color="#FFE191"/>
</linearGradient>
</defs>
</svg>
