<svg width="80" height="80" viewBox="0 0 80 80" fill="none" xmlns="http://www.w3.org/2000/svg">
<g filter="url(#filter0_di_1_1084)">
<circle cx="39" cy="38" r="36" fill="url(#paint0_linear_1_1084)"/>
<circle cx="39" cy="38" r="35" stroke="white" stroke-width="2"/>
</g>
<path d="M25.2032 39.0679L25.2026 39.0687C23.4361 41.4233 24.6983 44.4805 27.1249 45.2888C29.4437 46.061 32.8134 44.2884 32.8196 41.5254C33.1814 39.3566 31.5287 37.2038 29.0787 37.0528C27.5371 36.9703 26.0488 37.7573 25.2032 39.0679ZM30.9215 43.1339C29.7607 44.1336 28.4396 44.0701 28.4985 44.0587C27.6202 44.0565 26.755 43.6877 26.184 43.073C24.2175 40.9563 26.3767 37.756 29.0247 37.934C31.716 38.0983 33.0801 41.2748 30.9215 43.1339Z" fill="black"/>
<path d="M20.468 54.2183C20.7503 54.4544 21.1487 54.4763 21.5165 54.4871C26.2489 54.626 30.9928 54.7648 35.7114 54.3785C36.3074 54.3297 36.9615 54.2021 37.0304 53.6103C37.0853 53.5221 37.1165 53.421 37.1012 53.3167C36.71 50.6886 34.9981 48.3018 32.6331 47.0886C28.7151 45.0777 23.6293 46.395 21.3735 50.7084C20.719 51.6793 19.5863 53.4806 20.468 54.2183ZM36.1321 52.9301C31.3467 52.8506 26.1549 53.0385 21.4704 52.9571C21.9461 50.8035 23.4063 48.8872 25.3715 47.8767C29.6535 45.6758 35.0325 48.0437 36.1321 52.9301Z" fill="black"/>
<path d="M49.8297 36.6695C48.2821 36.5865 46.7958 37.3758 45.9512 38.6894C44.1958 41.0341 45.4418 44.095 47.8762 44.9058C50.1945 45.6779 53.5637 43.906 53.5709 41.1436C53.6676 40.5657 52.2806 36.8206 49.8297 36.6695ZM51.6726 42.7512C50.5112 43.7504 49.1907 43.6869 49.2495 43.6755C48.3718 43.6732 47.5067 43.305 46.9351 42.6898C44.9761 40.5797 47.1215 37.3721 49.7757 37.5507C52.4686 37.7151 53.8306 40.8937 51.6726 42.7512Z" fill="black"/>
<path d="M57.8517 52.9326C57.4605 50.3039 55.7487 47.9177 53.3842 46.705C49.474 44.6991 44.3863 46.0017 42.1253 50.3229C41.4749 51.2875 40.3352 53.0953 41.2188 53.8344C41.501 54.0706 41.8994 54.0924 42.2672 54.1032C46.9996 54.2422 51.7436 54.3809 56.4622 53.9946C56.8818 53.9603 57.342 53.9024 57.6268 53.5924C57.7175 53.4937 57.7655 53.3613 57.7812 53.2257C57.8359 53.1376 57.867 53.0367 57.8517 52.9326ZM56.8826 52.546C54.4941 52.507 51.9837 52.5334 49.5492 52.5604C47.1147 52.5862 44.6015 52.6138 42.221 52.5736C42.6972 50.42 44.1574 48.503 46.1221 47.4926C50.399 45.2961 55.7795 47.6497 56.8826 52.546Z" fill="black"/>
<path d="M29.3791 33.3352C29.8433 33.6826 31.0491 33.7047 31.6215 33.8161C33.0668 34.0973 34.5222 34.3242 35.9832 34.5077L38.3623 39.121C38.4444 39.2804 38.6293 39.3965 38.8522 39.3458C39.2668 39.4172 39.5549 39.0027 39.7477 38.6285C40.6168 36.941 41.4859 35.2534 42.355 33.5658L47.6505 32.6998C47.816 32.6728 47.9521 32.5539 48.0015 32.3931C48.0503 32.2328 48.0038 32.0582 47.8814 31.9433L43.503 27.8239L44.4135 21.8818C44.4687 21.5192 44.0825 21.2528 43.7655 21.4286L38.4955 24.3198L33.125 21.6181C32.9669 21.5382 32.7567 21.5508 32.6042 21.7172C32.5152 21.7399 32.4408 21.7715 32.4619 21.8114C32.0466 22.332 32.1311 23.0786 32.2478 23.7341C32.523 25.2797 32.8592 26.8142 33.2555 28.3331C31.9158 29.3952 30.6301 30.5629 29.5664 31.9016C29.2391 32.3135 28.8791 32.9608 29.3791 33.3352ZM38.306 25.2125C38.4358 25.2779 38.5897 25.2745 38.7161 25.205L43.4059 22.632L42.5959 27.9198C42.5741 28.0634 42.6241 28.2082 42.7298 28.3076L46.6257 31.9731L41.3465 32.8365C41.2035 32.8601 41.0805 32.9526 41.0185 33.0835L38.7368 37.9221L36.285 33.168C36.2184 33.0387 36.0926 32.9509 35.9484 32.9325L30.6417 32.2575L34.4055 28.4558C34.5077 28.353 34.5525 28.2059 34.5255 28.0634L33.5271 22.8078L38.306 25.2125Z" fill="black"/>
<path d="M49.5136 26.8452C49.2838 26.7642 49.0316 26.8837 48.95 27.1134C48.7938 27.5546 48.5778 27.9699 48.3078 28.3491C48.1665 28.5473 48.213 28.823 48.4118 28.9643C48.4893 29.0195 48.5784 29.0459 48.6668 29.0459C48.8047 29.0459 48.9409 28.9815 49.027 28.8603C49.3441 28.4151 49.598 27.9269 49.7818 27.4087C49.8634 27.1789 49.7434 26.9267 49.5136 26.8452Z" fill="black"/>
<path d="M50.4518 28.8894L49.2696 29.3191C49.0403 29.4024 48.922 29.6552 49.0053 29.8844C49.0702 30.0636 49.2397 30.175 49.4201 30.175C49.47 30.175 49.5212 30.1664 49.5706 30.1486L50.7528 29.7189C50.982 29.6356 51.1003 29.3829 51.017 29.1537C50.9343 28.925 50.6798 28.8073 50.4518 28.8894Z" fill="black"/>
<path d="M49.7276 30.8959C49.5185 30.7729 49.2473 30.8453 49.125 31.0561C49.0026 31.2664 49.0744 31.5364 49.2853 31.6587C49.7104 31.9058 50.1647 32.1045 50.6352 32.2493C50.6783 32.2625 50.722 32.2688 50.765 32.2688C50.9535 32.2688 51.1281 32.147 51.1867 31.9575C51.2585 31.7248 51.1275 31.4778 50.8949 31.406C50.4882 31.2808 50.0952 31.109 49.7276 30.8959Z" fill="black"/>
<defs>
<filter id="filter0_di_1_1084" x="0" y="0" width="80" height="80" filterUnits="userSpaceOnUse" color-interpolation-filters="sRGB">
<feFlood flood-opacity="0" result="BackgroundImageFix"/>
<feColorMatrix in="SourceAlpha" type="matrix" values="0 0 0 0 0 0 0 0 0 0 0 0 0 0 0 0 0 0 127 0" result="hardAlpha"/>
<feOffset dx="1" dy="2"/>
<feGaussianBlur stdDeviation="2"/>
<feComposite in2="hardAlpha" operator="out"/>
<feColorMatrix type="matrix" values="0 0 0 0 0 0 0 0 0 0 0 0 0 0 0 0 0 0 0.16 0"/>
<feBlend mode="normal" in2="BackgroundImageFix" result="effect1_dropShadow_1_1084"/>
<feBlend mode="normal" in="SourceGraphic" in2="effect1_dropShadow_1_1084" result="shape"/>
<feColorMatrix in="SourceAlpha" type="matrix" values="0 0 0 0 0 0 0 0 0 0 0 0 0 0 0 0 0 0 127 0" result="hardAlpha"/>
<feOffset/>
<feGaussianBlur stdDeviation="2"/>
<feComposite in2="hardAlpha" operator="arithmetic" k2="-1" k3="1"/>
<feColorMatrix type="matrix" values="0 0 0 0 0 0 0 0 0 0 0 0 0 0 0 0 0 0 0.16 0"/>
<feBlend mode="normal" in2="shape" result="effect2_innerShadow_1_1084"/>
</filter>
<linearGradient id="paint0_linear_1_1084" x1="75" y1="2" x2="3.00001" y2="74" gradientUnits="userSpaceOnUse">
<stop stop-color="#D6F6FF"/>
<stop offset="1" stop-color="#ADEDFF"/>
</linearGradient>
</defs>
</svg>
