<svg width="80" height="80" viewBox="0 0 80 80" fill="none" xmlns="http://www.w3.org/2000/svg">
<path d="M0.5 16C0.5 7.43959 7.43959 0.5 16 0.5H64C72.5604 0.5 79.5 7.43959 79.5 16V64C79.5 72.5604 72.5604 79.5 64 79.5H16C7.43959 79.5 0.5 72.5604 0.5 64V16Z" fill="url(#paint0_linear_1_984)"/>
<path d="M0.5 16C0.5 7.43959 7.43959 0.5 16 0.5H64C72.5604 0.5 79.5 7.43959 79.5 16V64C79.5 72.5604 72.5604 79.5 64 79.5H16C7.43959 79.5 0.5 72.5604 0.5 64V16Z" stroke="#E5E5E5"/>
<path d="M48.0831 48.496C51.5246 45.0545 51.2529 39.5299 47.902 36.4507C46.2718 34.9111 44.0982 34.096 41.9246 34.2771C39.751 34.3677 37.7586 35.3639 36.4906 36.9941C38.0303 35.7262 40.0227 35.0016 41.9246 35.1828C43.8265 35.2733 45.6378 36.179 46.9057 37.5375C49.6227 40.5262 49.2605 44.8733 46.7246 47.3186C44.1888 49.8545 39.9322 50.2167 36.9435 47.4997C35.585 46.2318 34.6793 44.4205 34.5888 42.5186C34.4982 40.6167 35.1322 38.6243 36.4001 37.0847C34.7699 38.3526 33.7737 40.4356 33.6831 42.5186C33.5925 44.6922 34.4076 46.8658 35.8567 48.496C39.1171 51.6658 44.6416 51.9375 48.0831 48.496Z" fill="#006E91"/>
<path d="M52.7925 48.949C55.6001 44.2396 55.0567 38.6245 51.8868 34.7302C52.068 29.3868 52.068 29.1151 52.2491 22.1415C52.2491 21.417 52.1585 20.6924 51.7963 20.0585C51.1623 18.7 49.7133 17.7943 48.1736 17.7943C41.7435 17.7038 49.5321 17.7038 24.5359 17.5226C24.2642 17.6132 18.1057 16.3453 18.1057 22.2321V34.0962L18.1963 49.8547C18.2868 58.0057 18.1963 58.3679 18.2868 58.8207C18.5585 60.8132 20.2793 62.4434 22.3623 62.534H24.3548L40.1133 62.2623L47.9925 62.0811C49.351 62.1717 50.8001 61.3566 51.434 60.1792C51.7963 59.5453 51.8868 58.9113 51.8868 58.1868V57.734C53.1548 59.3641 54.2416 60.6321 54.6944 61.0849C56.3246 62.7151 59.0416 62.7151 60.6718 61.0849C62.3019 59.4547 62.3019 56.7377 60.6718 55.1075C59.9472 54.2924 56.1434 51.2132 52.7925 48.949ZM51.2529 59.9981C50.6189 61.0849 49.351 61.7189 48.0831 61.6283L40.2038 61.4472L24.3548 61.0849C23.7208 61.0849 22.9963 61.0849 22.4529 61.0849C21.0944 60.9943 20.0076 59.9075 19.8265 58.6396C19.7359 58.3679 19.8265 49.7641 19.8265 49.8547L19.917 34.0962C19.917 32.8283 19.917 38.534 19.917 22.2321C19.917 21.8698 19.917 21.6887 20.0076 21.417C20.2793 19.9679 21.4567 19.2434 22.634 19.1528H24.6265C51.6151 18.8811 40.2038 18.9717 48.2642 18.8811C49.4416 18.7906 50.5284 19.4245 51.0718 20.5113C51.3435 21.0547 51.5246 21.5981 51.5246 22.2321C51.7057 29.3868 51.7057 29.3868 51.8868 34.7302C51.6151 34.3679 51.2529 34.0056 50.8906 33.6434C48.5359 31.3792 45.2755 30.1113 42.0151 30.2019C38.8453 30.2924 35.6755 31.7415 33.6831 34.0962C36.0378 32.0132 39.0265 30.9264 42.0151 31.1075C45.0038 31.1981 47.8114 32.5566 49.8944 34.6396C53.6076 38.534 54.0604 44.5113 50.8906 48.8585C50.5284 49.3113 50.1661 49.7641 49.8038 50.1264C49.4416 50.5792 48.9887 50.9415 48.5359 51.2132C44.1887 54.383 38.3019 54.0207 34.317 50.217C30.0604 46.1415 29.4265 39.0773 33.8642 34.0056C28.9736 38.2623 28.5208 46.2321 33.3208 51.2132C37.1246 55.1981 43.4642 56.3755 48.8076 53.2057C49.8038 54.7453 50.9812 56.2849 52.068 57.6434C51.7963 58.4585 51.7057 59.2736 51.2529 59.9981ZM59.4038 59.817C58.4982 60.7226 56.9585 60.7226 55.9623 59.817C55.2378 59.0924 52.2491 55.3792 50.0755 52.1189C50.7095 51.5755 51.2529 51.1226 51.7963 50.3981C55.0567 52.5717 58.7699 55.5604 59.4944 56.2849C59.9472 56.7377 60.2189 57.3717 60.2189 58.0057C60.1284 58.7302 59.8567 59.3641 59.4038 59.817Z" fill="#006E91"/>
<path d="M57.7743 57.1902C57.5932 57.1902 57.3215 57.2808 56.9592 57.4619C56.7781 57.8242 56.7781 58.0053 56.6875 58.277C56.6875 58.6393 56.8686 58.8204 57.2309 58.8204C57.412 58.8204 57.6837 58.7299 58.046 58.5487C58.2271 58.1865 58.2271 58.0053 58.3177 57.7336C58.3177 57.3714 58.1366 57.1902 57.7743 57.1902Z" fill="#006E91"/>
<path d="M40.7475 25.1299C42.5588 25.0393 44.2796 24.7676 46.0909 24.4054C44.2796 24.0431 42.5588 23.862 40.7475 23.6809C37.306 23.4092 33.8645 23.4092 30.1513 23.6809C28.3399 23.7714 26.6192 24.0431 24.8079 24.4054C26.6192 24.7676 28.3399 24.9488 30.1513 25.1299C33.8645 25.4016 37.2154 25.4016 40.7475 25.1299Z" fill="#006E91"/>
<path d="M34.2267 30.1112C31.6909 28.9338 27.2531 28.9338 24.8079 30.1112C27.2531 31.2886 31.6909 31.2886 34.2267 30.1112Z" fill="#006E91"/>
<path d="M24.8079 54.2018C27.3437 55.3792 31.6909 55.3792 34.2267 54.2018C31.6909 52.9339 27.2531 53.0245 24.8079 54.2018Z" fill="#006E91"/>
<defs>
<linearGradient id="paint0_linear_1_984" x1="0" y1="80" x2="80" y2="0" gradientUnits="userSpaceOnUse">
<stop stop-color="white"/>
<stop offset="1" stop-color="#F2FDFF"/>
</linearGradient>
</defs>
</svg>
