<svg width="25" height="24" viewBox="0 0 25 24" fill="none" xmlns="http://www.w3.org/2000/svg">
<g clip-path="url(#clip0_1_1144)">
<path d="M22.5742 15.7533C21.1049 15.7533 19.6621 15.5234 18.2949 15.0716C17.625 14.8431 16.8014 15.0528 16.3926 15.4727L13.694 17.5098C10.5644 15.8393 8.63669 13.9121 6.98894 10.8061L8.96612 8.17781C9.47981 7.66481 9.66406 6.91544 9.44331 6.21231C8.98956 4.83794 8.75906 3.39587 8.75906 1.92587C8.75913 0.863937 7.89519 0 6.83331 0H2.42581C1.36394 0 0.5 0.863937 0.5 1.92581C0.5 14.0977 10.4024 24 22.5742 24C23.6361 24 24.5001 23.1361 24.5001 22.0742V17.679C24.5 16.6172 23.6361 15.7533 22.5742 15.7533Z" fill="black"/>
</g>
<defs>
<clipPath id="clip0_1_1144">
<rect width="24" height="24" fill="white" transform="translate(0.5)"/>
</clipPath>
</defs>
</svg>
