<svg width="98" height="68" viewBox="0 0 98 68" fill="none" xmlns="http://www.w3.org/2000/svg">
<path d="M1.64425 50.3223C2.23248 52.9694 3.11484 54.2929 4.14425 54.587C3.11484 58.9988 5.32072 63.4106 9.14425 65.4694C12.6737 67.8223 17.8207 67.9694 21.4972 66.4988C22.9678 65.9106 22.5266 64.8811 21.6442 64.7341C21.056 64.587 20.7619 64.8811 19.1442 65.1753C21.4972 63.7047 23.1148 61.4988 23.7031 58.7047C23.9972 58.9988 24.4384 59.1459 24.7325 59.2929C39.8795 62.3811 55.6148 61.4988 71.056 60.6164C71.7913 62.3811 72.9678 63.8517 74.4384 64.8811C76.9384 68.8517 86.4972 68.1164 88.1148 66.6459C88.9972 65.9106 88.7031 64.587 86.6442 64.7341C86.4972 64.7341 86.3501 64.7341 86.2031 64.7341C88.9972 62.6753 90.7619 59.1459 90.1737 55.1753C90.4678 55.9106 90.909 56.6459 91.3501 57.087C92.6737 58.1164 95.1737 57.5282 96.2031 56.6459C98.409 54.7341 96.4972 51.4988 95.4678 48.7047C94.1442 44.8811 94.2913 46.0576 92.5266 41.0576C91.7913 38.9988 91.056 36.94 90.1737 35.3223C87.5266 30.4694 84.2913 25.0282 79.1442 22.2341C75.909 20.3223 75.0266 20.1753 68.9972 19.587C68.9972 19.2929 68.9972 19.8811 68.9972 18.4106C70.7619 18.4106 72.6737 18.2635 74.4384 18.2635C75.0266 18.2635 75.4678 17.8223 75.6148 17.2341C75.6148 16.6459 75.6148 15.9106 75.6148 15.1753C75.6148 14.44 75.6148 13.7047 75.6148 13.2635C75.6148 12.6753 75.1737 12.2341 74.7325 12.087C72.8207 11.7929 70.7619 12.087 68.7031 12.2341C68.7031 11.4988 68.7031 10.6164 68.556 9.88115C68.556 9.29292 68.1148 8.85174 67.5266 8.85174C64.4384 8.70468 61.3501 8.70468 58.2619 8.85174C59.2913 7.96938 58.1148 6.4988 56.7913 6.05762C55.0266 5.61644 53.2619 6.4988 52.5266 8.85174C40.4678 8.9988 41.3501 8.55762 40.7619 8.9988C39.5854 8.41056 38.409 9.73409 39.1442 10.9106C39.4384 11.3517 40.0266 11.6459 40.6148 11.4988C41.056 13.7047 41.3501 15.9106 41.056 18.2635C41.056 18.5576 41.056 18.7047 41.2031 18.8517C33.7031 18.8517 36.056 19.7341 27.6737 27.9694C24.7325 30.7635 20.6148 29.44 8.99719 33.8517C7.37954 34.44 5.61484 35.1753 3.99719 36.4988C0.17366 40.1753 0.467778 46.0576 1.64425 50.3223ZM3.11484 44.7341C4.73248 45.0282 4.73248 46.94 3.2619 47.5282C3.11484 46.6459 3.11484 45.7635 3.11484 44.7341ZM13.8501 64.587C9.58543 64.587 6.05601 61.0576 6.05601 56.7929C6.05601 52.5282 9.58543 48.9988 13.8501 48.9988C18.1148 48.9988 21.6442 52.5282 21.6442 56.7929C21.6442 61.0576 18.1148 64.587 13.8501 64.587ZM80.1737 64.7341C75.909 64.7341 72.3795 61.2047 72.3795 56.94C72.3795 52.6753 75.909 49.1459 80.1737 49.1459C84.4384 49.1459 87.9678 52.6753 87.9678 56.94C87.9678 61.3517 84.5854 64.7341 80.1737 64.7341ZM77.9678 24.2929C82.6737 26.94 85.7619 31.94 88.1148 36.4988C88.7031 37.6753 89.4384 39.2929 90.0266 40.9106C88.9972 42.3811 88.2619 44.44 89.1442 45.7635C89.8795 47.087 91.3501 47.8223 92.8207 47.9694C93.409 49.44 93.7031 50.4694 94.1442 51.7929C94.4384 52.6753 95.3207 54.587 94.7325 55.3223C94.2913 55.7635 93.1148 55.9106 92.8207 55.7635C92.3795 55.4694 91.7913 53.4106 91.3501 52.6753C89.7325 50.1753 87.8207 48.4106 85.3207 47.3811C81.4972 45.9106 76.9384 46.3517 73.409 48.5576C70.4678 50.3223 68.7031 53.2635 67.8207 57.5282C65.1737 57.6753 62.5266 57.6753 59.8795 57.8223C60.909 52.6753 60.0266 35.4694 59.1443 21.4988C63.8501 21.6459 68.7031 21.94 73.556 22.6753C75.0266 22.8223 76.4972 23.5576 77.9678 24.2929ZM73.2619 14.44V16.3517C71.6442 16.3517 70.3207 16.4988 68.7031 16.4988C68.7031 16.0576 68.7031 15.4694 68.7031 14.8812C68.8501 14.7341 71.7913 14.2929 73.2619 14.44ZM66.3501 11.2047C66.4972 13.9988 66.6442 16.7929 66.6442 19.587C62.5266 19.2929 58.409 19.1459 54.4384 19.1459C53.9972 16.4988 53.8501 13.9988 54.1442 11.3517C58.2619 11.2047 62.5266 11.2047 66.3501 11.2047ZM56.3501 8.55762C56.3501 8.70468 56.4972 8.85174 56.6442 8.9988C56.056 8.9988 55.3207 8.9988 54.7325 8.9988C54.8795 8.85174 55.0266 8.70468 55.1737 8.55762C55.6148 8.2635 56.3501 8.41056 56.3501 8.55762ZM51.9384 11.3517C51.6442 13.9988 51.7913 16.4988 52.2325 19.1459C45.3207 18.9988 45.1737 19.1459 42.9678 19.1459C43.1148 18.9988 43.1148 18.8517 43.1148 18.7047C43.2619 16.2047 43.1148 13.8517 42.6737 11.3517H51.9384ZM34.4384 24.1459C36.9384 21.3517 37.2325 21.4988 38.9972 21.3517C39.8795 21.3517 47.3795 21.0576 56.7913 21.3517C56.7913 21.4988 58.8501 52.6753 57.3795 57.8223C48.2619 57.9694 39.1443 57.6753 30.909 57.2341C30.909 57.087 30.909 56.94 30.909 56.6459C28.409 48.1164 27.6737 38.8517 28.7031 30.0282C30.6148 28.5576 34.2913 24.2929 34.4384 24.1459ZM5.46778 38.5576C8.40895 36.0576 17.6737 33.5576 21.7913 32.8223C23.2619 32.5282 24.8795 32.2341 26.4972 31.6459C25.6148 40.1753 26.4972 48.9988 28.8501 57.2341C27.8207 57.2341 26.7913 57.087 25.909 57.087C24.4384 51.94 21.4972 48.7047 17.5266 47.3811C15.3207 46.7929 12.0854 46.4988 9.58543 47.8223C7.23248 48.9988 6.20307 50.3223 4.58542 52.3811C4.14425 51.6459 3.85013 50.6164 3.70307 49.8811C5.61484 49.44 6.79131 47.5282 6.49719 45.7635C6.35013 44.2929 5.0266 42.9694 3.2619 42.6753C3.55601 41.0576 4.14425 39.587 5.46778 38.5576Z" fill="#F2A30B"/>
<path d="M31.3495 36.0587C35.3201 36.0587 38.7024 36.2057 42.0848 36.2057C51.6436 36.3528 53.1142 36.3528 52.9671 36.3528C53.5553 36.3528 54.1436 35.7645 53.9965 35.1763C53.8495 32.5292 53.8495 27.3822 53.7024 24.5881C53.7024 23.9998 53.1142 23.5587 52.5259 23.5587C38.8495 23.9998 38.9965 23.5587 38.4083 24.1469C35.6142 27.0881 32.3789 31.4998 30.3201 34.294C30.0259 35.0292 30.4671 36.0587 31.3495 36.0587ZM39.8789 26.0587L51.6436 25.7645C51.7906 28.1175 51.7906 31.6469 51.9377 34.1469C45.7612 33.9998 39.7318 33.9998 33.5553 33.8528C35.3201 31.3528 37.8201 28.2645 39.8789 26.0587Z" fill="#F2A30B"/>
<path d="M62.0865 35.3224C62.0865 35.9106 62.6747 36.3518 63.1159 36.3518C63.8512 36.3518 69.8806 35.4694 80.91 36.3518C81.7923 36.4988 82.3806 35.4694 81.9394 34.5871C76.4982 26.3518 69.2923 22.2341 62.3806 23.4106C61.7923 23.5577 61.3512 23.9989 61.4982 24.5871C61.7923 27.6753 61.6453 32.2341 62.0865 35.3224ZM78.7041 33.8518C73.5571 33.5577 68.5571 33.5577 64.1453 33.9988C63.9982 31.3518 63.9982 28.1165 63.7041 25.4694C69.5865 25.0283 75.0276 29.1459 78.7041 33.8518Z" fill="#F2A30B"/>
<path d="M13.4084 54.4431C11.9378 54.4431 10.9084 55.6195 10.9084 56.943C10.9084 58.4136 12.0849 59.4431 13.4084 59.4431C14.7319 59.4431 15.9084 58.2666 15.9084 56.943C15.9084 55.6195 14.7319 54.4431 13.4084 54.4431Z" fill="#F2A30B"/>
<path d="M80.1748 54.1475C78.7042 54.1475 77.6748 55.3239 77.6748 56.6475C77.6748 57.971 78.8513 59.1475 80.1748 59.1475C81.6454 59.1475 82.6748 57.971 82.6748 56.6475C82.6748 55.3239 81.4983 54.1475 80.1748 54.1475Z" fill="#F2A30B"/>
<path d="M24.5853 8.41128C23.9971 8.11716 23.4088 8.26422 23.1147 8.85246C22.8206 9.44069 22.9677 10.0289 23.5559 10.323C28.1147 12.9701 27.9677 13.1172 28.5559 13.1172C29.7324 13.1172 30.0265 11.6466 29.1441 11.0583L24.5853 8.41128Z" fill="#F2A30B"/>
<path d="M32.2314 10.0288C32.6726 9.58762 32.6726 8.99939 32.3785 8.41115L27.2314 2.5288C26.7902 2.08762 26.202 2.08762 25.6138 2.38174C25.1726 2.82292 25.1726 3.41115 25.4667 3.99939L30.6138 9.88174C31.0549 10.3229 31.7902 10.3229 32.2314 10.0288Z" fill="#F2A30B"/>
<path d="M34.1464 6.79419C34.7346 6.64713 35.1758 6.05889 35.0287 5.47066L34.1464 0.911832C33.9993 0.323597 33.4111 -0.11758 32.8228 0.0294787C32.2346 0.176538 31.7934 0.764774 31.9405 1.35301L32.8228 5.91183C32.9699 6.50007 33.5581 6.79419 34.1464 6.79419Z" fill="#F2A30B"/>
<path d="M47.9654 42.8247H43.2595C42.6712 42.8247 42.083 43.2659 42.083 44.0012C42.083 44.7365 42.5242 45.1776 43.2595 45.1776H47.9654C48.5536 45.1776 49.1418 44.7365 49.1418 44.0012C49.1418 43.2659 48.5536 42.8247 47.9654 42.8247Z" fill="#F2A30B"/>
</svg>
