<svg width="120" height="119" viewBox="0 0 120 119" fill="none" xmlns="http://www.w3.org/2000/svg">
<path d="M114.766 85.1288C116.057 86.2131 116.394 88.4126 115.534 90.1361C113.912 93.3852 108.574 95.1436 103.83 92.8147C108.287 86.8891 102.938 81.2281 99.1158 84.4658C96.8875 86.3601 96.6832 90.0474 100.205 93.1129C96.169 95.6876 91.449 93.0346 90.5132 89.2351C90.4971 89.1696 90.4567 89.1194 90.4303 89.0596C92.0888 86.2588 93.1688 82.5946 92.27 79.5622C91.6757 77.5555 90.1828 76.0512 88.7029 74.681C86.3052 72.4631 83.7547 70.3428 81.1229 68.3788C78.6567 66.5387 76.1986 64.8861 73.2491 64.8703C69.333 64.8519 66.173 67.938 64.7767 71.0073C63.5001 73.8182 63.2245 76.8916 63.0839 79.7147C47.3495 77.0031 33.131 66.1623 26.3496 51.7028C28.8897 50.779 31.6187 49.6608 33.8276 47.703C36.4958 45.3391 38.7862 42.8577 37.5202 38.524C36.3428 34.4923 33.0339 30.8804 30.0255 27.8135C27.1542 24.8843 23.6689 21.6897 18.6264 20.8474C14.6492 20.1785 10.9187 25.5482 8.69288 28.7556L8.08913 29.6165C3.62864 35.8717 3.50111 41.4934 6.1763 47.2411C8.14795 54.0685 12.842 60.5081 16.9081 65.9747C32.1302 86.4401 53.7569 98.2864 66.2008 100.086C74.7942 101.329 83.6361 98.998 88.4775 91.7417C88.6074 91.5927 88.7281 91.4323 88.8545 91.2791C91.1605 96.1975 97.446 98.2176 102.174 94.5035C104.99 96.0978 108.411 96.5722 111.536 95.7348C118.622 93.8362 120.065 86.6151 116.226 83.3915C115.08 82.4267 113.615 84.1632 114.766 85.1288ZM18.2527 23.0859C22.1957 23.7441 25.0608 25.9913 28.4043 29.4012C31.2205 32.2733 34.3108 35.6318 35.3411 39.1599C36.1402 41.8945 35.1374 43.4574 32.5918 45.7571C27.63 38.4315 19.942 31.7391 12.1086 27.8821C13.9069 25.4892 16.3352 22.7701 18.2527 23.0859ZM78.8623 95.5691C76.5251 96.3315 73.854 96.0958 71.3252 95.7179C53.2467 93.0119 36.0345 83.5148 24.1018 69.6647C19.3553 64.1557 15.3364 57.8996 11.4493 51.8499C5.72967 42.9469 4.63505 38.5406 10.7683 29.7464C18.4213 33.4253 25.976 39.9775 30.7947 47.1436C28.8505 48.3961 26.5791 49.214 24.5163 49.9501C23.8464 50.1918 23.5318 50.9672 23.8097 51.5972C30.8492 67.6135 46.5833 79.6038 63.8791 82.1402C64.2022 82.1928 64.5989 82.0834 64.8485 81.8789C65.0988 81.6742 65.284 81.3064 65.2982 80.9829C65.4112 78.3873 65.542 75.4869 66.4613 72.9058C80.8511 77.8682 86.7501 89.3176 87.2054 89.7134C84.9537 92.4844 82.0871 94.5094 78.8623 95.5691ZM67.4426 70.8544C68.6912 68.8626 70.7786 67.1253 73.2371 67.1404C75.4974 67.1527 77.615 68.5937 79.7658 70.1986C82.334 72.1138 84.8228 74.1834 87.1615 76.3468C88.4612 77.5496 89.663 78.7495 90.0947 80.2063C90.7785 82.5163 89.8814 85.4653 88.5677 87.7484C83.7058 79.9976 76.073 73.8955 67.4426 70.8544ZM101.909 91.5826C100.785 90.6612 99.7344 89.342 99.7556 87.9012C99.7683 86.9939 100.454 86.053 101.219 85.8479C102.979 85.3762 104.321 88.556 101.909 91.5826Z" fill="#BD0730"/>
<path d="M50.8731 37.7898C53.7066 37.7898 53.9177 33.3657 50.8897 33.2461C50.1216 33.2039 49.0086 33.6652 48.9744 34.2948C47.9447 35.8666 49.0003 37.7898 50.8731 37.7898Z" fill="#BD0730"/>
<path d="M55.1152 35.4344H67.0735C67.8974 35.4344 67.8979 34.1885 67.0735 34.1885H55.1152C54.2913 34.1885 54.2908 35.4344 55.1152 35.4344Z" fill="#BD0730"/>
<path d="M51.511 39.7233C50.7937 39.1766 49.0245 40.4914 49.4111 42.0697C49.8305 43.7821 52.321 44.2424 53.1692 42.4355C53.8282 41.0317 52.7782 39.6364 51.511 39.7233Z" fill="#BD0730"/>
<path d="M62.6195 40.0953H56.4824C55.6585 40.0953 55.658 41.3411 56.4824 41.3411H62.6195C63.4434 41.3411 63.4439 40.0953 62.6195 40.0953Z" fill="#BD0730"/>
<path d="M54.5075 50.5412C59.287 56.4914 59.0594 56.7681 59.7331 56.5813C59.7344 56.5809 59.7353 56.5801 59.7367 56.5797C59.7357 56.6001 59.7329 56.6206 59.732 56.641C59.9877 56.5699 60.555 56.0985 60.8829 55.8415C61.3384 55.4844 61.5894 54.9246 61.5894 54.3459V50.9453C70.0678 50.381 76.761 45.0296 76.761 38.5638C76.761 29.5473 64.1399 23.3657 52.9882 27.3387C49.5064 28.2766 46.4743 30.3998 44.4719 33.5212C42.1955 37.0697 42.657 41.8619 44.9264 45.4148C47.034 48.7148 50.6508 50.0658 54.5075 50.5412ZM60.1199 27.3684C68.6088 27.3684 75.5152 32.3906 75.5152 38.5638C75.5152 44.6843 68.6643 49.7065 60.2436 49.7584C59.4211 49.7642 59.6551 50.6211 59.1288 54.4149C55.5126 49.9503 55.221 49.1818 54.7733 49.0617C48.7574 47.4403 44.7158 43.2211 44.7158 38.5638C44.7158 32.3906 51.6262 27.3684 60.1199 27.3684Z" fill="#BD0730"/>
</svg>
