<svg width="58" height="38" viewBox="0 0 58 38" fill="none" xmlns="http://www.w3.org/2000/svg">
<g clip-path="url(#clip0_1_884)">
<path d="M47.9498 32.6785L45.8975 25.9109C47.0496 23.7554 47.6564 21.3331 47.6564 18.8735C47.6564 10.6361 40.9547 3.93433 32.7172 3.93433C27.7289 3.93433 23.3048 6.39224 20.59 10.16C14.7717 10.9263 10.2658 15.9172 10.2658 21.9414C10.2658 23.8624 10.7314 25.7549 11.6159 27.4463L10.0483 32.615C9.92569 33.0191 10.0359 33.4578 10.3342 33.7564C10.5522 33.9744 10.8447 34.0918 11.1436 34.0918C11.2547 34.0918 11.3666 34.0756 11.4759 34.0425L16.6445 32.4749C18.3359 33.3595 20.2282 33.8251 22.1495 33.8251C23.9278 33.8251 25.6157 33.4317 27.132 32.7286C28.8582 33.427 30.7435 33.8126 32.7172 33.8126C35.1769 33.8126 37.5992 33.2058 39.7547 32.0537L46.5222 34.106C46.6315 34.1391 46.7434 34.1553 46.8545 34.1553C47.1534 34.1553 47.4459 34.0379 47.6636 33.8199C47.9622 33.5215 48.0724 33.0826 47.9498 32.6785ZM39.9547 29.7222C39.6509 29.6303 39.323 29.6682 39.0487 29.8271C37.1333 30.9369 34.9438 31.5234 32.7172 31.5234C25.7421 31.5234 20.0673 25.8486 20.0673 18.8735C20.0673 11.8981 25.7421 6.22351 32.7172 6.22351C39.6924 6.22351 45.3672 11.8984 45.3672 18.8735C45.3672 21.1 44.7807 23.2895 43.6709 25.205C43.512 25.4792 43.474 25.8074 43.5659 26.111L45.1379 31.2941L39.9547 29.7222ZM22.1495 31.5359C20.4607 31.5359 18.8001 31.0909 17.3476 30.2495C17.1713 30.1475 16.9733 30.0953 16.7735 30.0953C16.6622 30.0953 16.5503 30.1115 16.4416 30.1446L12.8602 31.2306L13.9463 27.6493C14.0382 27.3457 14.0002 27.0178 13.8413 26.7433C12.9997 25.2908 12.5547 23.6301 12.5547 21.9414C12.5547 17.7382 15.2718 14.158 19.0416 12.8638C18.2298 14.7036 17.7778 16.7368 17.7778 18.8735C17.7778 24.0305 20.4045 28.5854 24.3902 31.2709C23.6712 31.4437 22.9209 31.5359 22.1495 31.5359Z" fill="#989898"/>
<path d="M34.4374 21.95H27.5069C26.8749 21.95 26.3623 22.4622 26.3623 23.0945C26.3623 23.7266 26.8749 24.2391 27.5069 24.2391H34.4374C35.0694 24.2391 35.5817 23.7266 35.5817 23.0945C35.5817 22.4622 35.0694 21.95 34.4374 21.95Z" fill="#989898"/>
<path d="M37.9296 17.729H27.5059C26.8739 17.729 26.3613 18.2416 26.3613 18.8736C26.3613 19.5059 26.8739 20.0182 27.5059 20.0182H37.9296C38.5616 20.0182 39.0742 19.5059 39.0742 18.8736C39.0742 18.2416 38.5616 17.729 37.9296 17.729Z" fill="#989898"/>
<path d="M37.9306 13.5105H27.5069C26.8749 13.5105 26.3623 14.0231 26.3623 14.6551C26.3623 15.2871 26.8749 15.7997 27.5069 15.7997H37.9306C38.5626 15.7997 39.0752 15.2871 39.0752 14.6551C39.0752 14.0231 38.5626 13.5105 37.9306 13.5105Z" fill="#989898"/>
</g>
<defs>
<clipPath id="clip0_1_884">
<rect width="38" height="38" fill="white" transform="translate(10)"/>
</clipPath>
</defs>
</svg>
