<svg width="128" height="128" viewBox="0 0 128 128" fill="none" xmlns="http://www.w3.org/2000/svg">
<path d="M3.38517 84.8924C4.13811 88.2806 5.26752 89.9748 6.58517 90.3512C5.26752 95.9983 8.09105 101.645 12.9852 104.281C17.5028 107.292 24.091 107.481 28.7969 105.598C30.6793 104.845 30.1146 103.528 28.9852 103.339C28.2322 103.151 27.8558 103.528 25.7852 103.904C28.7969 102.022 30.8675 99.1983 31.6205 95.6218C31.9969 95.9983 32.5616 96.1865 32.9381 96.3747C52.3263 100.328 72.4675 99.1983 92.2322 98.0689C93.1734 100.328 94.6793 102.21 96.5616 103.528C99.7616 108.61 111.997 107.669 114.068 105.787C115.197 104.845 114.82 103.151 112.185 103.339C111.997 103.339 111.809 103.339 111.62 103.339C115.197 100.704 117.456 96.1865 116.703 91.1042C117.079 92.0453 117.644 92.9865 118.209 93.5512C119.903 94.8689 123.103 94.1159 124.42 92.9865C127.244 90.5395 124.797 86.3983 123.479 82.8218C121.785 77.9277 121.973 79.4336 119.715 73.0336C118.773 70.3983 117.832 67.763 116.703 65.6924C113.315 59.4806 109.173 52.5159 102.585 48.9395C98.444 46.4924 97.3146 46.3042 89.5969 45.5512C89.5969 45.1748 89.5969 45.9277 89.5969 44.0453C91.8558 44.0453 94.3028 43.8571 96.5616 43.8571C97.3146 43.8571 97.8793 43.2924 98.0675 42.5395C98.0675 41.7865 98.0675 40.8453 98.0675 39.9042C98.0675 38.963 98.0675 38.0218 98.0675 37.4571C98.0675 36.7042 97.5028 36.1395 96.9381 35.9512C94.491 35.5748 91.8558 35.9512 89.2205 36.1395C89.2205 35.1983 89.2205 34.0689 89.0322 33.1277C89.0322 32.3748 88.4675 31.81 87.7146 31.81C83.7616 31.6218 79.8087 31.6218 75.8558 31.81C77.1734 30.6806 75.6675 28.7983 73.9734 28.2336C71.7146 27.6689 69.4558 28.7983 68.5146 31.81C53.0793 31.9983 54.2087 31.4336 53.4558 31.9983C51.9499 31.2453 50.444 32.9395 51.3852 34.4453C51.7616 35.01 52.5146 35.3865 53.2675 35.1983C53.8322 38.0218 54.2087 40.8453 53.8322 43.8571C53.8322 44.2336 53.8322 44.4218 54.0205 44.61C44.4205 44.61 47.4322 45.7395 36.7028 56.2806C32.9381 59.8571 27.6675 58.163 12.7969 63.8101C10.7263 64.563 8.46752 65.5042 6.39693 67.1983C1.50281 71.9042 1.87928 79.4336 3.38517 84.8924ZM5.26752 77.7395C7.33811 78.1159 7.33811 80.563 5.45575 81.3159C5.26752 80.1865 5.26752 79.0571 5.26752 77.7395ZM19.0087 103.151C13.5499 103.151 9.03222 98.6336 9.03222 93.1748C9.03222 87.7159 13.5499 83.1983 19.0087 83.1983C24.4675 83.1983 28.9852 87.7159 28.9852 93.1748C28.9852 98.6336 24.4675 103.151 19.0087 103.151ZM103.903 103.339C98.444 103.339 93.9263 98.8218 93.9263 93.363C93.9263 87.9042 98.444 83.3865 103.903 83.3865C109.362 83.3865 113.879 87.9042 113.879 93.363C113.879 99.01 109.55 103.339 103.903 103.339ZM101.079 51.5748C107.103 54.963 111.056 61.363 114.068 67.1983C114.82 68.7042 115.762 70.7748 116.515 72.8453C115.197 74.7277 114.256 77.363 115.385 79.0571C116.326 80.7512 118.209 81.6924 120.091 81.8806C120.844 83.763 121.22 85.0806 121.785 86.7747C122.162 87.9042 123.291 90.3512 122.538 91.2924C121.973 91.8571 120.468 92.0453 120.091 91.8571C119.526 91.4806 118.773 88.8453 118.209 87.9042C116.138 84.7042 113.691 82.4453 110.491 81.1277C105.597 79.2453 99.7616 79.81 95.244 82.6336C91.4793 84.8924 89.2205 88.6571 88.091 94.1159C84.7028 94.3042 81.3146 94.3042 77.9263 94.4924C79.244 87.9042 78.1146 65.8806 76.9852 47.9983C83.0087 48.1865 89.2205 48.563 95.4322 49.5042C97.3146 49.6924 99.1969 50.6336 101.079 51.5748ZM95.0557 38.963V41.41C92.9852 41.41 91.291 41.5983 89.2205 41.5983C89.2205 41.0336 89.2205 40.2806 89.2205 39.5277C89.4087 39.3395 93.1734 38.7748 95.0557 38.963ZM86.2087 34.8218C86.3969 38.3983 86.5852 41.9748 86.5852 45.5512C81.3146 45.1748 76.044 44.9865 70.9616 44.9865C70.3969 41.5983 70.2087 38.3983 70.5852 35.01C75.8558 34.8218 81.3146 34.8218 86.2087 34.8218ZM73.4087 31.4336C73.4087 31.6218 73.5969 31.81 73.7852 31.9983C73.0322 31.9983 72.091 31.9983 71.3381 31.9983C71.5263 31.81 71.7146 31.6218 71.9028 31.4336C72.4675 31.0571 73.4087 31.2453 73.4087 31.4336ZM67.7616 35.01C67.3852 38.3983 67.5734 41.5983 68.1381 44.9865C59.291 44.7983 59.1028 44.9865 56.2793 44.9865C56.4675 44.7983 56.4675 44.61 56.4675 44.4218C56.6558 41.2218 56.4675 38.21 55.9028 35.01H67.7616ZM45.3616 51.3865C48.5616 47.81 48.9381 47.9983 51.1969 47.81C52.3263 47.81 61.9263 47.4336 73.9734 47.81C73.9734 47.9983 76.6087 87.9042 74.7263 94.4924C63.0558 94.6806 51.3852 94.3042 40.844 93.7395C40.844 93.5512 40.844 93.363 40.844 92.9865C37.644 82.0689 36.7028 70.21 38.0205 58.9159C40.4675 57.0336 45.1734 51.5748 45.3616 51.3865ZM8.27928 69.8336C12.044 66.6336 23.9028 63.4336 29.1734 62.4924C31.0558 62.1159 33.1263 61.7395 35.1969 60.9865C34.0675 71.9042 35.1969 83.1983 38.2087 93.7395C36.891 93.7395 35.5734 93.5512 34.444 93.5512C32.5616 86.963 28.7969 82.8218 23.7146 81.1277C20.891 80.3747 16.7499 79.9983 13.5499 81.6924C10.5381 83.1983 9.22046 84.8924 7.14987 87.5277C6.58517 86.5865 6.20869 85.2689 6.02046 84.3277C8.46752 83.763 9.9734 81.3159 9.59693 79.0571C9.40869 77.1748 7.71458 75.4806 5.45575 75.1042C5.83222 73.0336 6.58517 71.1512 8.27928 69.8336Z" fill="#C28000"/>
<path d="M41.408 66.6348C46.4904 66.6348 50.8198 66.823 55.1492 66.823C67.3845 67.0112 69.2669 67.0112 69.0786 67.0112C69.8316 67.0112 70.5845 66.2583 70.3963 65.5054C70.208 62.1171 70.208 55.5289 70.0198 51.9524C70.0198 51.1995 69.2669 50.6348 68.5139 50.6348C51.008 51.1995 51.1963 50.6348 50.4433 51.3877C46.8669 55.1524 42.7257 60.7995 40.0904 64.3759C39.7139 65.3171 40.2786 66.6348 41.408 66.6348ZM52.3257 53.8348L67.3845 53.4583C67.5727 56.4701 67.5728 60.9877 67.761 64.1877C59.8551 63.9995 52.1375 63.9995 44.2316 63.8112C46.4904 60.6112 49.6904 56.6583 52.3257 53.8348Z" fill="#C28000"/>
<path d="M80.7512 65.6924C80.7512 66.4454 81.5042 67.0101 82.0689 67.0101C83.01 67.0101 90.7277 65.8806 104.845 67.0101C105.975 67.1983 106.728 65.8806 106.163 64.7512C99.1983 54.2101 89.9747 48.9395 81.1277 50.4453C80.3747 50.6336 79.81 51.1983 79.9983 51.9512C80.3747 55.9042 80.1865 61.7395 80.7512 65.6924ZM102.022 63.8101C95.4336 63.4336 89.0336 63.4336 83.3865 63.9983C83.1983 60.6101 83.1983 56.4689 82.8218 53.0806C90.3512 52.5159 97.3159 57.7865 102.022 63.8101Z" fill="#C28000"/>
<path d="M18.443 90.167C16.5607 90.167 15.243 91.6729 15.243 93.367C15.243 95.2493 16.7489 96.567 18.443 96.567C20.1372 96.567 21.643 95.0611 21.643 93.367C21.643 91.6729 20.1372 90.167 18.443 90.167Z" fill="#C28000"/>
<path d="M103.904 89.7886C102.022 89.7886 100.704 91.2945 100.704 92.9886C100.704 94.6827 102.21 96.1886 103.904 96.1886C105.787 96.1886 107.104 94.6827 107.104 92.9886C107.104 91.2945 105.598 89.7886 103.904 89.7886Z" fill="#C28000"/>
<path d="M32.7498 31.2461C31.9969 30.8696 31.244 31.0579 30.8675 31.8108C30.491 32.5637 30.6793 33.3167 31.4322 33.6932C37.2675 37.0814 37.0793 37.2696 37.8322 37.2696C39.3381 37.2696 39.7146 35.3873 38.5851 34.6343L32.7498 31.2461Z" fill="#C28000"/>
<path d="M42.5367 33.3166C43.1014 32.7519 43.1014 31.999 42.725 31.246L36.1367 23.7166C35.572 23.1519 34.8191 23.1519 34.0662 23.5284C33.5014 24.0931 33.5014 24.846 33.8779 25.599L40.4662 33.1284C41.0309 33.6931 41.972 33.6931 42.5367 33.3166Z" fill="#C28000"/>
<path d="M44.988 29.1763C45.7409 28.988 46.3057 28.2351 46.1174 27.4821L44.988 21.6469C44.7998 20.8939 44.0468 20.3292 43.2939 20.5174C42.5409 20.7057 41.9762 21.4586 42.1645 22.2116L43.2939 28.0469C43.4821 28.7998 44.2351 29.1763 44.988 29.1763Z" fill="#C28000"/>
<path d="M62.6762 75.2954H56.6527C55.8997 75.2954 55.1468 75.8601 55.1468 76.8013C55.1468 77.7425 55.7115 78.3072 56.6527 78.3072H62.6762C63.4291 78.3072 64.1821 77.7425 64.1821 76.8013C64.1821 75.8601 63.4291 75.2954 62.6762 75.2954Z" fill="#C28000"/>
</svg>
