<svg width="58" height="38" viewBox="0 0 58 38" fill="none" xmlns="http://www.w3.org/2000/svg">
<path d="M42.9925 16.7777C42.2883 15.3574 40.6139 14.2174 39.0001 13.9871V12.9456H41.3454C42.0021 12.9456 42.5329 12.4148 42.5329 11.7581C42.5329 11.1014 42.0021 10.5706 41.3454 10.5706H40.57V4.16406C40.57 3.50738 40.0391 2.97656 39.3825 2.97656H33.61C32.9533 2.97656 32.4225 3.50738 32.4225 4.16406V6.15431H26.2297C25.573 6.15431 25.0422 6.68513 25.0422 7.34181V10.5718H23.9509C23.2942 10.5718 22.7634 11.1026 22.7634 11.7593C22.7634 12.416 23.2942 12.9468 23.9509 12.9468H25.687V14.0464C24.2216 14.3219 22.6577 15.1496 21.7564 16.197L17.3626 21.3127H16.4506C15.2346 21.4089 12.8086 22.3851 12.3324 25.3989C12.3217 25.4607 12.317 25.5224 12.317 25.5842L12.3181 28.8748C12.311 29.0113 12.2825 30.238 13.286 31.2082C13.9474 31.8459 14.876 32.1807 16.0315 32.2401C16.6228 33.8599 18.1654 35.026 19.987 35.026C21.8134 35.026 23.3583 33.8539 23.9473 32.2282L34.2513 32.2092C34.8355 33.8456 36.384 35.026 38.2175 35.026C40.0688 35.026 41.628 33.8207 42.1992 32.1606C42.8547 32.0798 43.6895 31.8542 44.3996 31.2592C45.1596 30.6227 45.6038 29.6965 45.6857 28.4959V22.7496C45.6857 22.7496 45.7011 22.1369 45.3805 21.6013L42.9925 16.7777ZM40.8645 17.8322L42.584 21.308L32.3905 21.3092V16.3146H38.4194C39.3065 16.3134 40.4714 17.0378 40.8645 17.8322ZM34.7963 5.35156H38.1938V10.5718H34.7963V5.35156ZM27.416 8.52931H32.4213V10.5718H27.416V8.52931ZM36.6251 12.9456V13.9384H28.0608V12.9456H36.6251ZM23.5566 17.7431C24.2003 16.995 25.6858 16.3134 26.6715 16.3134H30.0154V21.3092L20.4917 21.3104L23.5566 17.7431ZM14.692 28.9318V25.6828C15.0102 23.9383 16.3746 23.7067 16.5433 23.6818H30.0166V29.8414L24.0981 29.8509C23.6659 27.9782 21.9915 26.5722 19.9882 26.5722C17.9849 26.5722 16.3105 27.977 15.8783 29.8509C14.629 29.7155 14.692 28.9318 14.692 28.9318ZM19.987 32.6498C18.967 32.6498 18.1357 31.8197 18.1357 30.7973C18.1357 29.7773 18.9658 28.946 19.987 28.946C21.0083 28.946 21.8383 29.7761 21.8383 30.7973C21.8383 31.8197 21.0083 32.6498 19.987 32.6498ZM38.2175 32.6498C37.1975 32.6498 36.3662 31.8197 36.3662 30.7973C36.3662 29.7773 37.1963 28.946 38.2175 28.946C39.2388 28.946 40.0688 29.7761 40.0688 30.7973C40.0676 31.8197 39.2376 32.6498 38.2175 32.6498ZM42.2859 29.7167C41.805 27.9117 40.1721 26.5722 38.2175 26.5722C36.2201 26.5722 34.5517 27.9687 34.1135 29.8342L32.3916 29.8366V23.6818H43.3107L43.3131 28.4093C43.3131 29.5255 42.2859 29.7167 42.2859 29.7167ZM23.4438 25.6483C23.4438 24.9916 23.9746 24.4608 24.6313 24.4608H27.2094C27.8661 24.4608 28.3969 24.9916 28.3969 25.6483C28.3969 26.305 27.8661 26.8358 27.2094 26.8358H24.6313C23.9758 26.8358 23.4438 26.3038 23.4438 25.6483Z" fill="#989898"/>
</svg>
