<svg width="56" height="57" viewBox="0 0 56 57" fill="none" xmlns="http://www.w3.org/2000/svg">
<g clip-path="url(#clip0_1_281)">
<path d="M30.6483 27.4495L31.6848 27.9138C31.8299 27.9788 31.9818 28.0096 32.1313 28.0096C32.5492 28.0096 32.9482 27.7687 33.1301 27.3626C33.377 26.8114 33.1303 26.1643 32.579 25.9173L31.5426 25.453C30.9912 25.2056 30.3443 25.4528 30.0973 26.0041C29.8503 26.5554 30.0971 27.2025 30.6483 27.4495Z" fill="#636363"/>
<path d="M23.8686 28.0093C24.018 28.0093 24.1699 27.9785 24.3151 27.9135L25.3515 27.4492C25.9027 27.2023 26.1495 26.5552 25.9025 26.0039C25.6556 25.4526 25.0084 25.2058 24.4572 25.4529L23.4208 25.9172C22.8696 26.1642 22.6228 26.8112 22.8698 27.3625C23.0517 27.7685 23.4507 28.0093 23.8686 28.0093Z" fill="#636363"/>
<path d="M53.2879 42.8747C52.9874 42.3506 52.3189 42.1697 51.795 42.47C51.271 42.7705 51.0899 43.4389 51.3904 43.9629L53.1694 47.0654C53.8513 48.2545 53.9987 49.6289 53.5846 50.9356C53.1705 52.2423 52.2584 53.2809 51.0161 53.8601C49.7741 54.4395 48.3918 54.4706 47.1248 53.9478C45.8576 53.4251 44.8995 52.4287 44.4268 51.1421L37.2556 31.6182L42.8229 29.0221L46.4937 35.4235C46.7941 35.9475 47.4625 36.129 47.9865 35.8282C48.5105 35.5277 48.6917 34.8594 48.3912 34.3353L44.2204 27.062C43.992 26.6636 43.548 26.4606 43.1141 26.5239L43.4802 22.3396C43.6496 20.4025 42.9425 18.519 41.5404 17.1721L40.8681 16.5263C39.5206 10.5522 34.1601 6.24921 28.0001 6.24921C21.8489 6.24921 16.4792 10.5556 15.1319 16.5263L14.4598 17.1719C13.0576 18.5189 12.3505 20.4024 12.52 22.3396L12.886 26.5239C12.4524 26.4607 12.0083 26.6637 11.7798 27.062L0.933321 45.9773C-0.0424038 47.6787 -0.262136 49.7269 0.330343 51.5965C0.92293 53.4662 2.28223 55.0139 4.05977 55.8427C4.99766 56.2801 6.01374 56.4995 7.03092 56.4995H7.03332L7.03092 56.5023H48.9694L48.9677 56.4995H48.9694C49.9864 56.4995 51.0027 56.28 51.9405 55.8427C53.7181 55.0139 55.0774 53.4662 55.6699 51.5965C56.2624 49.7268 56.0427 47.6787 55.067 45.9773L53.2879 42.8747ZM43.8797 54.3148H12.1206C12.7761 53.6256 13.2932 52.8047 13.6268 51.8964L16.9166 42.9399L20.1108 42.4414C20.4802 42.3837 20.8337 42.2865 21.168 42.1551C23.0098 43.8852 25.4554 44.8635 28.0001 44.8635C30.5448 44.8635 32.9903 43.8852 34.8321 42.1551C35.1664 42.2866 35.52 42.3838 35.8893 42.4414L39.0836 42.9399L42.3734 51.8964C42.7071 52.8047 43.2242 53.6256 43.8797 54.3148ZM20.7467 25.6886L20.5465 23.3999L21.8463 19.948C21.9486 19.6761 22.0167 19.3943 22.0532 19.1094C22.9088 18.5648 23.8269 18.1427 24.7947 17.8518C27.7542 20.3599 31.3043 21.9683 35.1284 22.5356L35.4538 23.3999L35.2535 25.6886C35.1289 27.1139 35.2952 28.5556 35.7346 29.9138L35.42 30.0605C34.905 30.3006 34.6596 30.8953 34.8556 31.4288L35.4647 33.0873C33.756 35.5285 30.9999 36.9728 28.0002 36.9728C24.9997 36.9728 22.2443 35.5287 20.5356 33.0874L21.1449 31.4289C21.3409 30.8955 21.0955 30.3008 20.5805 30.0606L20.2659 29.9139C20.7051 28.5556 20.8714 27.1139 20.7467 25.6886ZM33.919 37.4942C34.811 36.9454 35.6278 36.2706 36.3446 35.483L38.2209 40.5913L36.2265 40.2801C35.8363 40.2192 35.4787 40.0776 35.1662 39.8764C35.1646 39.8755 35.1631 39.8745 35.1616 39.8736C34.4081 39.3862 33.919 38.4478 33.919 37.4942ZM24.1802 38.5017C25.385 38.9319 26.6731 39.1603 28.0001 39.1603C29.327 39.1603 30.6152 38.9319 31.82 38.5016C31.9863 39.3999 32.3956 40.2135 32.9831 40.8696C31.5924 42.027 29.8295 42.6761 28.0001 42.6761C26.1707 42.6761 24.4078 42.027 23.017 40.8696C23.6046 40.2135 24.0137 39.3999 24.1802 38.5017ZM22.0812 37.4944C22.0812 38.8449 21.1079 40.0718 19.7735 40.28L17.7792 40.5913L19.6555 35.483C20.3723 36.2707 21.1892 36.9457 22.0812 37.4944ZM41.3012 22.149L40.8295 27.538L37.7354 28.9808C37.4457 27.9772 37.3413 26.9226 37.4326 25.8792L37.6545 23.3427C37.6689 23.1795 37.6463 23.0152 37.5885 22.8619L36.2012 19.1774C36.0517 18.7802 36.072 18.3335 36.2571 17.9516C36.4766 17.4986 36.8866 17.188 37.3821 17.0993C37.4758 17.0826 37.5695 17.0743 37.6623 17.0743C38.0593 17.0743 38.4386 17.2258 38.7328 17.5085L40.0248 18.7496C40.9474 19.6356 41.4125 20.8747 41.3012 22.149ZM28.0001 8.43669C32.3819 8.43669 36.2775 11.0466 38.0273 14.9043C37.6893 14.8719 37.3436 14.8841 36.9967 14.9462C35.8041 15.1597 34.817 15.9075 34.2887 16.9978C33.8433 17.9169 33.7942 18.9921 34.1541 19.9483L34.2301 20.1501C31.1029 19.4708 28.2175 17.9957 25.8024 15.8285C25.533 15.5868 25.1613 15.4938 24.8102 15.5806C23.6921 15.8562 22.6244 16.273 21.621 16.8237C21.0749 15.8283 20.1315 15.1481 19.0035 14.9461C18.6568 14.8841 18.311 14.8719 17.973 14.9043C19.7241 11.0482 23.6248 8.43669 28.0001 8.43669ZM15.9753 18.7496L17.2672 17.5085C17.6301 17.1598 18.1225 17.0108 18.618 17.0993C19.1135 17.188 19.5235 17.4986 19.743 17.9516C19.928 18.3334 19.9484 18.7802 19.799 19.1772L18.4116 22.8618C18.3539 23.0151 18.3313 23.1794 18.3455 23.3426L18.5675 25.8791C18.6588 26.9225 18.5544 27.9771 18.2647 28.9807L15.1705 27.5379L14.6989 22.1489C14.5878 20.8747 15.0527 19.6356 15.9753 18.7496ZM4.98431 53.8602C3.74204 53.281 2.82986 52.2424 2.41578 50.9357C2.00169 49.629 2.14912 48.2546 2.83096 47.0655L13.1776 29.0222L18.7449 31.6183L11.5737 51.1422C11.101 52.4289 10.1429 53.4253 8.87573 53.9479C7.60863 54.4708 6.22658 54.4396 4.98431 53.8602Z" fill="#636363"/>
<path d="M25.4849 32.6924C25.9121 33.1195 26.6046 33.1195 27.0318 32.6924C27.2903 32.4338 27.6341 32.2914 27.9997 32.2914C28.3655 32.2914 28.7091 32.4338 28.9678 32.6924C29.1814 32.906 29.4613 33.0127 29.7412 33.0127C30.0211 33.0127 30.301 32.9059 30.5146 32.6924C30.9417 32.2652 30.9417 31.5727 30.5146 31.1456C29.8428 30.4738 28.9498 30.1039 27.9997 30.1039C27.0497 30.1039 26.1566 30.4738 25.485 31.1456C25.0578 31.5727 25.0578 32.2651 25.4849 32.6924Z" fill="#636363"/>
<path d="M48.9321 15.6305L50.7033 16.6532L46.7337 18.9134C46.2088 19.2122 46.0255 19.8801 46.3244 20.4051C46.5261 20.7592 46.8956 20.9579 47.2758 20.9579C47.4594 20.9579 47.6453 20.9116 47.816 20.8144L53.4434 17.6103C53.7839 17.4164 53.9947 17.055 53.9959 16.6631C53.9971 16.2713 53.7886 15.9087 53.4491 15.7127L51.8274 14.7763L55.3765 13.0857C55.9218 12.8259 56.1535 12.1733 55.8937 11.6278C55.6339 11.0825 54.9811 10.8512 54.436 11.1107L49.0087 13.6958C48.6418 13.8705 48.4021 14.2341 48.3861 14.64C48.3701 15.0459 48.5803 15.4274 48.9321 15.6305Z" fill="#636363"/>
<path d="M42.4007 12.5016C42.602 12.6616 42.8422 12.7394 43.0808 12.7394C43.4027 12.7394 43.7216 12.5979 43.9375 12.3264L47.9683 7.2583C48.2122 6.95151 48.2734 6.53775 48.1287 6.17353C47.984 5.80932 47.6554 5.55043 47.2674 5.49487L45.4138 5.22931L48.0789 2.33943C48.4884 1.89537 48.4603 1.20347 48.0163 0.793975C47.5721 0.384479 46.8804 0.412478 46.4707 0.856537L42.3954 5.27568C42.12 5.57427 42.0329 6.00094 42.169 6.38375C42.3051 6.76656 42.6422 7.04229 43.0444 7.09982L45.069 7.38977L42.2257 10.9649C41.8495 11.4376 41.928 12.1256 42.4007 12.5016Z" fill="#636363"/>
<path d="M0.623779 13.0858L4.17289 14.7764L2.55119 15.7128C2.21169 15.9088 2.00311 16.2713 2.00431 16.6632C2.00551 17.0551 2.21628 17.4165 2.55687 17.6104L8.18422 20.8145C8.35506 20.9118 8.541 20.958 8.72442 20.958C9.10472 20.958 9.47419 20.7593 9.67587 20.4052C9.97469 19.8803 9.79148 19.2124 9.26659 18.9135L5.29694 16.6533L7.06815 15.6306C7.42001 15.4275 7.63023 15.0461 7.61415 14.6401C7.59819 14.2342 7.35833 13.8706 6.99159 13.6959L1.56429 11.1108C1.01906 10.8511 0.36631 11.0826 0.106544 11.6279C-0.153221 12.1733 0.0783257 12.826 0.623779 13.0858Z" fill="#636363"/>
<path d="M10.5865 5.22946L8.73285 5.49502C8.3449 5.55059 8.01623 5.80947 7.87153 6.17369C7.72683 6.5379 7.78797 6.95177 8.03198 7.25846L12.0627 12.3265C12.2786 12.598 12.5976 12.7395 12.9195 12.7395C13.158 12.7395 13.3983 12.6619 13.5996 12.5017C14.0723 12.1257 14.1508 11.4376 13.7748 10.9649L10.9313 7.38982L12.9559 7.09987C13.3581 7.04223 13.6951 6.7665 13.8313 6.3838C13.9674 6.00099 13.8802 5.57443 13.6049 5.27573L9.52942 0.856584C9.12003 0.412635 8.42802 0.384307 7.98386 0.794022C7.5398 1.20352 7.5118 1.89542 7.92129 2.33948L10.5865 5.22946Z" fill="#636363"/>
<path d="M49.9023 40.2375C50.5064 40.2375 50.9961 39.7478 50.9961 39.1437C50.9961 38.5397 50.5064 38.05 49.9023 38.05C49.2983 38.05 48.8086 38.5397 48.8086 39.1437C48.8086 39.7478 49.2983 40.2375 49.9023 40.2375Z" fill="#636363"/>
</g>
<defs>
<clipPath id="clip0_1_281">
<rect width="56" height="56" fill="white" transform="translate(0 0.5)"/>
</clipPath>
</defs>
</svg>
