<svg width="50" height="51" viewBox="0 0 50 51" fill="none" xmlns="http://www.w3.org/2000/svg">
<path fill-rule="evenodd" clip-rule="evenodd" d="M42.2977 11.8732C41.9686 11.8732 41.6467 11.9708 41.373 12.1537C41.0993 12.3366 40.886 12.5965 40.76 12.9007C40.634 13.2048 40.6011 13.5395 40.6653 13.8623C40.7295 14.1852 40.888 14.4818 41.1208 14.7146C41.3536 14.9473 41.6502 15.1059 41.973 15.1701C42.2959 15.2343 42.6306 15.2013 42.9347 15.0754C43.2388 14.9494 43.4988 14.736 43.6817 14.4623C43.8646 14.1886 43.9622 13.8668 43.9622 13.5376C43.9622 13.0962 43.7868 12.6728 43.4747 12.3607C43.1625 12.0485 42.7392 11.8732 42.2977 11.8732Z" fill="#636363"/>
<path fill-rule="evenodd" clip-rule="evenodd" d="M6.42665 36.0775C6.09746 36.0775 5.77565 36.1751 5.50194 36.358C5.22822 36.5409 5.01488 36.8009 4.88891 37.105C4.76293 37.4091 4.72997 37.7438 4.79419 38.0667C4.85841 38.3895 5.01694 38.6861 5.24971 38.9189C5.48249 39.1517 5.77907 39.3102 6.10194 39.3744C6.42481 39.4386 6.75947 39.4057 7.06361 39.2797C7.36775 39.1537 7.6277 38.9404 7.81059 38.6667C7.99348 38.393 8.0911 38.0712 8.0911 37.742C8.0911 37.3005 7.91574 36.8772 7.60359 36.565C7.29145 36.2529 6.86809 36.0775 6.42665 36.0775Z" fill="#636363"/>
<path fill-rule="evenodd" clip-rule="evenodd" d="M48.4888 23.9443C47.7502 22.8021 46.7826 21.8256 45.6472 21.0766C44.5117 20.3276 43.2333 19.8223 41.8926 19.5928C40.5518 19.3632 39.1781 19.4144 37.8582 19.743C36.5383 20.0717 35.3009 20.6706 34.2244 21.5021C34.0844 21.1909 33.9288 20.9109 33.7733 20.6154C33.9961 19.994 34.1831 19.3604 34.3333 18.7176C36.091 10.9398 33.9444 4.15761 29.4177 1.69983C28.2062 1.07926 26.8791 0.717018 25.5203 0.636058C24.1616 0.555098 22.8008 0.75718 21.5242 1.22951C20.2476 1.70183 19.083 2.43411 18.1042 3.37996C17.1253 4.32581 16.3535 5.46462 15.8377 6.72427C14.7596 5.88241 13.5177 5.2748 12.1913 4.94028C10.865 4.60576 9.48346 4.55171 8.13505 4.78157C6.78664 5.01143 5.50103 5.52014 4.36043 6.27519C3.21983 7.03024 2.24935 8.015 1.51104 9.1665C-1.18007 13.5532 0.32882 20.4909 5.77326 26.3709C8.58769 29.22 11.9542 31.4644 15.6666 32.9665L15.7599 33.4643C16.8488 38.8776 21.5466 45.3176 25.731 49.8598C25.945 50.0883 26.219 50.2518 26.5217 50.3316C26.8243 50.4114 27.1434 50.4042 27.4422 50.3109C33.3066 48.4754 40.5555 45.2398 44.2422 41.0554C49.671 35.2065 51.1799 28.2843 48.4888 23.9443ZM8.2466 24.2087C5.84429 21.82 4.21797 18.7625 3.57993 15.4354C3.30375 13.9057 3.56769 12.3275 4.3266 10.9709C6.25549 7.85983 11.4355 6.63094 15.3399 10.8465C15.5459 11.0678 15.8079 11.2294 16.0981 11.3143C16.3883 11.3992 16.696 11.4042 16.9888 11.3287C17.2803 11.2483 17.5444 11.0899 17.7527 10.8706C17.961 10.6514 18.1056 10.3795 18.171 10.0843C19.4466 4.48427 24.5333 2.92872 27.7688 4.70205C29.1039 5.48658 30.1221 6.71392 30.6466 8.17094C31.7084 11.1691 31.8812 14.4102 31.1444 17.5043C29.6771 16.3432 27.9059 15.6302 26.0434 15.4509C24.1809 15.2715 22.3063 15.6334 20.6444 16.4932C17.0044 18.4687 14.9044 23.2443 15.1377 29.1243C12.554 27.9099 10.2175 26.2275 8.2466 24.1621V24.2087ZM46.4199 30.1198C45.7793 33.4506 44.1536 36.5123 41.7533 38.9087C38.6422 42.4398 32.5755 45.1309 27.4266 46.8421C23.8022 42.7821 19.8977 37.4154 18.9799 32.8421C18.106 29.5723 18.2306 26.1159 19.3377 22.9176C19.8371 21.398 20.8633 20.1069 22.231 19.2776C25.4666 17.5198 30.5533 19.0754 31.8288 24.6754C31.8975 24.9682 32.0442 25.2369 32.2533 25.4529C32.4624 25.669 32.7262 25.8244 33.0166 25.9026C33.307 25.9807 33.6131 25.9788 33.9024 25.8969C34.1918 25.8151 34.4536 25.6563 34.6599 25.4376C38.5644 21.2065 43.7444 22.4198 45.6577 25.5621C46.4432 26.9262 46.7136 28.5267 46.4199 30.0732V30.1198Z" fill="#636363"/>
<path fill-rule="evenodd" clip-rule="evenodd" d="M39.56 7.12874H40.5244C40.7176 7.13067 40.9021 7.20896 41.0377 7.34652L41.6911 8.06207C41.7805 8.16231 41.8988 8.23253 42.0296 8.26315C42.1604 8.29377 42.2975 8.28331 42.4222 8.23318C42.5489 8.18244 42.6571 8.09413 42.7321 7.98012C42.8072 7.86612 42.8456 7.73187 42.8422 7.59541C42.8422 7.22207 42.8422 6.8643 42.8422 6.63096C42.8404 6.53491 42.8589 6.43955 42.8964 6.35111C42.9339 6.26267 42.9897 6.18312 43.06 6.11763L43.7755 5.4643C43.8719 5.37165 43.9383 5.25225 43.9662 5.1215C43.994 4.99075 43.9821 4.85465 43.9319 4.73076C43.8816 4.60687 43.7954 4.50087 43.6844 4.42644C43.5733 4.35201 43.4425 4.31256 43.3088 4.31318H42.3444C42.2483 4.31494 42.153 4.29646 42.0646 4.25894C41.9761 4.22142 41.8966 4.1657 41.8311 4.09541C41.6755 3.90874 41.4266 3.6443 41.1777 3.37985C41.0911 3.2756 40.9729 3.20247 40.8409 3.17158C40.7089 3.1407 40.5705 3.15375 40.4466 3.20874C40.3172 3.25549 40.2063 3.34287 40.1306 3.45782C40.0549 3.57277 40.0184 3.70912 40.0266 3.84652V4.81096C40.0247 5.00412 39.9464 5.18867 39.8088 5.3243C39.6222 5.47985 39.3577 5.71318 39.0933 5.97763C38.989 6.06423 38.9159 6.1825 38.885 6.31446C38.8541 6.44643 38.8672 6.58487 38.9222 6.70874C38.9729 6.83546 39.0612 6.94362 39.1752 7.0187C39.2892 7.09378 39.4235 7.13218 39.56 7.12874Z" fill="#636363"/>
<path fill-rule="evenodd" clip-rule="evenodd" d="M14.5466 42.0976L13.6444 41.7554C13.5528 41.7237 13.4692 41.6725 13.3994 41.6054C13.3296 41.5382 13.2752 41.4567 13.2399 41.3665L12.9133 40.4487C12.864 40.3238 12.7783 40.2167 12.6674 40.1412C12.5564 40.0657 12.4253 40.0253 12.291 40.0253C12.1568 40.0253 12.0257 40.0657 11.9147 40.1412C11.8038 40.2167 11.7181 40.3238 11.6688 40.4487C11.5444 40.8065 11.4044 41.1487 11.3266 41.3665C11.297 41.4573 11.2463 41.5399 11.1788 41.6075C11.1112 41.6751 11.0286 41.7258 10.9377 41.7554L10.0355 42.0976C9.91063 42.1468 9.80347 42.2325 9.72796 42.3435C9.65244 42.4545 9.61206 42.5856 9.61206 42.7198C9.61206 42.854 9.65244 42.9852 9.72796 43.0961C9.80347 43.2071 9.91063 43.2928 10.0355 43.342L10.9377 43.6687C11.028 43.7039 11.1095 43.7583 11.1766 43.8282C11.2438 43.898 11.2949 43.9816 11.3266 44.0731C11.3266 44.2909 11.5444 44.6176 11.6688 44.9754C11.7181 45.1002 11.8038 45.2074 11.9147 45.2829C12.0257 45.3584 12.1568 45.3988 12.291 45.3988C12.4253 45.3988 12.5564 45.3584 12.6674 45.2829C12.7783 45.2074 12.864 45.1002 12.9133 44.9754L13.2399 44.0731C13.2767 43.982 13.3315 43.8992 13.401 43.8297C13.4705 43.7602 13.5532 43.7055 13.6444 43.6687L14.5466 43.342C14.6715 43.2928 14.7786 43.2071 14.8541 43.0961C14.9296 42.9852 14.97 42.854 14.97 42.7198C14.97 42.5856 14.9296 42.4545 14.8541 42.3435C14.7786 42.2325 14.6715 42.1468 14.5466 42.0976Z" fill="#636363"/>
</svg>
