<svg width="56" height="57" viewBox="0 0 56 57" fill="none" xmlns="http://www.w3.org/2000/svg">
<path d="M17.4617 6.04413C15.5385 6.54416 13.7767 7.53132 12.3461 8.91039C11.0447 10.3085 10.0393 11.9552 9.39021 13.7516C9.11059 14.5792 8.87997 15.4225 8.69954 16.2772L8.60621 16.6813C8.4938 17.1809 8.80496 17.6778 9.30351 17.7948C9.80206 17.9118 10.3018 17.6053 10.4234 17.1079L10.5167 16.7019C10.6802 15.9223 10.8887 15.1529 11.1411 14.3975C11.7035 12.8394 12.5745 11.4108 13.7022 10.1975C14.9115 9.05649 16.3922 8.24336 18.0039 7.83519C18.3231 7.73816 18.5662 7.47825 18.6417 7.15338C18.7172 6.82851 18.6137 6.48802 18.3701 6.26018C18.1265 6.03234 17.7799 5.95176 17.4607 6.04879L17.4617 6.04413Z" fill="#636363"/>
<path d="M8.39989 21.0317C8.91535 21.0317 9.33322 20.6138 9.33322 20.0983C9.33322 19.5829 8.91535 19.165 8.39989 19.165C7.88442 19.165 7.46655 19.5829 7.46655 20.0983C7.46655 20.6138 7.88442 21.0317 8.39989 21.0317Z" fill="#636363"/>
<path d="M51.3044 13.958C53.2021 10.1352 52.26 5.51184 49.0177 2.73651C45.7755 -0.038824 41.0621 -0.256485 37.5778 2.20822C34.563 0.918417 31.2908 0.343124 28.0168 0.527288C24.9797 0.738018 21.9623 1.17131 18.9886 1.82369C14.7812 2.66369 11.7226 4.13742 9.63384 6.34475C7.98687 8.10739 6.71347 10.185 5.89024 12.4525C5.55376 13.4277 5.2776 14.4226 5.06331 15.4317L4.96998 15.8246C4.77122 16.5572 4.50372 17.2694 4.17104 17.9517C3.98438 18.3773 3.79118 18.802 3.62411 19.2434C3.40926 19.7338 3.3244 20.2712 3.37771 20.804C3.56568 21.6398 4.04844 22.38 4.73758 22.889C5.19398 23.3072 5.49358 23.603 5.49731 23.8597C5.46319 24.0016 5.40981 24.1382 5.33864 24.2657C4.22073 26.6184 2.85166 28.8434 1.25531 30.9017C0.578643 31.7258 -0.13069 32.6853 0.0186432 33.6476C0.217456 34.389 0.705736 35.0195 1.37384 35.3976C1.68049 35.6106 2.00421 35.7979 2.34171 35.9576C2.74584 36.1648 3.42251 36.5101 3.47011 36.7518C3.52845 37.0703 3.49009 37.3989 3.35998 37.6954C3.22091 37.9941 3.07531 38.2498 2.94931 38.4729C2.60771 39.0768 2.03464 40.0885 2.89798 40.7913C3.09958 40.978 3.44771 41.2477 3.76504 41.4922C3.53138 41.9007 3.42571 42.3699 3.46171 42.839C3.51163 43.2086 3.71189 43.5413 4.01518 43.7584C4.22238 43.903 4.44358 44.0309 4.66198 44.1541C5.21451 44.4686 5.42918 44.6152 5.50198 44.9073C5.55399 45.2829 5.52211 45.6654 5.40864 46.0273C5.35358 46.2774 5.30038 46.5276 5.26864 46.774C5.17596 47.6246 5.28105 48.4851 5.57571 49.2884C5.9948 50.771 7.33549 51.8042 8.87598 51.8317C9.13353 51.8314 9.39034 51.8041 9.64224 51.7505C12.3084 51.1193 14.9355 50.3333 17.5102 49.3966C19.614 50.6305 20.9421 54.3825 21.2884 55.79C21.3918 56.2063 21.7657 56.4986 22.1946 56.4984L45.6213 56.433C45.9182 56.4325 46.1971 56.2907 46.3725 56.0511C46.5479 55.8116 46.5989 55.5029 46.5098 55.2197C46.2798 54.5872 45.9618 53.9902 45.5653 53.4464C45.3411 53.1232 45.139 52.7852 44.9605 52.4346C44.5377 51.5793 44.1853 50.6909 43.9068 49.7784C43.3735 47.9737 43.0037 46.1248 42.8017 44.254C42.6395 42.8817 42.6662 41.4936 42.881 40.1286L50.4 32.6181C50.9337 32.0842 51.0933 31.2815 50.8044 30.5841C50.5156 29.8867 49.8351 29.4319 49.0802 29.4317H46.1468L46.8468 27.565H49C52.412 27.5612 55.3241 25.0979 55.8938 21.7339C56.4636 18.3698 54.5248 15.085 51.3044 13.958ZM43.2842 53.256C43.4975 53.6798 43.7398 54.0883 44.0094 54.4786C44.03 54.5085 44.0496 54.5393 44.0701 54.572L22.9002 54.6317C22.2807 52.4177 21.1561 50.3775 19.6149 48.6714L20.4885 48.3662C21.0989 48.1534 21.559 47.9929 21.7952 47.9164C25.7945 46.6536 27.7937 44.8364 27.7396 42.503C27.7175 41.9931 27.297 41.5915 26.7866 41.593C26.5391 41.5989 26.304 41.7029 26.1332 41.8822C25.9623 42.0614 25.8697 42.3012 25.8757 42.5488C25.8981 43.5092 25.1113 44.9101 21.2296 46.1365C20.9813 46.2168 20.5072 46.382 19.8772 46.6032C19.1781 46.8477 18.284 47.1632 17.2965 47.4954C14.6701 48.4587 11.99 49.2689 9.26984 49.9221C8.39696 50.0937 7.54493 49.5433 7.34251 48.677C7.14308 48.1461 7.06805 47.5765 7.12318 47.012C7.14744 46.8169 7.19224 46.6218 7.23518 46.4268C7.42532 45.7815 7.45321 45.0993 7.31638 44.4406C7.0449 43.5835 6.41398 42.8868 5.58784 42.532L5.39464 42.4209C5.49561 42.217 5.61627 42.0235 5.75491 41.8432C5.91108 41.6447 5.98017 41.3914 5.94641 41.1412C5.91264 40.8909 5.7789 40.665 5.57571 40.515C5.35171 40.3498 4.82438 39.955 4.43704 39.6433C4.48184 39.5621 4.53038 39.4725 4.57704 39.3922C4.72358 39.1346 4.89064 38.8322 5.05398 38.4906C5.34933 37.8364 5.43633 37.1072 5.30318 36.4018C5.07918 35.2622 3.98811 34.7041 3.19198 34.2972C2.92308 34.1703 2.66548 34.0207 2.42198 33.8501C2.2224 33.7159 2.03501 33.5644 1.86198 33.3974C1.86198 33.2565 2.01411 32.913 2.72531 32.0478C4.39695 29.8953 5.83051 27.5679 7.00091 25.1066C7.21865 24.7213 7.34151 24.2897 7.35931 23.8476C7.26291 22.9094 6.76575 22.0587 5.99571 21.5142C5.62238 21.168 5.26304 20.8413 5.22104 20.538C5.22728 20.3171 5.27675 20.0996 5.36664 19.8977C5.51878 19.4982 5.69424 19.1062 5.87064 18.7133C6.25335 17.9245 6.55903 17.1006 6.78344 16.253L6.87678 15.8564C7.07572 14.9224 7.33131 14.0013 7.64211 13.0984C8.37785 11.0679 9.51699 9.20746 10.9909 7.62902C12.7773 5.73809 15.5866 4.40249 19.3573 3.65302C22.2409 3.02012 25.167 2.59869 28.112 2.39209C30.8048 2.23739 33.5003 2.64553 36.0266 3.59049C35.6098 4.04155 35.239 4.53305 34.9197 5.05769C32.4041 3.65208 29.2646 4.06064 27.1926 6.06328C25.1205 8.06592 24.6052 11.1896 25.9242 13.7517C22.4651 14.5669 20.1658 17.8449 20.577 21.375C20.9882 24.905 23.9794 27.5667 27.5333 27.565H37.4434L35.979 31.5933C35.7708 32.1655 35.8547 32.8034 36.204 33.3022C36.5532 33.8011 37.1238 34.0982 37.7328 34.0984H40.9425L40.1408 40.516C40.0915 40.9115 40.2988 41.2947 40.6569 41.4698C40.7247 41.4947 40.7952 41.5113 40.8669 41.5193C40.8067 42.5089 40.8351 43.5019 40.9518 44.4864C41.1669 46.4683 41.5598 48.4269 42.126 50.3384C42.4325 51.3406 42.8198 52.3164 43.2842 53.256ZM49.0802 31.2984L42.3304 38.0482L42.797 34.3308C42.8638 33.7989 42.6987 33.2641 42.3438 32.8624C41.9889 32.4608 41.4785 32.231 40.9425 32.2317H37.7328L39.633 27.005C39.633 26.9948 39.6396 26.9845 39.6442 26.9742L40.7866 23.8317H46.2532L44.3986 28.7784C44.1845 29.3514 44.2648 29.993 44.6135 30.4957C44.9622 30.9983 45.535 31.2982 46.1468 31.2984H49.0802ZM52.6362 24.1957C51.6718 25.1596 50.3635 25.7003 49 25.6984H47.5468L48.0013 24.485C48.2154 23.912 48.1352 23.2704 47.7865 22.7677C47.4378 22.2651 46.8649 21.9652 46.2532 21.965H40.7866C40.002 21.9666 39.3015 22.4573 39.032 23.1942L38.122 25.6984H27.5333C25.6993 25.6917 24.0083 24.7071 23.097 23.1155C22.1858 21.5239 22.193 19.5671 23.1157 17.9822C24.0385 16.3973 25.7367 15.425 27.5706 15.4317C27.94 15.4319 28.2747 15.2142 28.4244 14.8765C28.574 14.5388 28.5105 14.1447 28.2622 13.8712C27.4913 13.0205 27.0651 11.913 27.0666 10.765C27.0665 8.96576 28.1008 7.32668 29.7248 6.5523C31.3489 5.77792 33.2736 6.0062 34.6714 7.13902C34.8969 7.32289 35.1951 7.39115 35.4781 7.32361C35.761 7.25608 35.9963 7.06048 36.1144 6.79462C37.5499 3.57676 41.0395 1.80038 44.486 2.53309C47.9325 3.2658 50.3977 6.30817 50.4 9.83169C50.4012 11.3319 49.9454 12.7969 49.0933 14.0317C48.9101 14.2979 48.8776 14.6399 49.0074 14.9358C49.1372 15.2317 49.4109 15.4394 49.7308 15.4849C51.6562 15.7584 53.2618 17.0965 53.8778 18.9411C54.4939 20.7857 54.0146 22.82 52.64 24.1957H52.6362Z" fill="#636363"/>
<path d="M40.1333 9.8316C39.6178 9.8316 39.2 10.2495 39.2 10.7649C39.2 11.2804 39.6178 11.6983 40.1333 11.6983C42.1951 11.6983 43.8666 13.3697 43.8666 15.4316C43.8666 15.9471 44.2845 16.3649 44.8 16.3649C45.3154 16.3649 45.7333 15.9471 45.7333 15.4316C45.7302 12.3401 43.2248 9.83469 40.1333 9.8316Z" fill="#636363"/>
<path d="M34.5334 15.4317C32.4715 15.4317 30.8 17.1032 30.8 19.1651C30.8 19.6805 31.2179 20.0984 31.7334 20.0984C32.2488 20.0984 32.6667 19.6805 32.6667 19.1651C32.6667 18.1341 33.5025 17.2984 34.5334 17.2984C35.0488 17.2984 35.4667 16.8805 35.4667 16.3651C35.4667 15.8496 35.0488 15.4317 34.5334 15.4317Z" fill="#636363"/>
<path d="M33.6 35.0317C33.6 33.2201 31.0688 30.3071 30.561 29.7415C30.3793 29.5529 30.1286 29.4463 29.8666 29.4463C29.6047 29.4463 29.354 29.5529 29.1722 29.7415C28.6645 30.3071 26.1333 33.2201 26.1333 35.0317C26.1333 37.0935 27.8048 38.765 29.8666 38.765C31.9285 38.765 33.6 37.0935 33.6 35.0317ZM29.8666 36.8983C28.8357 36.8983 28 36.0626 28 35.0317C28 34.4362 28.8764 33.0474 29.8666 31.8107C30.8578 33.0539 31.7333 34.4539 31.7333 35.0317C31.7333 36.0626 30.8976 36.8983 29.8666 36.8983Z" fill="#636363"/>
<path d="M53.2001 45.2984C53.2001 43.4868 50.6689 40.5739 50.1611 40.0083C49.9794 39.8196 49.7287 39.713 49.4667 39.713C49.2048 39.713 48.9541 39.8196 48.7723 40.0083C48.2646 40.5739 45.7334 43.4868 45.7334 45.2984C45.7334 47.3603 47.4049 49.0317 49.4667 49.0317C51.5286 49.0317 53.2001 47.3603 53.2001 45.2984ZM47.6001 45.2984C47.6001 44.7029 48.4765 43.3141 49.4667 42.0775C50.4579 43.3207 51.3334 44.7207 51.3334 45.2984C51.3334 46.3293 50.4977 47.1651 49.4667 47.1651C48.4358 47.1651 47.6001 46.3293 47.6001 45.2984Z" fill="#636363"/>
<path d="M34.7723 42.8082C34.2646 43.3738 31.7334 46.2868 31.7334 48.0984C31.7334 50.1602 33.4049 51.8317 35.4667 51.8317C37.5286 51.8317 39.2001 50.1602 39.2001 48.0984C39.2001 46.2868 36.6689 43.3738 36.1611 42.8082C35.9794 42.6195 35.7287 42.5129 35.4667 42.5129C35.2048 42.5129 34.9541 42.6195 34.7723 42.8082ZM35.4667 49.965C34.4358 49.965 33.6001 49.1293 33.6001 48.0984C33.6001 47.5029 34.4765 46.1141 35.4667 44.8774C36.4579 46.1206 37.3334 47.5206 37.3334 48.0984C37.3334 49.1293 36.4977 49.965 35.4667 49.965Z" fill="#636363"/>
</svg>
