<svg width="56" height="57" viewBox="0 0 56 57" fill="none" xmlns="http://www.w3.org/2000/svg">
<path d="M4.61224 24.0184C5.59487 23.6246 6.08312 22.2194 5.70599 20.8028C5.31487 19.3354 4.14237 18.4114 3.08099 18.7395C3.04203 18.7498 3.00398 18.7632 2.96724 18.7798C1.98462 19.1735 1.49637 20.577 1.87349 21.9928C2.26462 23.4619 3.43799 24.3876 4.49849 24.0586C4.53787 24.0464 4.57462 24.0368 4.61224 24.0184Z" stroke="#636363" stroke-width="1.75" stroke-linecap="round" stroke-linejoin="round"/>
<path d="M22.2898 11.0286L22.4175 10.9805C23.4789 10.6524 24.6523 11.5808 25.0364 13.0464C25.41 14.4464 24.9428 15.8333 23.9812 16.2445L23.9453 16.2638C23.9112 16.2751 23.8692 16.2935 23.835 16.304" stroke="#636363" stroke-width="1.75" stroke-linecap="round" stroke-linejoin="round"/>
<path d="M2.97534 18.7798L28.6373 8.48018C28.6776 8.46356 28.7126 8.45043 28.7537 8.43731C29.809 8.11093 30.9815 9.03143 31.3726 10.5032C31.7515 11.9154 31.2623 13.3198 30.2815 13.7144L4.61247 24.0184" stroke="#636363" stroke-width="1.75" stroke-linecap="round" stroke-linejoin="round"/>
<path d="M3.50007 13.625C5.8337 8.375 7.22706e-05 7.9375 4.37507 2.25" stroke="#636363" stroke-width="1.75" stroke-linecap="round" stroke-linejoin="round"/>
<path d="M7.40634 5.7876C9.99109 9.70585 6.74921 9.92372 7.00034 13.625" stroke="#636363" stroke-width="1.75" stroke-linecap="round" stroke-linejoin="round"/>
<path d="M27.0159 31.8845L12.406 49.8509L7.48413 45.8828L22.0958 27.9155L27.0159 31.8845Z" stroke="#636363" stroke-width="1.75" stroke-linecap="round" stroke-linejoin="round"/>
<path d="M23.3242 28.9079L25.65 26.0493L26.8793 27.0416L28.1096 28.0329L25.7856 30.8916" stroke="#636363" stroke-width="1.75" stroke-linecap="round" stroke-linejoin="round"/>
<path d="M38.5003 12.75L26.8794 27.0422" stroke="#636363" stroke-width="1.75" stroke-linecap="round" stroke-linejoin="round"/>
<path d="M7.48413 45.8832L5.84351 44.561" stroke="#636363" stroke-width="1.75" stroke-linecap="round" stroke-linejoin="round"/>
<path d="M12.406 49.8503L14.0449 51.1751" stroke="#636363" stroke-width="1.75" stroke-linecap="round" stroke-linejoin="round"/>
<path d="M8.71438 46.875L4.72876 51.7768" stroke="#636363" stroke-width="1.75" stroke-linecap="round" stroke-linejoin="round"/>
<path d="M11.1749 48.8591L7.19019 53.7583" stroke="#636363" stroke-width="1.75" stroke-linecap="round" stroke-linejoin="round"/>
<path d="M8.42013 54.7498L3.5 50.7834" stroke="#636363" stroke-width="1.75" stroke-linecap="round" stroke-linejoin="round"/>
<path d="M19.4385 31.1814L21.0791 32.5053" stroke="#636363" stroke-width="1.75" stroke-linecap="round" stroke-linejoin="round"/>
<path d="M16.7827 34.4507L18.4216 35.7728" stroke="#636363" stroke-width="1.75" stroke-linecap="round" stroke-linejoin="round"/>
<path d="M14.1252 37.7166L15.7659 39.0378" stroke="#636363" stroke-width="1.75" stroke-linecap="round" stroke-linejoin="round"/>
<path d="M11.469 40.9841L13.1096 42.3054" stroke="#636363" stroke-width="1.75" stroke-linecap="round" stroke-linejoin="round"/>
<path d="M49.8645 2.25C50.0966 2.25 50.3191 2.34219 50.4832 2.50628C50.6473 2.67038 50.7395 2.89294 50.7395 3.125V4C50.7395 4.23206 50.6473 4.45462 50.4832 4.61872C50.3191 4.78281 50.0966 4.875 49.8645 4.875V6.625C49.8645 6.85706 49.7723 7.07962 49.6082 7.24372C49.4441 7.40781 49.2216 7.5 48.9895 7.5L50.6765 19.2758C50.7207 19.5858 50.8473 19.8783 51.0431 20.1228L52.7135 22.2052C53.7088 23.4463 54.2516 24.9894 54.2526 26.5802V51.2369C54.2528 51.7819 54.0833 52.3135 53.7677 52.7579C53.4521 53.2022 53.006 53.5373 52.4913 53.7166C48.5319 55.0944 44.2233 55.0944 40.264 53.7166C39.7488 53.5377 39.3021 53.2028 38.986 52.7585C38.6699 52.3141 38.5 51.7822 38.5 51.2369V26.5846C38.501 24.9938 39.0438 23.4507 40.0391 22.2096L41.7095 20.1271C41.9053 19.8827 42.0319 19.5902 42.0761 19.2801L43.7631 7.5C43.5311 7.5 43.3085 7.40781 43.1444 7.24372C42.9803 7.07962 42.8881 6.85706 42.8881 6.625V4.875C42.6561 4.875 42.4335 4.78281 42.2694 4.61872C42.1053 4.45462 42.0131 4.23206 42.0131 4V3.125C42.0131 2.89294 42.1053 2.67038 42.2694 2.50628C42.4335 2.34219 42.6561 2.25 42.8881 2.25H49.8645Z" stroke="#636363" stroke-width="1.75" stroke-linecap="round" stroke-linejoin="round"/>
<path d="M43.7632 7.50171H45.5001" stroke="#636363" stroke-width="1.75" stroke-linecap="round" stroke-linejoin="round"/>
<path d="M49.8665 13.625H42.884" stroke="#636363" stroke-width="1.75" stroke-linecap="round" stroke-linejoin="round"/>
<path d="M50.75 48.45C50.75 49.85 42 49.85 42 48.45V29.55C42 28.15 50.75 28.15 50.75 29.55V48.45Z" stroke="#636363" stroke-width="1.75" stroke-linecap="round" stroke-linejoin="round"/>
</svg>
