<svg width="56" height="57" viewBox="0 0 56 57" fill="none" xmlns="http://www.w3.org/2000/svg">
<path d="M48.08 32.2903C47.6025 31.9205 46.9155 32.0076 46.5456 32.4852C45.3005 34.0925 43.4221 35.0144 41.3921 35.0144C40.7881 35.0144 40.2984 35.5041 40.2984 36.1081C40.2984 36.7122 40.7881 37.2019 41.3921 37.2019C42.2074 37.2019 43.0041 37.0898 43.7652 36.8758C43.9854 37.4432 44.1023 38.0491 44.1023 38.665C44.1023 41.3894 41.8857 43.6058 39.1613 43.6058C38.6817 43.6058 38.215 43.5388 37.766 43.4067C37.8446 43.0376 37.8867 42.6553 37.8867 42.2632C37.8867 41.2798 37.5215 39.9152 36.7054 39.0834C36.2826 38.6523 35.5899 38.6456 35.1587 39.0686C34.7274 39.4915 34.7208 40.1841 35.1438 40.6153C35.4448 40.9222 35.6991 41.6768 35.6991 42.2632C35.6991 44.0842 34.2175 45.5658 32.3964 45.5658C30.5753 45.5658 29.0938 44.0842 29.0938 42.2632V30.4815C29.5641 30.6952 30.0859 30.8153 30.6357 30.8153C31.2397 30.8153 31.7295 30.3257 31.7295 29.7216C31.7295 29.1175 31.2397 28.6278 30.6357 28.6278C29.7856 28.6278 29.0938 27.9424 29.0938 27.0998V14.7649C29.0938 12.9286 30.5876 11.4348 32.4239 11.4348C33.6791 11.4348 34.8223 12.1427 35.3885 13.2518C34.4191 13.7158 33.5712 14.4285 32.9454 15.3427C32.6041 15.8412 32.7315 16.5219 33.23 16.8631C33.7283 17.2043 34.4091 17.077 34.7503 16.5786C35.4999 15.4836 36.7383 14.8299 38.063 14.8299C40.2747 14.8299 42.074 16.6292 42.074 18.8408C42.074 19.1743 42.0328 19.5005 41.9536 19.8171C41.7675 19.8053 41.5803 19.7988 41.3921 19.7988C40.7881 19.7988 40.2984 20.2885 40.2984 20.8926C40.2984 21.4967 40.7881 21.9863 41.3921 21.9863C43.4208 21.9863 45.2983 22.907 46.5433 24.5125C46.7589 24.7906 47.0818 24.936 47.4083 24.936C47.6426 24.936 47.8785 24.8611 48.0778 24.7066C48.5551 24.3363 48.6421 23.6492 48.2718 23.1719C47.1844 21.7698 45.7353 20.759 44.1048 20.2274C44.208 19.7761 44.2615 19.313 44.2615 18.841C44.2615 15.4231 41.4809 12.6425 38.063 12.6425C37.8838 12.6425 37.7063 12.653 37.5297 12.6682L37.4695 12.5324C36.5865 10.5368 34.606 9.24744 32.4239 9.24744C30.615 9.24744 29.0069 10.1224 28 11.4712C26.9931 10.1224 25.385 9.24744 23.5762 9.24744C21.3941 9.24744 19.4135 10.5368 18.5305 12.5324L18.4704 12.6682C18.2937 12.653 18.1162 12.6425 17.9371 12.6425C14.5191 12.6425 11.7385 15.4231 11.7385 18.841C11.7385 19.3151 11.7927 19.7803 11.8969 20.2336C8.42275 21.3759 5.90649 24.6489 5.90649 28.5004C5.90649 31.6997 7.64335 34.4995 10.2225 36.0112C9.88606 36.8506 9.71041 37.751 9.71041 38.665C9.71041 42.5955 12.9082 45.7933 16.8387 45.7933C17.6247 45.7933 18.3867 45.6661 19.1157 45.4196C20.1103 46.8296 21.7506 47.7533 23.6036 47.7533C25.4001 47.7533 26.9978 46.8858 28 45.548C29.0022 46.886 30.6 47.7533 32.3964 47.7533C34.2494 47.7533 35.8896 46.8296 36.8844 45.4196C37.6134 45.6661 38.3753 45.7933 39.1613 45.7933C43.092 45.7933 46.2898 42.5955 46.2898 38.665C46.2898 37.7541 46.1153 36.8566 45.7811 36.0197C46.7295 35.4647 47.577 34.7259 48.2748 33.825C48.6448 33.3472 48.5575 32.6602 48.08 32.2903ZM26.9063 27.0998C26.9063 27.9424 26.2271 28.6278 25.3922 28.6278C24.7882 28.6278 24.2985 29.1175 24.2985 29.7216C24.2985 30.3257 24.7882 30.8153 25.3922 30.8153C25.9315 30.8153 26.4437 30.698 26.9063 30.4889V42.2631C26.9063 44.0841 25.4247 45.5657 23.6036 45.5657C21.7826 45.5657 20.301 44.0841 20.301 42.2631C20.301 41.6766 20.5553 40.922 20.8563 40.6152C21.2793 40.184 21.2727 39.4915 20.8414 39.0685C20.4101 38.6454 19.7176 38.652 19.2946 39.0833C18.4787 39.9151 18.1135 41.2797 18.1135 42.2631C18.1135 42.6552 18.1556 43.0375 18.2341 43.4066C17.785 43.5387 17.3185 43.6057 16.8387 43.6057C14.1144 43.6057 11.8979 41.3893 11.8979 38.6649C11.8979 38.0471 12.0155 37.4394 12.2369 36.8707C12.9913 37.0847 13.786 37.2018 14.6081 37.2018C15.2121 37.2018 15.7018 36.7121 15.7018 36.108C15.7018 35.504 15.2121 35.0143 14.6081 35.0143C11.0162 35.0143 8.09397 32.0922 8.09397 28.5002C8.09397 24.9083 11.0161 21.9861 14.6081 21.9861C15.2121 21.9861 15.7018 21.4964 15.7018 20.8924C15.7018 20.2883 15.2121 19.7986 14.6081 19.7986C14.4194 19.7986 14.2327 19.8067 14.047 19.8186C13.9675 19.5015 13.9261 19.1747 13.9261 18.8406C13.9261 16.629 15.7254 14.8297 17.9372 14.8297C19.2618 14.8297 20.5003 15.4834 21.2498 16.5783C21.591 17.0768 22.2719 17.2041 22.7701 16.8629C23.2686 16.5217 23.396 15.841 23.0548 15.3425C22.4288 14.4283 21.581 13.7156 20.6116 13.2516C21.1777 12.1426 22.321 11.4347 23.5762 11.4347C25.4125 11.4347 26.9063 12.9286 26.9063 14.7648V27.0998Z" fill="#636363"/>
<path d="M39.6016 27.0997C39.6016 26.4956 39.1118 26.006 38.5078 26.006C37.9038 26.006 37.4141 26.4956 37.4141 27.0997C37.4141 29.2473 39.1612 30.9943 41.3086 30.9943C41.9125 30.9943 42.4023 30.5047 42.4023 29.9006C42.4023 29.2965 41.9125 28.8068 41.3086 28.8068C40.3673 28.8069 39.6016 28.0411 39.6016 27.0997Z" fill="#636363"/>
<path d="M20.5046 33.6797C19.9006 33.6797 19.4109 34.1694 19.4109 34.7735C19.4109 35.3775 19.9006 35.8672 20.5046 35.8672C21.0727 35.8672 21.6021 36.1489 21.9208 36.6206C22.1321 36.9335 22.477 37.1022 22.8281 37.1022C23.0387 37.1022 23.2517 37.0414 23.4393 36.9146C23.9399 36.5765 24.0715 35.8965 23.7333 35.396C23.0074 34.3214 21.8004 33.6797 20.5046 33.6797Z" fill="#636363"/>
<path d="M32.2945 35.396C31.9563 35.8965 32.0879 36.5764 32.5885 36.9146C32.7762 37.0415 32.9892 37.1022 33.1999 37.1022C33.551 37.1022 33.8958 36.9335 34.1072 36.6207C34.4259 36.149 34.9554 35.8672 35.5234 35.8672C36.1274 35.8672 36.6171 35.3775 36.6171 34.7735C36.6171 34.1694 36.1274 33.6797 35.5234 33.6797C34.2277 33.6797 33.0208 34.3213 32.2945 35.396Z" fill="#636363"/>
<path d="M17.4923 26.006C16.8882 26.006 16.3985 26.4956 16.3985 27.0997C16.3985 28.041 15.6328 28.8068 14.6914 28.8068C14.0873 28.8068 13.5977 29.2965 13.5977 29.9006C13.5977 30.5047 14.0873 30.9943 14.6914 30.9943C16.8389 30.9943 18.586 29.2472 18.586 27.0997C18.586 26.4956 18.0964 26.006 17.4923 26.006Z" fill="#636363"/>
<path d="M35.7947 19.7987C35.1907 19.7987 34.7009 20.2884 34.7009 20.8925C34.7009 21.7351 34.0154 22.4205 33.1729 22.4205C32.5689 22.4205 32.0791 22.9102 32.0791 23.5143C32.0791 24.1184 32.5689 24.608 33.1729 24.608C35.2216 24.608 36.8884 22.9413 36.8884 20.8925C36.8884 20.2884 36.3988 19.7987 35.7947 19.7987Z" fill="#636363"/>
<path d="M22.827 24.6078C23.4311 24.6078 23.9208 24.1181 23.9208 23.5141C23.9208 22.91 23.4311 22.4203 22.827 22.4203C21.9845 22.4203 21.2991 21.7349 21.2991 20.8922C21.2991 20.2882 20.8094 19.7985 20.2053 19.7985C19.6012 19.7985 19.1116 20.2882 19.1116 20.8922C19.1116 22.9411 20.7783 24.6078 22.827 24.6078Z" fill="#636363"/>
<path d="M39.8859 10.5783C40.0871 10.7383 40.3273 10.8161 40.566 10.8161C40.8878 10.8161 41.2068 10.6747 41.4227 10.4031L44.6986 6.28402C44.9425 5.97723 45.0037 5.56346 44.859 5.19924C44.7143 4.83502 44.3857 4.57613 43.9977 4.52057L42.8901 4.36187L44.7748 2.33985C45.1867 1.89798 45.1623 1.20585 44.7205 0.794053C44.2788 0.382257 43.5867 0.406538 43.1745 0.848413L39.8622 4.40201C39.5845 4.69994 39.4954 5.12749 39.6309 5.51162C39.7664 5.89574 40.1041 6.17268 40.5073 6.23043L41.7993 6.41549L39.7107 9.04158C39.3346 9.5143 39.4131 10.2023 39.8859 10.5783Z" fill="#636363"/>
<path d="M13.11 4.36197L12.0025 4.52067C11.6145 4.57624 11.286 4.83513 11.1412 5.19935C10.9965 5.56357 11.0576 5.97744 11.3015 6.28413L14.5774 10.4032C14.7934 10.6747 15.1122 10.8162 15.4341 10.8162C15.6728 10.8162 15.913 10.7385 16.1142 10.5784C16.5869 10.2024 16.6655 9.5143 16.2894 9.04158L14.2009 6.41549L15.4928 6.23042C15.8959 6.17267 16.2337 5.89563 16.3692 5.51161C16.5047 5.1276 16.4154 4.69994 16.1377 4.402L12.8254 0.848409C12.4134 0.406425 11.7214 0.382362 11.2796 0.79405C10.8378 1.20596 10.8135 1.89797 11.2253 2.33985L13.11 4.36197Z" fill="#636363"/>
<path d="M48.7048 18.75C48.8883 18.75 49.0743 18.7037 49.245 18.6065L53.8184 16.0024C54.1589 15.8084 54.3698 15.4471 54.371 15.0552C54.3722 14.6633 54.1636 14.3007 53.8241 14.1047L52.8434 13.5385L55.3762 12.3321C55.9216 12.0723 56.1532 11.4197 55.8935 10.8742C55.6337 10.3288 54.9808 10.0975 54.4357 10.3571L50.0247 12.4581C49.6579 12.6327 49.4181 12.9963 49.4022 13.4023C49.3862 13.8083 49.5963 14.1897 49.9482 14.3928L51.0783 15.0453L48.1626 16.7055C47.6377 17.0043 47.4544 17.6722 47.7533 18.1972C47.955 18.5513 48.3246 18.75 48.7048 18.75Z" fill="#636363"/>
<path d="M0.623672 12.3321L3.15658 13.5385L2.17592 14.1048C1.83642 14.3008 1.62784 14.6633 1.62905 15.0552C1.63025 15.4471 1.84102 15.8085 2.18161 16.0024L6.75513 18.6065C6.92597 18.7039 7.1118 18.75 7.29522 18.75C7.67552 18.75 8.04509 18.5514 8.24667 18.1972C8.54559 17.6722 8.36239 17.0044 7.83739 16.7056L4.92156 15.0454L6.05173 14.3928C6.40359 14.1897 6.61381 13.8083 6.59773 13.4023C6.58166 12.9963 6.34191 12.6328 5.97517 12.4581L1.56441 10.3571C1.01895 10.0975 0.366312 10.3288 0.106547 10.8743C-0.153219 11.4196 0.0783281 12.0723 0.623672 12.3321Z" fill="#636363"/>
<path d="M41.75 53.4833L42.0909 53.4345C42.4788 53.3789 42.8075 53.1201 42.9522 52.7558C43.0969 52.3916 43.0358 51.9777 42.7919 51.6711L40.3196 48.5623C39.9435 48.0896 39.2555 48.0109 38.7826 48.3871C38.3099 48.7631 38.2314 49.4512 38.6073 49.9239L39.8923 51.5397L39.3805 51.613C38.9783 51.6706 38.6412 51.9463 38.505 52.3291C38.369 52.7119 38.4561 53.1385 38.7315 53.4371L41.2314 56.1478C41.447 56.3816 41.7409 56.5001 42.0358 56.5001C42.3009 56.5001 42.5667 56.4043 42.7769 56.2103C43.2211 55.8008 43.249 55.1088 42.8393 54.6648L41.75 53.4833Z" fill="#636363"/>
<path d="M55.3764 42.6475L53.5409 41.7731L54.0818 41.4609C54.4213 41.2649 54.6298 40.9024 54.6286 40.5104C54.6274 40.1184 54.4167 39.7571 54.0761 39.5632L50.2255 37.3708C49.7005 37.072 49.0328 37.2552 48.7338 37.7801C48.4349 38.3051 48.6181 38.9729 49.143 39.2717L51.3359 40.5203L50.6455 40.919C50.2937 41.1221 50.0834 41.5035 50.0995 41.9094C50.1156 42.3153 50.3553 42.679 50.7221 42.8536L54.4358 44.6226C54.5876 44.6949 54.7477 44.7291 54.9053 44.7291C55.314 44.7291 55.7061 44.499 55.8935 44.1054C56.1534 43.5599 55.9219 42.9072 55.3764 42.6475Z" fill="#636363"/>
<path d="M5.77469 37.3708L1.92414 39.5632C1.58355 39.7572 1.37278 40.1185 1.37158 40.5104C1.37037 40.9023 1.57906 41.2649 1.91845 41.4609L2.45931 41.7732L0.623672 42.6475C0.0783281 42.9073 -0.153219 43.5599 0.106547 44.1054C0.294016 44.4989 0.686016 44.729 1.09475 44.729C1.25236 44.729 1.41259 44.6948 1.5643 44.6225L5.27802 42.8536C5.64486 42.6789 5.8845 42.3152 5.90058 41.9093C5.91666 41.5034 5.70644 41.1219 5.35458 40.9188L4.6642 40.5202L6.85706 39.2715C7.38195 38.9727 7.56527 38.3049 7.26634 37.7799C6.96742 37.2551 6.29958 37.072 5.77469 37.3708Z" fill="#636363"/>
<path d="M17.2175 48.3868C16.7446 48.0108 16.0566 48.0892 15.6807 48.5621L13.2082 51.6708C12.9643 51.9776 12.9031 52.3914 13.0479 52.7556C13.1927 53.1198 13.5213 53.3787 13.9092 53.4343L14.2501 53.4832L13.1606 54.6646C12.7511 55.1087 12.7791 55.8006 13.2231 56.2101C13.4333 56.404 13.6992 56.4998 13.9644 56.4998C14.2591 56.4998 14.553 56.3814 14.7687 56.1475L17.2686 53.4369C17.544 53.1383 17.6311 52.7116 17.495 52.3288C17.3588 51.946 17.0217 51.6703 16.6196 51.6127L16.1078 51.5395L17.3928 49.9237C17.7687 49.4508 17.6902 48.7628 17.2175 48.3868Z" fill="#636363"/>
<path d="M48.9998 29.594C49.6038 29.594 50.0935 29.1043 50.0935 28.5002C50.0935 27.8962 49.6038 27.4065 48.9998 27.4065C48.3957 27.4065 47.906 27.8962 47.906 28.5002C47.906 29.1043 48.3957 29.594 48.9998 29.594Z" fill="#636363"/>
</svg>
