<svg width="56" height="57" viewBox="0 0 56 57" fill="none" xmlns="http://www.w3.org/2000/svg">
<g clip-path="url(#clip0_1_370)">
<path d="M28 0.5C12.5244 0.5 0 13.023 0 28.5C0 43.9754 12.523 56.5 28 56.5C43.4756 56.5 56 43.977 56 28.5C56 13.0244 43.477 0.5 28 0.5ZM28 52.593C14.7151 52.593 3.90698 41.785 3.90698 28.5C3.90698 15.215 14.7151 4.40698 28 4.40698C41.285 4.40698 52.093 15.215 52.093 28.5C52.093 41.785 41.285 52.593 28 52.593Z" fill="#636363"/>
<path d="M27.171 35.9281C25.623 35.9281 24.3699 37.2181 24.3699 38.766C24.3699 40.2772 25.5861 41.604 27.171 41.604C28.7558 41.604 30.0088 40.2772 30.0088 38.766C30.0088 37.2181 28.7188 35.9281 27.171 35.9281Z" fill="#636363"/>
<path d="M27.6509 14.4429C22.6752 14.4429 20.3901 17.3915 20.3901 19.3817C20.3901 20.8191 21.6064 21.4826 22.6015 21.4826C24.5918 21.4826 23.781 18.6445 27.5403 18.6445C29.3831 18.6445 30.8574 19.4554 30.8574 21.1508C30.8574 23.141 28.7934 24.2836 27.5772 25.3155C26.5082 26.2368 25.1078 27.748 25.1078 30.9177C25.1078 32.8342 25.6238 33.3871 27.1349 33.3871C28.9407 33.3871 29.3093 32.5763 29.3093 31.8758C29.3093 29.9594 29.3462 28.8537 31.3734 27.2688C32.3684 26.4949 35.5012 23.9886 35.5012 20.5241C35.5012 17.0597 32.3684 14.4429 27.6509 14.4429Z" fill="#636363"/>
</g>
<defs>
<clipPath id="clip0_1_370">
<rect width="56" height="56" fill="white" transform="translate(0 0.5)"/>
</clipPath>
</defs>
</svg>
