<svg width="100" height="100" viewBox="0 0 100 100" fill="none" xmlns="http://www.w3.org/2000/svg">
<path d="M15.146 48.3819C24.999 47.9407 35.2931 49.5583 44.5578 52.9407H44.999C45.146 52.9407 45.4401 52.9407 45.5872 52.7936C45.8813 52.6466 46.0284 52.3525 46.0284 51.9113C46.1754 50.1466 46.3225 48.3819 46.4695 46.6172C46.7637 41.4701 47.2048 36.176 48.3813 31.323C48.5284 30.7348 48.2342 30.2936 47.7931 29.9995C38.3813 26.176 28.2343 24.4113 18.3813 24.8525C17.9401 24.8525 17.499 25.1466 17.3519 25.7348C15.8813 31.323 14.7048 38.5289 14.1166 47.0583C13.9695 47.9407 14.5578 48.5289 15.146 48.3819ZM35.7343 47.7936C34.999 46.7642 34.4107 45.5878 33.6754 44.2642C34.2637 43.823 34.999 43.3819 35.5872 42.9407C36.0284 42.6466 36.6166 42.2054 37.0578 41.9113C38.3813 44.5583 39.8519 47.0583 41.3225 49.7054C39.5578 49.1172 37.646 48.676 35.8813 48.2348C35.7343 47.9407 35.7343 47.7936 35.7343 47.7936ZM32.9401 47.4995C28.6754 46.7642 24.4107 46.323 20.146 46.176L28.9695 39.8525C30.2931 42.6466 31.6166 45.2936 32.9401 47.4995ZM19.1166 27.2054C28.0872 26.9113 37.3519 28.5289 45.8813 31.9113C44.8519 36.6172 44.5578 41.7642 44.2637 46.6172C44.2637 47.6466 44.1166 48.8231 43.9695 49.8525C41.9107 46.6172 40.146 43.0878 38.3813 39.7054C38.2343 39.4113 37.9401 39.2642 37.646 39.1172C37.3519 38.9701 37.0578 39.1172 36.7637 39.2642C35.8813 39.8525 34.999 40.4407 34.2637 41.0289C33.6754 41.4701 33.2343 41.7642 32.646 42.2054C31.9107 40.7348 31.1754 39.2642 30.5872 37.6466C30.4401 37.3525 30.146 37.0583 29.8519 37.0583C29.5578 36.9113 29.1166 37.0583 28.9695 37.2054C26.0284 39.2642 16.7637 45.8819 16.4695 46.176H16.3225C16.9107 38.676 17.7931 32.3525 19.1166 27.2054Z" fill="#353535"/>
<path d="M34.8516 36.9119C36.1751 36.9119 37.3516 35.8825 37.3516 34.559C37.3516 33.2355 36.3222 32.2061 34.8516 32.2061C33.381 32.2061 32.3516 33.2355 32.3516 34.559C32.3516 35.8825 33.528 36.9119 34.8516 36.9119Z" fill="#353535"/>
<path d="M14.1159 57.3529C14.263 57.3529 14.263 57.3529 14.1159 57.3529C29.8512 57.3529 40.4394 61.0294 41.0277 61.0294C42.3512 61.0294 42.4983 59.2647 41.3218 58.8235C32.4983 56.1765 23.2336 55 13.9689 55C13.3806 55 12.9395 55.4412 12.9395 56.1765C13.0865 56.9118 13.5277 57.3529 14.1159 57.3529Z" fill="#353535"/>
<path d="M34.7052 68.3834C29.4111 66.7658 23.9699 66.0305 18.5287 66.1776C17.0581 66.1776 17.0581 68.3834 18.5287 68.3834C23.8228 68.2364 28.9699 68.9717 34.117 70.4423C34.7052 70.5893 35.2934 70.2952 35.4405 69.707C35.5875 69.1187 35.2934 68.5305 34.7052 68.3834Z" fill="#353535"/>
<path d="M62.2048 36.7662C68.8224 35.0015 75.8812 35.5897 82.0577 38.0897C82.2048 38.0897 82.3518 38.2368 82.4989 38.2368C82.94 38.2368 83.3812 37.9427 83.5283 37.5015C83.8224 36.9133 83.5283 36.325 82.94 36.0309C76.1753 33.2368 68.6753 32.7956 61.6165 34.5603C61.0283 34.7074 60.7342 35.2956 60.8812 35.8839C61.0283 36.4721 61.6165 36.9133 62.2048 36.7662Z" fill="#353535"/>
<path d="M60.2934 51.0298C66.9111 49.8534 73.8229 50.0004 80.4405 51.324H80.7346C81.1758 51.324 81.764 51.0298 81.764 50.4416C81.9111 49.8534 81.4699 49.2651 80.8817 49.1181C73.9699 47.6475 66.764 47.5004 59.8523 48.6769C59.264 48.8239 58.8228 49.4122 58.9699 50.0004C59.117 50.7357 59.7052 51.1769 60.2934 51.0298Z" fill="#353535"/>
<path d="M78.2351 62.3525C74.1174 60.2937 69.4115 59.8525 63.2351 60.882C62.6468 61.029 62.2057 61.6172 62.3527 62.2055C62.4998 62.7937 63.088 63.2349 63.6762 63.0878C69.2645 62.2055 73.6762 62.6467 77.3527 64.4114C77.4998 64.5584 77.6468 64.5584 77.7939 64.5584C78.2351 64.5584 78.5292 64.2643 78.8233 63.9702C79.1174 63.382 78.8233 62.6467 78.2351 62.3525Z" fill="#353535"/>
<path d="M3.96978 82.7962C4.9992 83.5315 5.14625 84.708 5.58743 86.0315C5.88155 87.355 7.35214 88.0903 8.67567 87.7962C18.3815 85.2962 34.2639 85.8845 41.911 86.9139C43.2345 87.355 44.558 87.7962 45.8815 88.3845C46.1757 88.5315 46.4698 88.5315 46.7639 88.3845C59.411 81.6198 77.058 82.5021 88.6757 90.4433C89.411 90.8845 90.4404 90.4433 90.4404 89.4139C90.2933 87.5021 90.8815 84.708 92.2051 83.5315C92.4992 83.2374 92.6463 82.9433 92.4992 82.5021C93.3815 73.5315 94.2639 64.4139 94.9992 55.1492C95.8815 46.0315 96.7639 36.7668 97.4992 27.7962C97.4992 27.3551 97.3521 27.0609 97.058 26.7668C90.5874 21.6198 82.9404 18.8256 73.6757 18.5315C65.4404 18.2374 60.7345 20.2962 53.5286 25.1492C43.2345 17.208 24.7051 14.5609 12.4992 19.708C12.058 19.8551 11.911 20.1492 11.7639 20.5903V20.7374C10.5874 21.7668 9.2639 22.9433 9.11684 24.4139C7.64625 42.0609 5.29331 61.7668 2.20508 80.2962C2.20508 81.3256 3.23449 82.208 3.96978 82.7962ZM45.7345 85.8845C33.8227 81.3256 21.4698 81.0315 9.2639 85.0021C9.2639 83.5315 8.67567 81.9139 7.79331 80.7374C18.9698 77.9433 34.9992 80.1492 45.8815 85.7374C45.7345 85.7374 45.7345 85.8845 45.7345 85.8845ZM88.2345 87.355C76.7639 80.4433 60.4404 79.5609 47.9404 85.1492C47.9404 85.0021 47.9404 85.0021 47.9404 84.855C53.9698 80.2962 60.2933 77.9433 68.3815 77.6492C77.058 77.355 83.6757 78.8256 89.8521 82.5021C88.9698 83.9727 88.3815 85.7374 88.2345 87.355ZM73.6757 20.7374C82.3521 21.0315 89.411 23.5315 95.2933 28.2374C94.411 37.0609 93.6757 46.0315 92.7933 55.0021C91.911 63.5315 91.1757 72.208 90.4404 80.5903C83.9698 76.9139 77.058 75.4433 68.2345 75.7374C60.4404 76.0315 54.1168 78.0903 48.2345 82.208C48.9698 73.2374 50.1463 63.3845 51.3227 53.6786C52.3521 44.8551 53.3815 35.7374 54.2639 27.5021C61.4698 22.3551 65.7345 20.4433 73.6757 20.7374ZM52.058 26.6198C51.3227 35.0021 50.1463 44.2668 49.1168 53.2374C47.9404 63.3845 46.6168 73.8256 45.8815 83.2374C34.7051 77.6492 18.6757 75.5903 7.20508 78.3845C9.2639 59.2668 12.058 40.4433 13.9698 21.3256C25.5874 17.0609 42.4992 19.4139 52.058 26.6198Z" fill="#353535"/>
<path d="M34.1175 15.5874C34.7058 15.5874 35.1469 14.9992 35.1469 14.4109C35.1469 13.2345 34.7058 12.058 33.9705 11.1757C33.6763 10.7345 32.941 10.5874 32.4999 10.8815C32.0587 11.1757 31.9116 11.9109 32.2058 12.3521C32.6469 12.9404 32.941 13.6757 32.941 14.4109C33.0881 15.1462 33.5293 15.5874 34.1175 15.5874Z" fill="#353535"/>
<path d="M39.2635 14.4117L39.9988 10.7352C40.1459 10.2941 39.7047 9.70583 39.1164 9.55878C38.5282 9.41172 37.94 9.85289 37.7929 10.4411L37.0576 14.1176C36.9106 14.7058 37.3517 15.2941 37.94 15.4411C38.5282 15.4411 39.1164 15 39.2635 14.4117Z" fill="#353535"/>
<path d="M42.353 16.9113L44.1178 14.5583C44.4119 14.1171 44.4119 13.3818 43.8236 13.0877C43.3825 12.7936 42.6472 12.7936 42.353 13.3818L40.5883 15.7348C40.0001 16.4701 40.5883 17.4995 41.4707 17.4995C41.7648 17.3524 42.0589 17.2054 42.353 16.9113Z" fill="#353535"/>
</svg>
