<svg width="103" height="49" viewBox="0 0 103 49" fill="none" xmlns="http://www.w3.org/2000/svg">
<rect x="0.493408" y="0.226685" width="102.467" height="48" rx="24" fill="#F44336"/>
<g clip-path="url(#clip0_1_455)">
<path d="M68.7847 23.3899C63.8582 19.6332 57.9599 17.6469 51.7264 17.6469C45.4929 17.6469 39.5947 19.6332 34.6682 23.3899C34.432 23.5699 34.2745 23.8376 34.2363 24.1345C34.198 24.4315 34.2767 24.7306 34.4567 24.9668L38.5734 30.3635C38.7556 30.6019 39.021 30.7572 39.318 30.7954C39.6149 30.8381 39.9141 30.7549 40.1503 30.5749C41.8869 29.2455 43.826 28.2309 45.9091 27.5583C46.4985 27.3671 46.8224 26.735 46.6335 26.1434L45.2522 21.849C49.4386 20.7827 54.0119 20.7805 58.2006 21.849L56.8194 26.1434C56.6282 26.735 56.9543 27.3671 57.5437 27.5583C59.6245 28.2309 61.5614 29.2455 63.3025 30.5749C63.5005 30.7234 63.7389 30.8066 63.9864 30.8066C64.0359 30.8066 64.0854 30.8021 64.1349 30.7954C64.4318 30.7549 64.6995 30.6019 64.8795 30.3657L68.9961 24.9668C69.1761 24.7306 69.2571 24.4292 69.2166 24.1345C69.1783 23.8376 69.0209 23.5699 68.7847 23.3899Z" fill="white"/>
</g>
<defs>
<clipPath id="clip0_1_455">
<rect width="35" height="35" fill="white" transform="translate(34.2268 6.72668)"/>
</clipPath>
</defs>
</svg>
